<mxfile host="Electron" agent="Mozilla/5.0 (X11; Linux x86_64) AppleWebKit/537.36 (KHTML, like Gecko) draw.io/26.0.4 Chrome/128.0.6613.186 Electron/32.2.5 Safari/537.36" version="26.0.4">
  <diagram name="Page-1" id="PnS8zm1HnDblyZHr85-I">
    <mxGraphModel dx="1114" dy="1027" grid="1" gridSize="10" guides="1" tooltips="1" connect="1" arrows="1" fold="1" page="1" pageScale="1" pageWidth="850" pageHeight="1100" math="0" shadow="0">
      <root>
        <mxCell id="0" />
        <mxCell id="1" parent="0" />
        <mxCell id="x2A0RtPgMXRv46P5IDje-11" value="&amp;nbsp;Record Up to 1 MB" style="edgeStyle=orthogonalEdgeStyle;rounded=0;orthogonalLoop=1;jettySize=auto;html=1;fontStyle=1" edge="1" parent="1" source="x2A0RtPgMXRv46P5IDje-9" target="x2A0RtPgMXRv46P5IDje-1">
          <mxGeometry relative="1" as="geometry" />
        </mxCell>
        <mxCell id="x2A0RtPgMXRv46P5IDje-9" value="Producers" style="whiteSpace=wrap;html=1;fillColor=none;dashed=1;verticalAlign=top;fontSize=20;fontStyle=1" vertex="1" parent="1">
          <mxGeometry x="230" y="210" width="350" height="450" as="geometry" />
        </mxCell>
        <mxCell id="x2A0RtPgMXRv46P5IDje-14" value="All or Failed data" style="edgeStyle=orthogonalEdgeStyle;rounded=0;orthogonalLoop=1;jettySize=auto;html=1;exitX=0;exitY=0.75;exitDx=0;exitDy=0;exitPerimeter=0;" edge="1" parent="1" source="x2A0RtPgMXRv46P5IDje-1" target="x2A0RtPgMXRv46P5IDje-13">
          <mxGeometry x="0.538" y="1" relative="1" as="geometry">
            <mxPoint y="1" as="offset" />
          </mxGeometry>
        </mxCell>
        <mxCell id="x2A0RtPgMXRv46P5IDje-15" style="edgeStyle=orthogonalEdgeStyle;rounded=0;orthogonalLoop=1;jettySize=auto;html=1;startArrow=classic;startFill=1;" edge="1" parent="1" source="x2A0RtPgMXRv46P5IDje-1" target="x2A0RtPgMXRv46P5IDje-12">
          <mxGeometry relative="1" as="geometry" />
        </mxCell>
        <mxCell id="x2A0RtPgMXRv46P5IDje-28" style="edgeStyle=orthogonalEdgeStyle;rounded=0;orthogonalLoop=1;jettySize=auto;html=1;" edge="1" parent="1" source="x2A0RtPgMXRv46P5IDje-1" target="x2A0RtPgMXRv46P5IDje-26">
          <mxGeometry relative="1" as="geometry" />
        </mxCell>
        <mxCell id="x2A0RtPgMXRv46P5IDje-1" value="Amazon Data Firehose" style="sketch=0;points=[[0,0,0],[0.25,0,0],[0.5,0,0],[0.75,0,0],[1,0,0],[0,1,0],[0.25,1,0],[0.5,1,0],[0.75,1,0],[1,1,0],[0,0.25,0],[0,0.5,0],[0,0.75,0],[1,0.25,0],[1,0.5,0],[1,0.75,0]];outlineConnect=0;fontColor=#232F3E;fillColor=#8C4FFF;strokeColor=#ffffff;dashed=0;verticalLabelPosition=bottom;verticalAlign=top;align=center;html=1;fontSize=12;fontStyle=0;aspect=fixed;shape=mxgraph.aws4.resourceIcon;resIcon=mxgraph.aws4.kinesis_data_firehose;" vertex="1" parent="1">
          <mxGeometry x="790" y="399" width="78" height="78" as="geometry" />
        </mxCell>
        <mxCell id="x2A0RtPgMXRv46P5IDje-2" value="Kinesis&lt;div&gt;Data Streams&lt;/div&gt;" style="sketch=0;points=[[0,0,0],[0.25,0,0],[0.5,0,0],[0.75,0,0],[1,0,0],[0,1,0],[0.25,1,0],[0.5,1,0],[0.75,1,0],[1,1,0],[0,0.25,0],[0,0.5,0],[0,0.75,0],[1,0.25,0],[1,0.5,0],[1,0.75,0]];outlineConnect=0;fontColor=#232F3E;fillColor=#8C4FFF;strokeColor=#ffffff;dashed=0;verticalLabelPosition=bottom;verticalAlign=top;align=center;html=1;fontSize=12;fontStyle=0;aspect=fixed;shape=mxgraph.aws4.resourceIcon;resIcon=mxgraph.aws4.kinesis_data_streams;" vertex="1" parent="1">
          <mxGeometry x="468" y="260" width="78" height="78" as="geometry" />
        </mxCell>
        <mxCell id="x2A0RtPgMXRv46P5IDje-3" value="&lt;span style=&quot;color: rgb(35, 47, 62); font-family: Helvetica; font-size: 12px; font-style: normal; font-variant-ligatures: normal; font-variant-caps: normal; font-weight: 400; letter-spacing: normal; orphans: 2; text-align: center; text-indent: 0px; text-transform: none; widows: 2; word-spacing: 0px; -webkit-text-stroke-width: 0px; white-space: nowrap; background-color: rgb(251, 251, 251); text-decoration-thickness: initial; text-decoration-style: initial; text-decoration-color: initial; float: none; display: inline !important;&quot;&gt;Client Desktop&lt;/span&gt;" style="sketch=0;outlineConnect=0;fontColor=#232F3E;gradientColor=none;fillColor=#232F3D;strokeColor=none;dashed=0;verticalLabelPosition=bottom;verticalAlign=top;align=center;html=1;fontSize=12;fontStyle=0;aspect=fixed;pointerEvents=1;shape=mxgraph.aws4.client;" vertex="1" parent="1">
          <mxGeometry x="350" y="400" width="78" height="76" as="geometry" />
        </mxCell>
        <mxCell id="x2A0RtPgMXRv46P5IDje-4" value="Client Mobile" style="sketch=0;outlineConnect=0;fontColor=#232F3E;gradientColor=none;fillColor=#232F3D;strokeColor=none;dashed=0;verticalLabelPosition=bottom;verticalAlign=top;align=center;html=1;fontSize=12;fontStyle=0;aspect=fixed;pointerEvents=1;shape=mxgraph.aws4.mobile_client;" vertex="1" parent="1">
          <mxGeometry x="260" y="399" width="41" height="78" as="geometry" />
        </mxCell>
        <mxCell id="x2A0RtPgMXRv46P5IDje-5" value="SDK" style="sketch=0;outlineConnect=0;fontColor=#232F3E;gradientColor=none;fillColor=#232F3D;strokeColor=none;dashed=0;verticalLabelPosition=bottom;verticalAlign=top;align=center;html=1;fontSize=12;fontStyle=0;aspect=fixed;pointerEvents=1;shape=mxgraph.aws4.external_sdk;" vertex="1" parent="1">
          <mxGeometry x="355" y="541" width="68" height="78" as="geometry" />
        </mxCell>
        <mxCell id="x2A0RtPgMXRv46P5IDje-6" value="Kinesis Agent" style="sketch=0;outlineConnect=0;fontColor=#232F3E;gradientColor=none;fillColor=#232F3D;strokeColor=none;dashed=0;verticalLabelPosition=bottom;verticalAlign=top;align=center;html=1;fontSize=12;fontStyle=0;aspect=fixed;pointerEvents=1;shape=mxgraph.aws4.traditional_server;" vertex="1" parent="1">
          <mxGeometry x="366.5" y="260" width="45" height="78" as="geometry" />
        </mxCell>
        <mxCell id="x2A0RtPgMXRv46P5IDje-7" value="AWS IoT" style="sketch=0;points=[[0,0,0],[0.25,0,0],[0.5,0,0],[0.75,0,0],[1,0,0],[0,1,0],[0.25,1,0],[0.5,1,0],[0.75,1,0],[1,1,0],[0,0.25,0],[0,0.5,0],[0,0.75,0],[1,0.25,0],[1,0.5,0],[1,0.75,0]];outlineConnect=0;fontColor=#232F3E;fillColor=#7AA116;strokeColor=#ffffff;dashed=0;verticalLabelPosition=bottom;verticalAlign=top;align=center;html=1;fontSize=12;fontStyle=0;aspect=fixed;shape=mxgraph.aws4.resourceIcon;resIcon=mxgraph.aws4.internet_of_things;" vertex="1" parent="1">
          <mxGeometry x="468" y="541" width="78" height="78" as="geometry" />
        </mxCell>
        <mxCell id="x2A0RtPgMXRv46P5IDje-10" value="Amazon CloudWatch&lt;div&gt;(Logs &amp;amp; Events)&lt;/div&gt;" style="sketch=0;points=[[0,0,0],[0.25,0,0],[0.5,0,0],[0.75,0,0],[1,0,0],[0,1,0],[0.25,1,0],[0.5,1,0],[0.75,1,0],[1,1,0],[0,0.25,0],[0,0.5,0],[0,0.75,0],[1,0.25,0],[1,0.5,0],[1,0.75,0]];points=[[0,0,0],[0.25,0,0],[0.5,0,0],[0.75,0,0],[1,0,0],[0,1,0],[0.25,1,0],[0.5,1,0],[0.75,1,0],[1,1,0],[0,0.25,0],[0,0.5,0],[0,0.75,0],[1,0.25,0],[1,0.5,0],[1,0.75,0]];outlineConnect=0;fontColor=#232F3E;fillColor=#E7157B;strokeColor=#ffffff;dashed=0;verticalLabelPosition=bottom;verticalAlign=top;align=center;html=1;fontSize=12;fontStyle=0;aspect=fixed;shape=mxgraph.aws4.resourceIcon;resIcon=mxgraph.aws4.cloudwatch_2;" vertex="1" parent="1">
          <mxGeometry x="468" y="399" width="78" height="78" as="geometry" />
        </mxCell>
        <mxCell id="x2A0RtPgMXRv46P5IDje-12" value="AWS Lambda Function" style="sketch=0;points=[[0,0,0],[0.25,0,0],[0.5,0,0],[0.75,0,0],[1,0,0],[0,1,0],[0.25,1,0],[0.5,1,0],[0.75,1,0],[1,1,0],[0,0.25,0],[0,0.5,0],[0,0.75,0],[1,0.25,0],[1,0.5,0],[1,0.75,0]];outlineConnect=0;fontColor=#232F3E;fillColor=#ED7100;strokeColor=#ffffff;dashed=0;verticalLabelPosition=top;verticalAlign=bottom;align=center;html=1;fontSize=12;fontStyle=0;aspect=fixed;shape=mxgraph.aws4.resourceIcon;resIcon=mxgraph.aws4.lambda;labelPosition=center;" vertex="1" parent="1">
          <mxGeometry x="790" y="230" width="78" height="78" as="geometry" />
        </mxCell>
        <mxCell id="x2A0RtPgMXRv46P5IDje-13" value="Amazon S3&lt;div&gt;&lt;b&gt;Backup Bucket&lt;/b&gt;&lt;/div&gt;" style="sketch=0;points=[[0,0,0],[0.25,0,0],[0.5,0,0],[0.75,0,0],[1,0,0],[0,1,0],[0.25,1,0],[0.5,1,0],[0.75,1,0],[1,1,0],[0,0.25,0],[0,0.5,0],[0,0.75,0],[1,0.25,0],[1,0.5,0],[1,0.75,0]];outlineConnect=0;fontColor=#232F3E;fillColor=#7AA116;strokeColor=#ffffff;dashed=0;verticalLabelPosition=bottom;verticalAlign=top;align=center;html=1;fontSize=12;fontStyle=0;aspect=fixed;shape=mxgraph.aws4.resourceIcon;resIcon=mxgraph.aws4.s3;" vertex="1" parent="1">
          <mxGeometry x="660" y="541" width="78" height="78" as="geometry" />
        </mxCell>
        <mxCell id="x2A0RtPgMXRv46P5IDje-19" value="Producers" style="whiteSpace=wrap;html=1;fillColor=none;dashed=1;verticalAlign=top;fontSize=20;fontStyle=1" vertex="1" parent="1">
          <mxGeometry x="1070" y="171.5" width="380" height="533" as="geometry" />
        </mxCell>
        <mxCell id="x2A0RtPgMXRv46P5IDje-22" value="Amazon S3" style="sketch=0;points=[[0,0,0],[0.25,0,0],[0.5,0,0],[0.75,0,0],[1,0,0],[0,1,0],[0.25,1,0],[0.5,1,0],[0.75,1,0],[1,1,0],[0,0.25,0],[0,0.5,0],[0,0.75,0],[1,0.25,0],[1,0.5,0],[1,0.75,0]];outlineConnect=0;fontColor=#232F3E;fillColor=#7AA116;strokeColor=#ffffff;dashed=0;verticalLabelPosition=bottom;verticalAlign=top;align=center;html=1;fontSize=12;fontStyle=0;aspect=fixed;shape=mxgraph.aws4.resourceIcon;resIcon=mxgraph.aws4.s3;" vertex="1" parent="1">
          <mxGeometry x="1100" y="399" width="78" height="78" as="geometry" />
        </mxCell>
        <mxCell id="x2A0RtPgMXRv46P5IDje-23" value="Amazon Redshift" style="sketch=0;points=[[0,0,0],[0.25,0,0],[0.5,0,0],[0.75,0,0],[1,0,0],[0,1,0],[0.25,1,0],[0.5,1,0],[0.75,1,0],[1,1,0],[0,0.25,0],[0,0.5,0],[0,0.75,0],[1,0.25,0],[1,0.5,0],[1,0.75,0]];outlineConnect=0;fontColor=#232F3E;fillColor=#8C4FFF;strokeColor=#ffffff;dashed=0;verticalLabelPosition=bottom;verticalAlign=top;align=center;html=1;fontSize=12;fontStyle=0;aspect=fixed;shape=mxgraph.aws4.resourceIcon;resIcon=mxgraph.aws4.redshift;" vertex="1" parent="1">
          <mxGeometry x="1350" y="399" width="78" height="78" as="geometry" />
        </mxCell>
        <mxCell id="x2A0RtPgMXRv46P5IDje-24" value="Amazon&lt;div&gt;ElasticSearch / OpenSearch&lt;/div&gt;" style="sketch=0;points=[[0,0,0],[0.25,0,0],[0.5,0,0],[0.75,0,0],[1,0,0],[0,1,0],[0.25,1,0],[0.5,1,0],[0.75,1,0],[1,1,0],[0,0.25,0],[0,0.5,0],[0,0.75,0],[1,0.25,0],[1,0.5,0],[1,0.75,0]];outlineConnect=0;fontColor=#232F3E;fillColor=#8C4FFF;strokeColor=#ffffff;dashed=0;verticalLabelPosition=bottom;verticalAlign=top;align=center;html=1;fontSize=12;fontStyle=0;aspect=fixed;shape=mxgraph.aws4.resourceIcon;resIcon=mxgraph.aws4.elasticsearch_service;" vertex="1" parent="1">
          <mxGeometry x="1221" y="399" width="78" height="78" as="geometry" />
        </mxCell>
        <mxCell id="x2A0RtPgMXRv46P5IDje-29" style="edgeStyle=orthogonalEdgeStyle;rounded=0;orthogonalLoop=1;jettySize=auto;html=1;" edge="1" parent="1" source="x2A0RtPgMXRv46P5IDje-26" target="x2A0RtPgMXRv46P5IDje-19">
          <mxGeometry relative="1" as="geometry" />
        </mxCell>
        <mxCell id="x2A0RtPgMXRv46P5IDje-26" value="Batch Writes" style="sketch=0;outlineConnect=0;fontColor=#232F3E;gradientColor=none;fillColor=#232F3D;strokeColor=none;dashed=0;verticalLabelPosition=bottom;verticalAlign=top;align=center;html=1;fontSize=12;fontStyle=0;aspect=fixed;pointerEvents=1;shape=mxgraph.aws4.gear;" vertex="1" parent="1">
          <mxGeometry x="930" y="399" width="78" height="78" as="geometry" />
        </mxCell>
        <mxCell id="x2A0RtPgMXRv46P5IDje-31" value="&lt;font style=&quot;font-size: 15px;&quot;&gt;AWS Destinations&lt;/font&gt;" style="whiteSpace=wrap;html=1;fillColor=none;dashed=1;verticalAlign=top;fontSize=20;fontStyle=1" vertex="1" parent="1">
          <mxGeometry x="1085" y="360" width="355" height="160" as="geometry" />
        </mxCell>
        <mxCell id="x2A0RtPgMXRv46P5IDje-32" value="Custom Destinations" style="whiteSpace=wrap;html=1;fillColor=none;dashed=1;verticalAlign=top;fontSize=15;fontStyle=1" vertex="1" parent="1">
          <mxGeometry x="1085" y="530" width="355" height="139" as="geometry" />
        </mxCell>
        <mxCell id="x2A0RtPgMXRv46P5IDje-33" value="HTTP Endpoint" style="sketch=0;outlineConnect=0;fontColor=#232F3E;gradientColor=none;fillColor=#232F3D;strokeColor=none;dashed=0;verticalLabelPosition=bottom;verticalAlign=top;align=center;html=1;fontSize=12;fontStyle=0;aspect=fixed;pointerEvents=1;shape=mxgraph.aws4.client;" vertex="1" parent="1">
          <mxGeometry x="1221" y="563" width="78" height="76" as="geometry" />
        </mxCell>
        <mxCell id="x2A0RtPgMXRv46P5IDje-35" value="3rd-party Partner Destinations" style="whiteSpace=wrap;html=1;fillColor=none;dashed=1;verticalAlign=top;fontSize=15;fontStyle=1" vertex="1" parent="1">
          <mxGeometry x="1085" y="210" width="355" height="139" as="geometry" />
        </mxCell>
        <mxCell id="x2A0RtPgMXRv46P5IDje-41" value="" style="shape=image;verticalLabelPosition=bottom;labelBackgroundColor=default;verticalAlign=top;aspect=fixed;imageAspect=0;image=data:image/avif,AAAAIGZ0eXBhdmlmAAAAAGF2aWZtaWYxbWlhZk1BMUIAAADybWV0YQAAAAAAAAAoaGRscgAAAAAAAAAAcGljdAAAAAAAAAAAAAAAAGxpYmF2aWYAAAAADnBpdG0AAAAAAAEAAAAeaWxvYwAAAABEAAABAAEAAAABAAABGgAA+f0AAAAoaWluZgAAAAAAAQAAABppbmZlAgAAAAABAABhdjAxQ29sb3IAAAAAamlwcnAAAABLaXBjbwAAABRpc3BlAAAAAAAAE+wAABPsAAAAEHBpeGkAAAAAAwgICAAAAAxhdjFDgRAMAAAAABNjb2xybmNseAABAA0ABoAAAAAXaXBtYQAAAAAAAAABAAEEAQKDBAAA+gVtZGF0EgAKCxwzJ9c+vggIaDQgMurzAxNbABxxxxQAYjD2hhnfw0vhhDQ5k7lWoBDxaWWPRcv0tIbqX+rq3q+S1rgAnuBexk+aCPmY4Yrsk5yT/JbedDmf/QKWSYnCYqRr27Oxu1H2FcpEt545at/FsvZ8k0gwAXwA2YqbYCZvCwz/UDZb87x9CjFditpIw0XNFDUZpM/2Pp2wOEkdALTTOu0UevIku/HWvXGws+qt+w8eTQxDxcx5cK+T5RlH8FRcv/i8M/X6H+u9Vy9NP8SAL0is/LoB5R6J9sjt1i9o28aQXY1vZSrPmI+UxXjlC0me/mQBv1cqgqM9bdrD1wgzDh54HMDrs8LI4A67JUYqylooebgggQ7HCvytgP/MyuyRcPaXnN3bnKfoUzRC/giSaeEAas/9ssTY2Bv6k9RIFaiFi9DyFxxKptVctrkVjbnLiff684CFGob02slhD6cVgwplWOwtXXwWQ8ZDTQv7Bq97vVbTaQJYHsAJCoHNwEvBg7oN20D16Ks9o7A8v/fbiIZ7uasDRmmU6ICrisy3mFaUOvWR73CanidDYFP347GHgH8LpTxktBb9QDm0oOBqtoxzkC6OY7esFeZgJVftHfRhCFSSFlYCmFbPLnFb/uTjLjGzllYnUCCbl0ZwjRpj6Xed7+jwAWVr5XtLPOu6/1TvXALYgmwv+pXenRBXLlEIQWGVqWpxwqi7QfTZYNsapfJuCWVlejxPMqxwYO+NukfW9w0yONBDr1AFdKCunMkcGREobQ6jHHvjKlZBuCkJaUpIb2FF0IDR99QY5PxZ3cDUhOzKlpZ5a4sZk1TuB5q7e21cPNRHo6LT2oW2PMB/OCXpmzWLR4qPOzLSo1oBoWljcoDRAV90yGiRTwGPF9HH4eTwdkudGlXWgTPSYoDuzTmnZXUjgyjmcEkjcpMZcHKNhET3beffNcSQI2WFYIIpkIKazOCFJaaFRxZpN3OOgaw5x1OfhAotFZNV751TKu7RecVh1lxoJI7soBQVfdzKsnGXc4QE95yeCvVHDVyUjgZxOF8LanKUpjI7m+9zKdbbuTlgnjEAFhkMSbvs3epQwEb58h885Hr0UwgS+1CfyvQr5UPVRQQ8Jk2CiNAplZmBelzxnPSL1xiN+ZtXmP399Fl/8XXPSs240YYTpzye6NCSrf2sCotY7vVdFGQKlRu7T8dvY8h3AsAWfQqFUXeWSQFmRS0nn0K5K6yCIRwAAAAAAAAAAM66+Bu0ykEpfFB/DyjBov0j8YSEh3dD/r9VB/RvuLjWQXEF2tYOWYxDTYiqXscC5UM9fu9qxEOVF9B1GSon29W9UJGsM136qu+zNB56QrdAZ7xxwIrKFsKSBfSuwnBppmxEUBjYXyoK0pkOdjPWX3TNJYtJplnSferQtS0QynIRE06ScBxSeD4HBN6GvDvNa/Yni7xglusnOgwf3nX3Br1mvct+46JInyqqqqqSREt01giK2x/crHSwXTcWXzoMlF7Ou1jT8PHY7xERhicdBgnPKKAuUsPXkF7GOeou2JBMG0sP9+1EEdRF0HXDb1clIEL3uMH2GJNC6i3dKitxfS7rmfBHLeGlxNLV9g1Mnp/o4juXf4L9R7kTlfeddexh1hhCHk2PpGVz6S7CuajAdJ7Z99twiJMhl68zQX1H7K+O5mix9WiRxsM+dFMVMtAdjq7+U2EHJlXDxasopxNV1SZc0vyQm08jy0AL7nPkCkghWJpImhcJpB7Pl9Hvhpgon3soXGrg7WWWRG6BteLoq78Pnw+W1yXT2zAThLIOdqXUM73ns6SL5pl1eFkTt3lm6wNYfYqgp8GCoZN3clUnl8EgyuqDTMOEKK1/2x7E+yawRwyIRPsO70XICkwNQefDH5WPjriKrHU1jl/vMzMEKofRLQxo9kvTRMZ96QjMHLzQl0/K/X2c+M3CA8pFYEnj8nZl6dvEdEPQgtIWXZfYblsUinHL+YLg+HW3eOysCITbzjIruOnMJTp6EnIkT2AhFK7XJIK56x3weqfRDZU5UxRzo6GMW3ssOrfk9FjIjbUw+ggm4jP+FuaK6958VZAARdve9cNYkUHNIpUqCu0nQ2xVlhQEOolANCq0WwONzAQrJn2DI7vOrV+DJWaWHlsj2PfCBVoeCxIYfw0D/gv5OXVS9yVcmvDqLNXzfMT0OXRnXEhB4/nx2GzcENtkA/aQIvF6+7vvhsTv0z04FI8wawmBOHF3FqhrBkKpzf7mzx+99jZWva7W2eOt76XoVN0Io8fdSvflF0OpudRllMMAnNUejODnnEljyTF2VR4e27AAAAAAA1YLzAnCzAocP/nEPFbuWLCcbQT0c8U2dP+ijo2mQiZATuPWI3cc7AZgf8Ao2a83emqeNuh0+sG4nUo6IrrtQeR2BS/OhNEq8ImrlIrleI9Fr9Sy7JDvr4m1AgTWXLM2mOSzzuLyqnLTA+CB/597Rf8gG8Qgib9qRtH7p0hsYTGKrfa9r8zFgJru3EFaCNUUVJGQ8wWyVfObfawWLqq+U0YqvpshX6VknOTM9ZKgs/hbWejBOGym+W1FATiwAYDk+6OsT56TEytTxlWWH7lvSqu1ZOc1nbu3tvyIlYRKwQW1WriNkovD0/VIy5pSw6KQXCHLuu3OCTEJnCDGtCw1It/MajGEWHtu5y9+jqh2bGIjIjt/12fIgvMM9ehwpKfwpQ+tN614QVI9fM5c4VsHS8lLf80q8fBkDZlKyW4qSSXP/m799pwyKB9OU3TlcnsBADGXixpf0502550N06LwjgtzPlL/UDdxDGf2mjW3oMzgMzHCDM2YR5SOYAQ1Vg5XCc04DLvldbHotSMBKoqpry9vy2R1XFn8L1S6tp7PL3VhPn3Q9Gu+2xWaGIeyR3ioVpVf3SpQeoId5eSePZhDbMlPbTECcSOfhcSmM6wejMbbuyoQpALfEjFHqBC6qz6oR51xWxgdAvEEItOebwKredV5qtuE8i2ex2+rXIRj2dW9/5JLwxvGYMK97WPfc0Su2RG/6vO79w2xZW+VinbQD6LPOBq4wxQ3P3tCDf6tZW/Ta/UUo1WqRpjcpd2ARojXu43D3QtRLPzVwtzKJFfrGXXF+aNTOAq9lohlLyoAAAAAEI5zMGLQK9y+ybTNtZ80nahAYBPIes0cRrdtC8UwHgAWL6uGGCv3uX0OeQCL+IrHyV+gHPxwnAp8f70Yny3VYwRcIyX6WpY8nUpP6yAAuJdPYt7h3TKMMkm0omKQjn/W36ntho7LST8T2I/uvxyJgK6BET/x1kjnq63I8Eur+rDE00A3f7EzG1vQKL2GqzPRZew+Pqm+rSLAF/FvT/m6ZfO9YG/AXxW21sV9FmLeQxVBRVEn3iO6roHA4dcKyol410IFtM7paSnYNuI1wNHxr/Cw1i7BqUZspVlP9YI1yooMh4IrR1UNDdy9b1Fw4JMTQbVC86mFkdGLdd5zzDi8FqSofA6f/4v/iofZRYfU76m1qJeoV6hO4fgw/o0x7fJ0bM7ygB/feALvlu4vSRP2Tmv313+obOs8h2FDDBUgEUvd+eSkfFHGlg3x7nNeW2VBpsXtrXdCalHBDwtHkuRog8uzI4gpWuTuH0PUIFVVTKA415/Gcp2sadeOvwVjn/XxQxkB/szuE51tfS9zcwRft/Svjj4b5Whk+aH1quKSRjLStniM8TqQN4kqH2VxfFsAUEX8I74/5RU7lZu4CXz9TOhhejtBrong6DMHUIuihk1y8LMuV//5KQ+3faI9qTf9Sea+TNODxYALT7xmRrfFd54yuXSIkJ8WXo5qySzX1+0wv/QcO4WKBXV/R5AARAoKzj82ggqHBq5y3LP1ZwVxNRz4/aRZdVdGGu13gD2ef8hHKJqEC90twnAFghy7sBgOicQqYc2cpFl/O8tUMLa0UQScsaq3eszO4zOf//grmOk7IJdiv1MwggrWOgPXnwgIjL8QfEgyXwSMAx+J43oA9GUWDdwSY2M85I6qiNT8D/99g9Ve1WOyvNqHnYmPdq7qMw87F4IEaoCNI/S+uVW0vC4Fd5C00cdxvz/+sCb6IKodwuzNeZJx0E+UUMVLAolCFdHKEZS/WgWRaA9BlO4/2BqfqqTnPZtAWxQQe6n9aJ0LETbD4g0NmTOIrXxvrSDHcaI4bAQMQ0Yi5Nzk0uDR0/m2Qe3+iUZ2q5S1Yg1opqHpZEm+QHwlTuDwlqAja+Dlh4UmRYGcof6L57sd5XWqRsN5RJYSDcU3AMISKibJdcjHQfYbGjV7ERFl2xc5udMz2stxesJ/TqUmrpqF3L1wo9gQB7hk8Na1VvK2igdbsKnbfRtTJrItYUqzbmOl4Z31NPVH9PrINyGjekIFQ1wrPG/UJJZ3TsmIoDZjDGD4ZWtNAAA11/t4cSI/yrdkjsoDQO+8uBdZRnmUKx0oi/AIsZFG+yt9G0mW7Nxo2+LN2/X6eUDVMoHMGC/rcw1EVXhLR17McfIjbc26cGECDv11M79JaMYY2umoFX/kfeoT5BitAEj7Q9JKuvA9ICqQYlxCY6cmviNhOzk5URF3KdvGoWO3/NsOOgq4Gty4a4XfNd0MHZLIrijNYwCjNzfZyOz3fJ3qtzwBa4phCuxfuja2Mzk8p0ZWkn7QFxy51VjgMJtBBrpoCsqYB/fhfumQ2JAM28uexwH/iDw3S3RPJJPMWcekJBXRl7LFlvBpQek4ylXCig+mx3I/G8YQMGQTYsPEHE0/QdvDkpg1f8/TQLEi+mTxdE7yw+Jv0M2hlI9zX46fhQ6KN0hGyaMvfzz3j7nhy4S+829I83jWU/rC7fY6T1rAd/okqU61nQGq33KUizMS6gCd8/KgmD+jHAQKDod8BggW3SRxCgKv930xuY4oNmz+8D9Oh495cLIqWvyZL+2h+lgVEfa2qQcm6w2e8ke8rSddsP9Pch5SVS/Z4INw7KtKuqyJK3yXAq42YIMuV5G9nz+deKyIoIjeUr8wumUMS8dBw5FyBlKgigMfX+n4IjaEiURNgtDtJs0sj49vwe602xTJ5Fu++R7rZXcH13sCOAcbzqq2nsupCXg5jLgZal99s+lz+WuzoCxlTA0qgPa65QXOHb3XnkVMAf+EdfzqsTtWRCd0XfYNkNIymiXuWj1dMVmu2EJX7uSPkm1RpzmkQOzdbLS0LJANuc8lIQz5Lpl9TynSRyD3rv37VgID/kSf6BE500FXDDP7kKGEj3PhCQjH8cZiQxSd0eIbJ8YZ4OQbqEAGD1kYVHDtPM132cccj5niQeltwi896TFkeLQW3TfRMFYb63/87GEQYcccue+Cn5J4Z12qW8MB+Fp6NhVBFTjNMhMN0Vs9mwHYDLxpt12vLV3NIj5rElDvUm2TwbhwlYHLR2eaUXjf7tIYQKYDHxaQmW+/ea7CdC1wd4D2i1n5LFPiZzPz+Gu808s1lYlc1nfQjlAAdOJi/nxxAC0yfYRrDPf/C8cjFG7OVWNB81EkOFxhziu+mI45SnHZS/5Tz0j4jREtIJbcYEMvX/J/6anCZZFYPgg7GW+mFgPV6Lnycjuk4fKbzHbXqv+cJPYYdLgqHpC9wTgUcp0Of////////////wxGhsNVTY/Fh6UNoiIJ9RoNrVQw9maJtI1CtTn7tvWa4WXuCvQ8sm4AQm9OHXz6/kOYOsvihfJXfm8pov8XbAAAAADfZjVDhdeCAodzC+pShNU9oYssOg2antqfntR6CcjqjKZtXO1DX6ZAfu4aDaJRq/GPGicd5VD4vi9ibyRarkRs94/LDXVB1z3vRaahg90wWR4KFFCe5p9RvEcdfXVygDVAtvCPARKSDqP7kqqsgBZuJShDKpUzOp98lOnfymz5a+Je1mM3u0fSmVMU3ydcrNQtSZfju2zrAxn88Zl6sAIB92mJnd2VS/dYDSetDufegmSqQbTWsCCHH24CWSPeCO3HGwYhdGWhWoitJrjo1FxFCp33vl+aMOl++3p8IibQvqtRay5C8LXo4x+Ulj7GxjZ+vjj0j8qnkojXlLl/vUn14ufOwo8hS8EElM3YFSj6Yyw2RTNwiBmaV+m0iXpMTW2tso/nDI7K5FNQulV5hBn06nFktHiWY+oWrx/Hmnf9klNWybElk5vBzclaS2rmRqP6fx78bgF9jBthWY7yAta5nm7HkX+g2ruuvUdoNnHvs46x/1h0dxhyEdD0ILXhfBPHBQzEJCB0N562rx5O/G/AreeiEkNCvGr5Za3kUvrFcPgGjPBrvip++AfpSzrZDWpDivMwmuDP0AvxeFbn1CMylwn5zR1Ri4216GBb/LXBKHhBqAsuiDJQnXdPyRtVjUXFoOna3x2/KeJzaXZW3DJZwTW2bAyWVKYsyyvHjndhK7pT8L6SpwFrahJ2QKL0Z5KI1CMSP7dyGOqt14QEoMHq9u5Wc/rIeiEHCk+wrbbpkr+zz4NxRqYHvvzv3xs6SHVFFhkF5zwms+HfWq8bQhs5TQaumtCBbzJXPg4VnEE4l5YvcLbjXd0COaRMkPqr+DHdjt7wTSKAOCap94Ia79jcPfk75FzKn6P67YdkGhu+G574F7IM+QJmG5e+DbHqbXKNI3Br0nc9CJzXBCnFFDw2/8Mbzh52pLcbP3yC9Ydj1xXhR1sdbi/5DEgChyCX2c1XjtOP7hhP390GzoWGhZZn6ArkGlVuVBpUwC5a/MNPkgnQcd1/qGnXVligxF8PiPadts0WbLOAmlMJI8GzR6HnvYsMTnMPU/kCjZmZIOWxZBmQQlG3IQfWZ0l8Tpq8nLTHemVbuT0H5TRYdaKYOibO8mwthk+y+mbFSKD6oyoF3vWYC0VP4bJnDNkyZVIbInDiEpycOKtoSVe44klt+Nn9cFuT8YrZy0mv0qX9sn+Q4GQU1q8pvth9MZN+cMI8JnGlvYTnysuaU9I+sq0KJaG3mFa6/IVnI3Q5hcx8yfvmJ/yfmXBi6HlFAmgTuU3i68qCNLpGxMn1ihs4VeM3heryQZpscStVEKHbvH1jAL+gcRtAyCMZCVPae7z+gOjjYhiDSLfxGdbxgurWElhzicQgx8Ai9pXQYJamz6woXh1H+mwOYtYnRXrcBHnP86ROLkTuB3C3VrsJJI+gWX18xvh1xQeasDkfjoaH+ewdIwSNHMEGPZp0316qgee1NAR6NsIPu+RquzcUZAZyieg7ANp4VD3qGl+KZt/hew8Oa8RwnLp8/VIBVKYJ0AC31Sr1WnTtl8YsoW2nF3tDADgDBAxSREi0cCijXKlqNXJR0FW+h6wsZuolHM8GS254kvR7B2U1SmwJ353bWEPSrm6LqclKmPtPdS0VOyc0lN6tOupdEYOkIHptbp8Qo8py4GsCgctwRTwfgjQGZcHODA+4VOxuYUvToEoAx5lF+osMei9nNCjc5RPmwASP8qcO0o4gwDWz1LYd763RiYs2oftzTfUhcq9OByGx+AcB9dPvdlUldkACJM6hNcVVSDX/BcewYzkmmo9pUQQ7zVGT1VG5sazOWipngHLEWmkJxyl0QDPJMJfaTnHIcIvdAeXHw+yzy3huIOJ1bkteZZpO2T4apmnQD1XNt2W8EjyBausGLeyPwOXAzdLvf29OQSvXFgC89qTlpKj7KsPLYCA8B64nPynYfPDfipNjOsqJ/h6GpkV7C7+jGsUvBfHrXlpe7xfxQWawvKT7rG5R8KB73ebbJ8qR7zq6e9OWWd2ZT2BG5TH+a+F9Jch5Yxnh9RCPLD2Mv8vp8VQF48tX4GGqJF89CDdpSVKXKBywHnhRructsJ1W8mHTFNCVYrGOez3vK1WMyk18okj7opOUenjGdaB/Kw3hEiEDO85Ky0/k3dz9HL4yTYGpVEcLTQM4V+1qZ+hDP+oFMQxDo7hKWycrHZcKTCBJY2agknjwtuwPjbabSEPWik5Bf32MsPxXOqtRs3gz9Lif/vJd3O/IKAxabz/irWc/6hHFS6dVCFSNt70qL+19X4ofnfcs7TCeIikCdZuiGJ1/UoH09gyim9osi7Z80pZTJr0gq7NTI0tCAFWaseRZZU7T2XK/XgwoOQDOYD29PsO+vToFjOjl71GXhBbFutWbUxXtxDc0viwyxT1zazJ7gAAjLwWs/QA1Pg6Pp3zu1N0tsk+NsW6M+I6ErNtKE0+k5iquoNV7Pk2FvRDZU0KQ3/R9rpFyE26nhL+Zxa8g02P465x4xdijvl0oIn8m7U7uN1/kzv4DXU7kTKRSHk5i6e95rGX+2l1FxFe0jWmqUTF9W+WoZlVY86auseFLBfgvbNVDUXOtmE6SgwdExjS9fjTUTsTo7lWklb+FQYyIwWIwoo17U/kxjrat3RB4GnfFs+v3db5iyKThZzrRnSKTfuMSDBal9EikWybGwgtZKED3uSrFKZhjPfnd3GlI4boTWqy2774dO9IU/ertWYACChkEBhsBu1aBQ/XRUYVKqNmjXsDQAfS/AXFInbtbmhwo+otl+YkdgQdfGZGythRI/vF0bhql8pPfQZWB45wf7UIaEvMyYFF5qvzBrrjqOQRez6HbvrFZ3iLEM6Kxz8A6Ld5yQvoMaAvDB7XoBnQs6vW4hKYVDmcSdsGrOnDvM8RBrKJpLbvTtwBm/hmLCZZj7kD28D2WitR4q42SPFtttttttwibRdXDDPlo2MlzfDz29ks/3tXeX+mw+Jjo0Tz7RxkU6ldWbiIBL+Ot2aZEJcQCkYJW65QbJV1YOA5XU1H6Ah0dTSjuwAAArnEqa7cLni6xb991MKVlzMyWkORG2+CWnvD4QUblzkmIz2n0IGCG2zF34EZ+v7cEaJaF3yJDOkf6NxRkJiuRsMm2WnxljxQAVX2+wI4df+PWsRkgmz580FvEiTG7GwuaxTgMOW0DbOfWd/1JCfm/gJ84R/kaKbM5N1Dz+tUX7szuKHt0kLWP6EQF1RmJGoV5eZO7OsdM0qIL/x/AyZwsDB3z6ckAubLSE31WUSQZphiAvcU2SL80xpEqGiB22t9ZmfM0UNSOKK95CBjHre1D7VfVe25kM0+mAitbf7n6qqz4FVMH6qqvPQVYSoY7cZmleepFeDdWZ6D5Dr+MAC1CmGm5Nratz3Y53bYL8WZnvHXdGpe/DOmTzHI9VoOWGZDfIg7AWr1a3eN1ZXYROasRZqsCpmqey5v/OEc2BHQmrAvY/sKWdhjZUJLCBkVGd9UREwYcNj1GR628yQzb6bkpSO1CjR5YKIdNlnobw7A4V0SoxRewEPe/rDkaJzIUalcyMUAXBkHfvdA+Zzo3Q3OJuMwCQCuW2c4KfULQUrvYhgjMRY4bW6moWCbVmUDBLrEvQB7Pgf/4KKuTRzkuJG7dhjQIoEkK6Y62pTgA0cOQszuJgH4oogkztMR++/zzoKJSCJgwHtyraUZ6M0yne+QSF0pz32j2ujbLBBmL750HUHBQ7GFvRfmL9VVVUxfrOpmwmPedMCNhpoE5rJM4bsDunn+I31PDstzcmx5M2Wnyn9iPoD/mOSs/5KUfW6wlqqwzNKSbZtFGw7p2ipB7hJX+n/5NrDL2DNvqgcNACMcFVqAglzcKDN+aEF9/c4FKTwL5XyDnliPV5ERCyU/yEiOAAWq0/BaZdU0PDY8kviBNikQBz+5cXhxw7tbo3EKA3uGZ3Pq/00hyuxhnyWHFow8KFrvN+5S1ZUycrIGkqBbpD8AQsOrR6ZvlQowar+tumzSlHrt59ssqhwbQBazG/Y5Qe7qf401DY45QSHtgZobp+lvSpNmYmVxvlgkZ6d7k4jf+ChUnWRT2NExClUfu0/hOPQ/u2u6LqDRVOxrww+OoEjqwVA3n7yiIP7D6c9rwGO1yN34TPl69y7a6vZW6K9P2CDb08pYAXi6iQyK8IViuqOg9GJnFMPG35iVKiKGhGN4UnDbhXl5d6LJaeD9Z3MPW5BfUDI2QHqLi4CaPnmbNe1jbSB+0gxCoyZBNXD/jLzpKpzicQxyK0YyRvUwkc6tuSjZMId0ixgjJlta17j8fiPQMiDzKwayf2VjDh+TuOYZ5fIYSJ4lcG3UHESE2E45IsQs1JA7muEyo68uTynRd2zIAzYwgb8yHx2G+FkTCDAGiSn86i7hGVNDkHluxzy2CR0Q9P2L+brsCgquTncNLB4bi69NnGv/PLhEVn7u3/32DKtVydhstQzMCsQ96YfM4X3KiGQIBCZtemVqiZmvDLo7N2lmCrYL1h8zKeLy8i6PDUN1nzs/JpTiIYVqXUXSj2Gklw94oejugPF4AvC9z5JtDEZ15ie+27/RjvR4wr2zdZ1XbDpYyy3C/PZjd69yoq3I3ukqji1AF9X4yAWgDlcnDucM+oRtMQ1mHC8ml71TIX9sJdeTQooaIb5ify1urT100jKYdyHNJLJ50Zf4OA4UhT6WKm2B2HKLHm1rp9SusdlcwdEkBfSWkoocH1r60ObK12k8RU2yO+7p9qh3b4v46BiT6w3/KFxS+fLIpppPtUcWN50xMqrbyc18jhkmbIVfTLurzRaxz//ksI7sRP7oIKSxLTb+seQv4airp7mvMuwkDHzInfnJ/qsxB+QOmX7Y73Q9ME8ztNdyc8rWMs9Y/jnZCFGZHj3v5SV53cJxQ6nWVuV+13IMYwjE3WbPXDpMnmKvh3LXK9ycqI0SIoCnKomwAGxsRh/5MmONEXb2bJAWVVEqq2G4bjFVqP+H3mtEQgdRs22223iEhFC66w3Hi0P/kzihgOG5/PEOkcUycQsb8HhL7SpbJYEYf2Nvi7H14lj2Rh7MtyToloiiAoa8Rc3ZtGShLlskDzST9949R1b23P7af7lriJKB2VY+iDNAIKi/x7VB0TEdZg5C25DH+aTLEHDu8MDrxc+asNIiVgOOLOtaXbcmKM85tZGC0+wXzZIni6xqsLxETAvpbRGGVXk0++ZonHvFUm0JUObwkrUzenbHHERpozbG39LtfBcjb5TSWTefSiJl3ywGMFJlNc5x4qP/NuCIAw8MgbMv+OrTBqy77xPGSGVQI2G0XJH1sKfUM2jh5bobN9p/Pdh6D/Tzp/PJUM043xSOfyxKYWxs5G6G7LJASA2AQLcPi0WoZYgBtuLtWyK3bLR6QXqIICh/CGC2zEh4IcEL7C0e5n7J2z3WTyjUN7FvSRdRnabSXhVronZ3GlzxwnY3CF+iOqK8zKbViW95pk98lKwZ8bSIWPtEytune7vbMXynQ7sg+G9Afh7LbYcA9tV815DfvAu0IMXa2gOMT8UAoFbyK40EZW3Xf6NTTn+f78fXO4q+EyqZuYcyw4rgVLGCBEBPjkNmuMJixbFqv5j6B3baZbszgm4MyC43S+wj/r5BlaEfJBO9vytRHCAScaFUwva0YF43jIsU5zW8txV3LGrcWCH1TjVxTwQgH35yqc/nyaZBLmAAABjHcAlAF2pDopMlqm+56TBY5sxeLUZUqmUd7YMS/PHmCjK6wA9DrjIiO2yk5X+swM46gLoC082zAzcrEdrdM9N7YmUbbs1sW/IaioHZ5s2Uj/y0ho6TUqZaCryYYz9DC244F6nBj20HMaIHPCIPatUmOcKOBNpnXDrfW2MV2TWmjMsWY99or6el6DJeE60qRS90233g8kb2te/j7EqIowhBSKGGKchlE3LtNz0zmUh+65so3KgotH+i6kMRtTahbYqdrw99yk1Ad92lzI/znauvBx4D9E72s8FFZI9cAZ7vNBiCcd2OymBpmb4ho4AAAABFz9jgn+mEf5BHOp5HarxlOso/MpzrGdjcwPLTziWupggokPvAkdvHZP5xjaB+uDCrLwe4K0aIAmPzmGBolWpLkPSfdWt8Pr8lCaPC80dBhaRXXSrHxJ7sgwVYB267VFMbW2afMYQ+8KIxnpNWmEtK6dx8l8MT7u08pbDIyLAHSfGBt13YAD8P5rKyRLJOYUTg8icnrDA9YpA0PqCWeq827cGkD41hId2+m6xviILJKWQMf/3+Np54FsW9QFvMbBt/UE/YnoziXzysTaaPC9ykkpq7yWyxwF69zTvCR0CQpIbVJMcfEoYSFzaws0/i23dDUUjG3am1/Sbz0SXjr3QUSaOwkEEGHJVnOOMTXp88ELkNqwaEhMspiHkidQN2f5fLjQH3qZhhVdAZUoPLjtHc2e2PvHNimz/06PAlXyVq9FG9SgOrcRVAAefyXRrxEDUabXurMUqJ6rQF7Rlq+Myh2BTlf5INdoWXJX02AFOSi8Yok3GNrOz12pNDclgFNK2otEQ/Fs5AmAaXpUhUZtKCPTJxY3CeDgC3zytiQSKr5hWFMAeUCrwtF1kNy4oNokJHm5pXFh0ZjtVBdnZT9sFTdGyKbDWTAv+d+znCuTp4MwGVZYxH0r4YnMMILVKwI2J07VFX5XJ9fEIGFCu+u4j2wn4/wrxo7r4aQCl9ppmles+HXYlTWvBzkNDquG+TvpJu3PQVd5H5enYjbPk+lZ+kGX+yfTJ0ObBxSyoLidcTYH3PUn6mKfUA78qqsn11AVlyTOM5qWajSrMgQwl00HVbQpfVykhDNWVDWir1WvUGYmrh23vSsn++E51HvXYxMDjooQ+6n/zw28huT6xXF8I8Yy+b1RhIjVHPE5hqXz2+ZAbW10aS/mdetfmq93d8QmDP5hFbIN8rMb2fYsTXfz3+g0wo4BaOXu8NKo7qc54LfQDTjjIevJflvpeSNNmA3TD54DR2KGeeJtFZuzAgK05GIg3o+S4cm1l6WTEzFKbd8kh/dNmBpqbetCIwBIt1paWlphZjIcFsnZ/6W8gLsojx0lxQOM1LYgMABrxEVZfhzqQlnNaYrboLbjfAgSMuBbiXyojUIS64UF81qwpkI2Ashog8Rs5SHhhvU14txkKg60vAy30xa9kg9Dg/gHcVJPzVuibbZWw6gbZwZJc01Hnpu9I7Df5TLrZNbrsZqPcOX0TM08x4db8r0gjbmbhmBNlYHoNtQheXDNKOzdoyzhdugzPH25bkddCtbxxMq7HXmvbpxIr1Xw1lPyl28XVfZThdJkxlHuYpj/RhqvOlaJsOLUUDxjuCu54GTiUYlrkWfO8LyNg8U+l2zcBxD/gge40PE/2LRbKnwcrr0ZkD1ykOwiC7ebBDSBB6Kh7tOs82m1TlD9rNKiYRiPRiPXb4nYABiBP5kUwZFnAsPJd+739MReJETTIvGCeEy5o5BUtEpF9sDwF23NHVF3pJ7WB2sXcTWH55ejyPmldhHWBLOI8i2nx+K46Iq3GnP2lnq3uqoZx+Tc4nkkjANK9hr5JykFDVTWsNVYl4AMJJbOahjaJGvzdDF1ZX58tMZDoXIPvpycdL9CPESJmAVVVoAIZm5YUmJlQA13W1pyjJJheG2EgXH/+USGFc5TEYGIpCI5Y9vLbo8xUVe4p1ZcDhjEqrYoGMC8j2gcATVwoBzUFjiud9gDs8R5DCkxRZfYHRRQi3rXZsEZD/LNOsR7CZuuVf5fBLJ34pqWkj7BitSf/AcP/UJksksRzNLvCcHy+vNJ8eftaAfgDMKqqqp3atYUoz0vW5K0qIE3J6A4FezXmeftd+VoCaXi6dsCKISQmhTQJ0apQ+rYPRHDfUtOIdNy/Tc4a8YhswzjJjy/59lTnhfW7Q4ZryJbaz6wzvmvHAKNN5JWdXYaPr/26yyvUvuN1yPP66PBQUksZJRes3mj+4HP7peBmP1P7jgCxqin8Gk4UGda2HNpW6NYf2nNlAvVnku9wyprtO/WQgwQVWMqDykuijPTphsD4/e1JZc+vl/jC1nNgcfBRlz3AARtCLjyAXJX520KHSxNZY6luxa5uHCF4udK67gcd1yqPWiZYLLZTQO9gGcxSOPnXqbAMPdGMcuytqrsX2uRHRooz0ESm0TMVsRGAFUOPTd7Ub0wM7n0lcF27Ur/v8MHX46HIskhAyAtDIPe+H5gYG7ETYGnEmI7eznw59AbwrBJxPyL1ECowR/O+9YQHjE/1vxSRiHPcPeqi8B4i9EyW2SBDWJEZIr1r1bE+m9bjxbBOhpJ9+f/kesNgFEyACFh/ucqJ40HVmY8fpam2Nj+ecj6NgVu+LVraSRCeNk+B5SiUbUoSpnjHoH0/2WhpAsyn5ErcfXGDy9K10yhNNW1ktYcPxA6jGDU+cWTZebwiFJFAO6MDNVMuEPiv/UhVXC8CgAXFALx22tAikoLDeNI+eYWXMDD4L4Q6sbUQ9OEBaC0v/IMda0vHSPfs01l0qSm+Glry94CqwQN0acyU2bl7lPurYiKpdocurzuimTZIXLdGt6/TGHo4Zr2R3nXQVss1yxfbvZ4+YHO/Rn6PSGLx9GgOkVlTdJLuyf0B/N+eAQ5ine6/RwqTWmG6vzdo9SG+GmlXcbQdqnljtnAZ31vcWdlL5im/Or8kK3B7riUcn4GTnoRHQS/i1IswdIY7YCKSPIKkTIgyMHJYoEAFaBuuh/DaREEpZhvQNIADdBEImgEspVanSZ0FGKQnmBhAL7wenqus9TPN0EtuK9JYlqsVE81dEGuQqRHD20tiSgXGdvhFwuhwp2CXbQ//XHYK8YfANkiyXEWGXUQC3Fc/pGoLT1dQDtpjBYH1ywlagMKRDynOSqBUPFRg7SPB0iyeYFKsO8yB7ODYdsIv+0pa0ojl1U5aqk0niSFGtw+QABO4seE3CrRdqXWn9Xe45UGNBkLLkzONa1rThsBoYqCkUqL0N6wz1JL5VFR50AAYgnDj8wr075yoMYy3XzgIZhJ61rcr1nghSDG/jiAN1K1wdbpNY0BGAVlHULcQYwU2newWpfvOG5mrMrhN1ycEDVZClBMgX/l+jltI28rFr+eZtQtrp2SclPkz+AZRlNxQ7kQ3k7wXOUBmYVGWAA9WIfUZs2ibEpfsUNjtR+hYbvG7mZ2vx1YxQjlX+BqCt0EHSMzetqOWbn8vylE+b/jUh2vIsMA64LAmNb6eaWCJM41yJS0LGJkFyLMAABBY3wkNK+0Rc8SZDFK1xaYN295+R8iWNezV0QwOQJt6H3/8ZJT4H61rNturmb9IExtzwdPQhCFmCfL5fhO97KsdTp/n+awVhzJk0G/fwiPOEZajz1QFPY4Y9jKk9srvRfC50dterkLxZFSTmHELLbk5jd6BIjrhtSmw+Eq6v91QN1IVs3+pe8amjoFLNLqfRhCBDKFgtMOMSXxdZzgD3l2ZcN44Oyxo1/9e7gCx1Rpt4WRHnKo+9/gsFDAaE1klWiEejPiV6OMDUTpMQtOKAIbRNPsswo38fcuoKKILJ9VMlsFcBfUf7hZGTYYrUkja2VGawd8YKHBXwsD9Jb/vLBSGf/fQo8twjjS81IcS+x+4+z+tOqiAgX6qUBlhJ5UhPspMtaj1vR8ocH5wnS6eWNWrFcu2Xh399z772rrU3Wf+KlD8qHtcGeG8bLSJp7GRF0nsrZiELMbcSY87DrEml6bTtCdakEYoxY73rRcVXsr/xz2qDf7EfaJqu2zmeDfQfL8swP+lUMdiESpGyu3QAvGsPRQI+yVSzLKjrOkNosirzR3/twnp9iQ//WUyf13OCFpoGDAMjKnsz2oLwFUqx5fa7MwPfmFQeJVXYYu6J6Y8n3art7kLBo5S5ucD/2O+CfCi3fSHBl58m34qtABMqNJfzLfMnp9J61STKJ0c+uIDj0c9CSDzcZ8K587Z4D84mAtizAmVE2QNiekIeGCP/tZoTSKyYgnxlC8qVawyE9vcAee87n0vVvDAhaboFFtjafYdaGdsOgegzbXBtvqFvpWLrUboLPa0QuX5fXmYGIMtVymUDztuI6FKSezYJHruzBLvnaz2fjSstS9JQ3OszxsB9v/qrIWCE65greAvxkVV2kU1zIz80vsl0XsgYrkx3QmpYMexgSpAcfdSerIZMvmoSkr5CinT+ylw+cUU2MyvYuTS+S6aR72bGZkbfpIayRMDVVWXmKmmmvXklmfbbQyCVz6uuCJ05Vb/CFo4C/etaRKCkJ0Cm+oiQwuOrORmrYaapprnGEV3ovZI00dOLQVFqTaI6vL/td7WxwXQ9TsCs/5j9jYjW0SxIbmnmQ3soNkGxBhGYgicvWbI8i/CK4csOIQDr/YImVDQSnKf3fzp+GzSpnKLZS3UeWFqFmKnohYJSmToYysSkseEL/LelEbAmY4EqrpQiFQ7tbtswmZM9kl1VCSi5xXrKnsomGLqxj/84JXlzeUHKVzUcijvxZdE9kb21jKy34z40sQGvDQy/YGvkLOsHfmbl5W4tQ0HB0vWAzTgRjNknyLFqEuVI3aH4iSFOkhDnyAGKKg9C9Q3ZhLMtOjvwpSqSG2kdErB8gh9lfhg8GM88+QK5nVXjRGxoHoGIKXGcU/K/nwVO57JUYfeoV1QUNPCE1XNh2ONTiqxF3qJJ+U3r41HsopXIek9SRDOa4agDLp7tRrnVbvnFqsz5wnCr3tCLHxlBsLdhGUk6XDjUvZKYNLNd9471JHlGZ7tXRM3HuZlh9t0G7LH4LBGoLCQyDSpI7tAz5jcd0zqsy4sJ5M0wFdoCNQAAuSjYYZQKlCAnlNWCBJgac0WHzU4v3Ddg6NRm2aSBg+dqqrjNhYSSjhYSpn4PMkzMRkmN5xwcUUJMrohberaHFayDKMvaGGd/DS+GENDmTuVagEPFpZY9Fy/S0hupf6urer5LWuACe4F7GT5oI+ZjhiuyTnJP8lt50OZ/9ApZJicJipGvbs7G7UfgSG/2wjcQmlMYAxRdGHMBbJikk8IiCBh3BPyy1mMJitqiIAjR5aLzqLZ+YRdHTOqvIeBNxMX9OpNScuG+/s9teRlyHrM3ygU55wZZ3HI58oL/E1Fl+ax/PZdGX38dBjgXuv+asEtOg/PIxUNT2XYTNzdl708LSvCvUbBry8RCeDwNLwFa/jTXmSVyu5x+7+crX9HlkuX6xRAEkJrbFMB3u1Svw9vyatxhGwB8xfbZ3ttejjTYCLJYKy6F14XJr7684ICK2+o6uL6qI7L7Dk9qyxOP6YyPaHek8nc4m+J9U9atjcCVbrEDBLeJ/IWdRHOnoy1ew3G/pulrZXbWrINY6CCDmFUBHsc6YvgLYYkRfFqOxYyAqcPLo9A+CztNORtKIBhUcXxFxGJlNkJJGIqkrYkjiz4MxkIbBVv7/+TWmAzpcBmxuG3VrhQKrUOrgUzT99VObIiC6yBfDypH5NFHdh5uJ6zcvNqQ1LV0sItkqXwIu2pii7a01ru2FM9XIJJid3lXgFoQ6MAMe38Vh4E5W0spDa2SlVk9FCXlHQAAAAAINJ9dC+1p+YjnKVwpCVV9GAzTHRdhISkixqYqzIraL6nP+V+72WSJ25aKAsPIq7j7ZSDzdEHnS6Vfml3xnnw8byo1SSoMLM7ggFw7qA/rX/v86DDJSfO5LePB0+G785DIOKqQ5qDRVOjQLRRwsq7Y+B+u0pXzD/jmgKbEFAecXTfyAgRVTwHaDvRJ7Q2cHfq8/94NoUzs9JD02H/wTAp41Zh83dBduayfxHrT8f6WLiGG/iPuwu/rkZDeVhrPy/JP07TysLrBoK3HDH6qMCXUo9Ze00XjU0lTUsa2a0p3LjD7Jo554lnQCd7sbhLaNm1v/0FSJ9PJ3HdMjjMrJZKvrGZae5b67b9AF53HSCYQKD5BixEYbZOVI7eWMiCI6OmzfO+dH+nC77LDTq4vLjwGy3f/KyS0BlMw4xF5YY8wAxPH7cEF3Y+4navpTsbLj8RhhqZ89oPdmDWJr/RYtd3oYfV7ElWebJUFRqNn85pYEDinCQPwJGjqamBuxin14gFXP3OCN98etIGHzCkoXqULnZ7PPmzWtW9pr5V50fNjTh4KHMCFKFse44dboIUXITKtKkAiJLiotgFZT03Z3NnVbeoOBda8CBxx0gFIFqwzRdKVUOYg0XF7TBVYLoLVbhbkkLM95fHk55qUI8pcVywSwr3njojX5OZC2pvq/xa906EE1KfA7xehJHjk0YMiIOJg5ZNI+lp5vaMgtOTNI/PA7QwFcbhyp2XmFReDEHzv0DzG7+6GoQee8oDgYdQbkaXzz0nkwCbT3Rvq5kFICeoDhbXMdrYKLIzHU4RzcIerl/2FewTjP+MTkMIj6AN7LX7ePrMDPjjjjQMls0vMmSJ7MQ5/VQmaQOUX5+PEF3DnAL1szsEx/n0LakMLIlolulhjz3wQbtBsPXwce6tl0JSfvV+lVS+l+pwjzHQ34FPgSE8pCzEYZvlx4huZ46dvGPWQtqAoOGxFA5BO69o6EfNfvFJj/OfQv1ZsmybJNtU8Y8w0JVhqtCl18U2nvovwC3goZJi309xYMPmWebQERKQX0/jhRJ5OO+PqvSFLsUrjJCK24/v0pvVCROzBnHZoimEXrBrS4E4hxAc7PIRMa/V4S3Rp4sKTxcATb0mCLh2TW9RVR6Nqcb7jC8tct1VY1LJTAB/9qKl4CnlsTnhF+BBAGwXgh95/IXiMyqEDto8dCNKMhn66z5tk1Zd2z56qSp1IJuGG3/Y1HSwmWS6XS8f/84QVGDyePSxdmWmauZ309CQ4fsfYhY5azbMWtNqJ93Hj5aw8KUp0ctrl42KAtK+60S7yIK8DIRNGlzXrogXU1yiY2L0NP/z58Uw6dp7KFw4ndv88uQEFaKaSXTCytoDzGgmgdoGmNmdbBnd4KhxFbNBK4QvIu8WBtzx9VQvOacZqhEd/oPGscOIBDoxaKgrBE1UFSHYnb2KiXbn7RrdMwCLpkHXT2aryR+b3XdpDEnqWBXew9Fpnqo9muitZiAfjNLS0tLMNJXLz8KKNvTKw0LKK+SsxEfyVUdLucdVfd0hkJPP2N56L6PAFyyP5OSvC+pvLXiZz9ZpssGlUzBaiQ9op0BnR/2kFkGdn1TMc/dHgjlazd+qbyOVP89kl1HeduCdQO37yewrat6xu3R1a5e6wBGlcm+N1pM62t7SWPS1Wbly+3/r9SgB+L2MvyuZdj5zybb7pwmChrMOw4A0sTxEbUSbNrseZR0yHwD8Se5WMJOODUrSJLby3O+N/P0teD4PwMaDeqcD/rL7VQUl79r6sIg/jBlzGOKPhiBN7sQm/6hoRxmQtE/nzYrUH8VeBsFufkXn6HiH8er+z7prLJAYTWQ5eyXK1XTYopIJ//8DqGfP4F1FF3BcDUbUMAfTMQj/igbc/rP4IYtEwsoB9E6+j12fxNIZrMSqCvsAoBOhF6LvhomDNIT6ZEjBNPy+lhdomXQAAAAAAACW+HrcO7q91fUkH4ac8clScsuaJn0n12Iz0msB3Hk7Yn+1up9Zk5/gu5bmA3Zdm3nsIIsc9+7KQ4pwnQuwQmPjgCIe0PrDxpjsdO2lOQyqOf5L4xd4eZqPULvOAymirkCpB6kblJzPdOnhmirhfuDzKrFrDKoHgETIId3UB/Gi9QZS3y3yktyi+mwee264zaA+yk+PZndm7/FdFtYFa6qOW0C3W8iwXp+4YM3kqwa6i/BbjQsBMx1islx742+9WZE00rQoBsMl5o8hDbEGPob/Sa8463JX3jeBfsfbhT/mZE93DPkUYCcXgTaT4sPXXf7A5QeIeCIqqs3mOtId2KxXY9lhOGBWf7sXELN0yCUZw83BQAAGqstIHZMvgtwehnGOZfVtQu49Gh+o7hCAbLRF0m31KxEzgDnO+aGQadUbVqvZsxlQbfhhNe0+/0a6yxsAZFZQrfvnwHgtvijIgIg+Vi5yqqii5tqcdn+rM9eohZS6bT9jfRl/9ntURbPNUjRgdpPfO2jysPzr+dHCTxy79iqcbjzo+fdHHuQL57zVd5/pBjbRra/HQqBlWFyM+EgLpE12HrglJs8mHvfyQIGl7Rwk1IlmS2RDMkdA7q8c6Gb7+tFiTSGnlSW8aK+iCEqC5CiRBGE+/lHRJImKtCAtpGK9hi0tWIBECvDhWyaSSONC3JGjuiwZOK3kH0EGxn/M8vNtJ1Vsdr/vqsSQAFex2G7P0LDBuBOjGeNqtkVBGCFZz7z55MOPXdk/5gjat6lo9VQHchz+qhIvyIOYdq60jIWW90v7+MG9auqWc3flbjxJB/Nu4dmnbjfkA7D1s0nrjigFWeARaWdZGnf7gzd0TsXUhMWGT2wj6laAarxIFj2iue4599wjqk5+ZS5PQVuIx5kvQCHeWJ6WYP9rdUigt2Xp2v1ya1WdNS9dAh4FDNLhVisSQdlMwfwkFDzS/+mH0tzrWfvijtOrPt+kgBbiByMOb4av/4WO6muTqyhKq3JBraUmIeSc5fwsdAG48xI1m+aVTajMslp9SgC73URKAbuM/Cy6vVadL+jTGUDejLUxFbsid0ieG5QHLbaRJXyeN+o/a172ywEMVHdi5X+4ub1KKK0jBuw8RYYPt2tTMeRn41exoyNC+AyqdYzG23QvDwZBCCftgcfSPm96FnOYJPS9g8nomJFA0DE0JvZN3tZcufR/ItGsTfasy4dWA5QPtjut3IgouIGxAJP4wIDcN5NJfZMy/3EWpmXUjHVUuBL6yKFi0iwPoui32wNaqMuiRIKj1enaqDmU83Fqp7Nc1xdvigeZra0RMsUffrzG/Ui4rGCN8FNu4ipYGohiVkHRQzmVuab7yxb8p64C8887C86K8Rs6HfMAwt0s+LFJdzhHuMKvUaiKOIz29womjD6yn0oUd28cp5cI7owc8HO9k/LlU7Hg9qkaN8D6kNZqUrK/UuEjOVZMbtXpiNZS4QNBmNEgiBUkqgeFy/ckxoECtj2VmRZTsscQS4Wm3IDdd5uTmM01GOvlNtJHzM8EDDzdbBTrENQIoOPTB03uB/QqMfCY402PTg77cWfPyP+r18GAQk/tDPD9Uyws9aV7b9z8t2JA17aAzalJndUrihLFwtX4GnVU2w0m2wvzU51JE0HSY/BlxZ++/WZhJofWe4GCz6ZAuPoxZJJ0vtVNv4vryk72RVbyqwCPVBU+/I0FYXd8mwMOxoA1AaaxrubhRDd+AUhjBnzqx1Rpx1ySJocfyMtiQfavayvEtEgXiIAAyvbaLVAORFK/RoYkihyjTNa54EQzQMMX+YycMbJRXYlid/L3KJTCwE6VuRP/28oqlWZXvKvR12NUTLshxQqvCj6wg4y03zqvgKLDvR+7c0nSm7qKbbnIk78ZS51gfSmgIMTx6L4MUp9fnCmOdstRsYZjCIqi0WJjj4OEl8zbumk4c9DeABnw8wf6nMKN54GqHrxvi15FbScPao3XhVaRzgb2NqT9MIMYshOBq8ROug4tcQbmkCFamui4O5FExq96CsCwkKU1lxuAps6j66ywK1NXj8KAYtnezwWHF+WDcUOkkRGPiFdJHe0utcvt+kRZfT19FuQOaL2WHPWUHgOQHat2xz8H+KutoLBbp6WIlMiYpKtoUa5J1RPYj/fnydmpmhgHF34OTIN/gMz1/wUNs2QHj1DkFqtkOcjmlhzWV178EvQHYyKQ5TochgVIhoP8EYop8CXDJW9bHCUfuYa7q5gQaEIDC/cyR6ONeloXiM9qZT1t7EXT/R/6Q59mGkFPVeRWODZD6iFtRTJnI1B7IgsfGmc5ACDrjFtPACks//C6VcOk0B70er+NQnxiKyCaiesu33tZoooUx0MM0YdKay8vbckkVafIS+TGEsthhABavc0VKnr1Rwpfz49V9mKAcqfSUXwgqqAG/5m/LRwVRtq+hgyLMflGR/44c4F5wzn9lOWBaNAHcvSghAu/MiypNtNFyWRJEmcdqosIqeTmU5JZ7rimapHnrUE/HsZKHM19mpSCiBx8sLvFc/dvzv6wBoPAgYZ2ksBGa3q5eNoGaL2BxUDxaZhZ/++OXBEgl3qN2GihoX3wvG1FgbtSV7THt9sRidg+sUxGcozd7RWPd4+8KNafXvuKwDETgb61u0/xcEV+FqFq4yZkkSEb3Hqmi0IqC9WQKyNwxq6FdGsXvg3+FEseNg6i5G9c2ar7R+MQtf8ROiphR1MtjYqjAuKrPSJk1PrtNBYxYqeeB2XXwZVU1TiZuRAXZg6yqoLUvJo0hVOVYtXIdLbh4vz++YZyYakLjqPswa6lZ7Za8hG7ZDKcrAACba15/38W8LVaAuHvMYrNaLiw6zCnQuSvREMiNhsoZIz8kPxR7e7lR2G4qOQPXOenj+bKJFpacvE6CsjQbuz1bibYIZw8hhTAlYtZr524rYkt72CgayPlx/8aHlR7FPrRqQM3FQtjO0gkeg1ntplRnHeJ4GXUiSWw26bisG8VC8/ytZM91sNL8Y98Sqktd+yZU/0+e1SuWyZ25YofHi5qDki+Itw5aOvTdJf5dibZgpMaDyFGu7091PAOEFu5W/9Ltvov1uMc4u05blJIGd4LjjK1F2VWKG1Er68BtP+hiL3MBYJdvRcn2+UTMcMcStOoazyXHnCS+k5BSXar7g6/RhuU4TFpFWtsS1P4kacB49a35xceav9xcbi9VJ1fjcNj5MOmiNbFXPLW1n9dvR1UT8RDQYODVQycBFhT+NzHnRlunezG27StOSprIKBP9EI3TUMBzwdHslKVh5yt3YmWeWP3/EfyBtxID/OWqvi5MSlksdPMHeYIlZTTTuHWFn5x4qBhqLoh6NEydiuo4tzT7gKZYOJWqtPrRN3mCRtEZpgMJkUeIdhNTWyhVGe1BMraV42A3AqJX+T8g5shBC4QZDTFTuWkOABPyGfXOG6DPhVRnq7ONcmjBX12CYpCd3g2PgLCndmKO6EDh0meLQ/6ImYy9Rn4C9+BG+JkyCMPe+5+YQfzCg5oyjucRrl3Bq2CFZSr6Dz90RbPKMihAP/R9Amo2wR0r+NazyiEJYQp4jT+92VocuKz336dcO85OZD4wv82pkH5TYnviU1la8ta5a1VVVUai+XWjro9exIC95AqpNu2/uUspYgU0A+UxLU1I2gIJ6EfALKUrPrD+v7uMsjdom3qP8aWtf06c3yDxttCD94d6dmuEzooghxrtYU47dYvtjhmDT5JlPFUyVNus7dQFEvDwnM5EQtT20jocp1mbxF/MMhVmqZqkJalyEcguZWFTw0ljjbrq35eic0Q3RzhdNDACc9K65sFyO9834sV6M9XPfcx0FXDZWsroWT3WJC2P9+lKfqHsf3nZIa6n+YpPb1Rmgxzw51LOgxN/abigdDTIiWm1C3kp4cKCSmNZxJhGz6TNyM5fHO51fvJbtWNEL8Y/vasKhg/g+CIn2DKIE8ZiMNbp2+DenwR0Nnzh1zNqUzAiKhxiQm5yvZWuytV2VJqVV2VrRDEkOidBYP4rxGOfk3M5QVyX6zSnbE0Ndgs8IJznf/v7+Hy+4SmqAeUgoPUOkQBiL05WD08RZemIwrgZcCqqqmj9UZ4R+2ApjsjqumwUhBJT6aF60SJhfn1He+AN2FOSxGFRwz2QO6jPJCwP8Mo0fwXZ7luh4xJ8qYkhM50UmKPcQO1uiX1I+vXTKx7OHdCz53TTr6Qbstnw0SOJZ5Ze94KCZmsQRCC7Zw/V8s7gs74jIc3svyAndLT0v1/g9R4R3TojCCvj6QfyAHO5Op2A1xfu3vx9MxImA0Fz925tb1zOLcdofRNzEFFrQPdycqVzJzitLUIekqNjoTtjPWJMVaFPITm2MTt1i0kXmugZMMq1kRLHWL+Io19JEX7mqRyt/Kt3s33PWrAwnEjcpyPxxwvLrnrCZTcJYNmR5DIPf81DmwAM7Zx66ZE65bZ1xEzyTys7DrmzqyMoGXXUO4OedLAeQkuz4gsmGw2Z7R0p0IRrXVGaTN5N/sr+9JQN2ajU2Dxkh3WnFJmFCXGMkmiXSpVxpfwkLtXg93H7nq5cL336qaZg3IY5F60Y1OQJ9cD4Xgvq2Teaq066J+hp8WQWIyIcI+3/p/Vorh/apQaf50haFUVgSsdbRtth2AvnCQZG2Btlf1dQpOiC2YHuiZx1AKL0Lor9cl2z4V5a/2oKqnXlm+P6+V0SbTOUMSeDCSKy2jryDVcsqzXFrvtHEBzSqTL510UlNTTTpQ20m8U6FuNsJH1ANVXrAL+cOnr4g4RmVTk1Sum6A6K9Ew7uvf+ECUxvq4h2Gi3obNSykxxfL+17IA4ERu4MX3osCFP/SoxtmHvRYBWuUgs7dRe14jvccu6PwpiHSVOMUE2FYIX1ut3PQsVsDaAMR2JBfmSLqjzxq/BnxOjAvGxTUgfQqh2eOqaqmOZ8E9tXmUYLZRm+YIwxEom5kQPR7ux9M3+wnz02I0JEaC8bMOyzb3BNK1IIWsbGNQuq/zQReBO7XeGW1GdQiQw7j+TTvaJUC0ANDqbZIy+tKf1z2RoZCzZag5v052pdmfZStD3upBF8zc07fhfUlMQ9dfZ0uFXUAhC+bHKWEiXd8LtHSf5pTCqpsuX4EG3ZgSVLJF8Tilu9s6cq5JV9yIGzF5k1oYPh0hWp0XBxJAAAAAKRJBGhDUiMozE0iwaKzPzh2i/NLpVqHB+MOcfqZpEk6ORkObt5QzX1BRFvkJAnnKq23qMIzXT9k52uew7NYsmBxY/AZWQUTg9pZMXrfu+fCaEugraxuUgy5P54MHGNQAAAAAF58nyfiuYPYxu8A5v1tn80WHzQuttDSndIwKaUxMtEkd27Be6F/0EvnCadO351Wus1Gz9dO1EW6ggVS5UOYvRs0HoQ1cCHLsn2Sjtx/VlVeu8TQtnzJp8i2MeBRKaKDsbpHLfleT2uOsFBCeFlKmpzIuI9+LTUpwOOm1zvfGMgJPINeL3/HgNRZ7JQCOllqmyrTeHU2p1J55f5emRzmy9eJTC0gaW+PpVBIJmq9oIokgeE/3liGlk6CHOjWomKSh0ViE0UKRytDi+6rKRbAZcP6s8HdZAgRfczikbCW0ht8BIuz4ISuiAdXacPu0BIrSlEh3FI8raRgDzshyJ6io0dgJqex4H4FH4O+QeIjWbcx/wf+hX7P7gZ0e8T54y4aCpTuAr7uHnz4KcDv63Ap339XiBaYXRwl2Dw8KKFKULvRC71qqjr5zl11jp/Fshsaiqw8guaooCsAZ94jFRxcKL1uaTxzmynDRXBFbXhpGx9yOcB6QvS0GKUveGX9q28lxOMJARa813wOgWqBhIi4XAHfU78lLu6tq09Sy9aowNu5SoE4tEMmIB8CkC8ZfIy0HrNy6voSQfxgXR8D9VhTDcnEHJ5QXCUNQVAxu04yFRUYE9g6WXWNOY2z66AqdfzS4yeQH/vdr3BClpC4QszeChk4776kf4HW4nH6EPI0CB5AeP7NyahLAQDRaST+v4WJfBTeL6n2pkcOwCYRBxV6Nt6fgCP+P3t2Nlkvi0y7wmzd5P5HaVeYx9oxP9WbOtTar3G2l6N7wFw3ivXue3ie7JC8GW/VKekkIRCUgpSxFWcXk5mHwqyEdFs/pwkBphri81Qirqr2GO+xUlyciwmkb8gPqimMCUaBpKkI3mJQU4V9uLPwDyc4Nw5XRVVReKxqAPA1df6HXVCu9qKHwB1+bm7v8Lv3lqSfP6TC1/UdcaLHNaEDdysOWW2lbAAIl5t0+aRpSRSAM3WdXKpXuy/jeCsi/FSk5LdxJTVY13ECA+tH24k5VcyYMKH7phOFIAni1kFaum2oNxU3gucvib7Wr3JfMyoIiSR9Tjw6esqwRaimx90VwjxjjT+yj3H1TwEfSSXVZ2JSNsMHKt/PG3ayB9X+DOMQo9ViZJiHwDoWmu+M0wgix9C/jwu48lE1dXF4TiijOSAyaWxn13r/NwGT1sFfKtSWL3dkP+n6c998GFSE3DMI7rIC/OFaQbBg4N5CI8+mmNOpS8GUqqJKTSBO8Cby7tx/1VZQlUwQwknpPZrtfOqs4OQtNvbWl3zDEVXWr4xgUkSsKmCFukckBlin5QCoSasB9BLhTNC9n+GbyXdxN6FpB/NXamJtYz7Wxxt9gfo469bUfvvg2YL6e6l5fAcBpT690aWjepPQvp3Bs3ZKE9agX2JMcGvhegbGmJINSMaSgzTKtfASkTQhDocYlSmCd6rRsAjUBLbWK9fRfAT/Babr0Ggcn4MidgEeabe/nET9btEQqoeFzJPBkVnUudSsbLWK5njiANYPK5B6WVuui5WQxC71zMDoKeeJXnQjFUJsP7HaW8J4V/u6pXE+M/IfP51/mkdNaZ1uVfcMdDBWAicRDubTgiZ/lhchlt1YSUcb4nIOnndQQVhr9+i7yukD+Gah0wYH66HrOR8EtsxHTGa7hjYlIcyFnZL9X0UW1b9ri/Z4vRx2FMEtgx56sKKnNFdwJi/lEN6bphK4+Jz3GCcsDWjmeoydHP6U+v5ixCFX3wTOfNmdw+RIKvOUUjxZM98H7ACuTgVWYVfR/K8M3SCM/9u9OVOB9NRWLPwI8tYuCHh1gUOD45amTiLzjkB244k8N9/v6uCNuSFqcTg1jM8nPdI+bkd9kF934VjwIUd6Knl3cidkFyWiEX52xe1+jFuiuepgR3TSVLcIqGdfr9TUBTZbNAlCnT7LiTnVoj9pfGq6umQz/pv/5PLg91r78SX1vAYCjn9h2tdK8hk8yuuUm62eTgmrud3rqN5Nxkq46+W5XoDmmDhUlI5UGLIhR0xa7yX5owFb8x8XuUCM+pO2uGromghLgBGa+kIluTf9tfEc7/Eb2N42fZ/OUtYhzK1CKEqH6xwoQxprUoH5gjOKBvWOflucAh64pCkx3YJZKkwMdlom1W4BrzoLHYrNFoxxdtPYOwZdN5CFiqNWAH6Etigo01DpOBhaJukGUL9CvRkXzIO9vNk+JfSVqx3GrbYxs5tL2/KW2ZeQMTsMaI9UFeF0jxcJO+EFnjKUMHduZ9TtZKvdUDIcqeYpexd9EgiXfG7bK8y5Y48c2m7EuNj3mQI80BbGAKVtCAJWjifqf6hwAlBv6YXragBVaC261vBr7CLe0R64WpCSNVFGw9ukj+jUC+1XV5DXJOT7uwqrMu3GbHeHTE20ihlVUxXPMtnUMzZ5G47osgb4Ehr5zLWFXULnDhWuTuPgkVvTXx7zdKzYoQuwKAd+RNpYzfj21cjZvesd5lITj18zJjEAZpBdZRiSSCldT031yrbwxyxg2SFozHh5Rqz2qEoeYwged988i4bAZghJZ90p0W4aI7bPMF+QeJKiDoarstW4CYkrVShjAJ+hgpkkhat8f1i7JFSN2gYzhJ/bkYTqkLiKQhXOp+SsCi7uwnjFnJhJgxnLBqq3pn3Cmz6QXFnqsR4UGgoC4qJItA+di4G+SsKiFEmuy2D4iUkccjtgkqJ5329THIzzSnM63ZskcvIlyUhBdxGMcEarqK2XMC27XGszGElaV14ndOG47cenUCeNE9qPeNdoWSKjxT3GNas1X41b6HTCqlR8uKK+ZTikWf9Bzyle7tPV4PXmETkqVrx1oG9O0Gh4zLBkvEuMxZImYBA6WkahhnGoJO4bdqBAHfP141MFvn1WpK9moKDrQKO/3byALR1baALlKQrFrqen138wb0RGM0mdAWnBBFlxVeu14Kxj21NERMteQmt2zfqi3qPFlDLvrEPH8JaFAIzGivEtsu1eZhmICEQe4Qi7AWhN/pTZlVfdl+fwybwzl9z/mUAQAJJBq8ZctxFEV8lfcPWSXarwEJoh5bViVW39na8818d+whm1A28BPiX5iIwwlydnLlna3HukGNwAGIObA6HlxZwYnp5U8df792CY2tY4xelM4FlLQa/wTJVz377oK19cJTV41SANewkL8S9upUWWo3LoFH8bKBvI5ZOlCei/4e6Pafgb0p5CJQOZRWzDscWi62g3zEIEU70zjcr/6m+JaI8n+ShuIfEKp1fNJSCPjljTiCgbfdV6XZ94YJT6PK6We61MuNZuw38JOsAErOZWYCANH6ZKFttdGdSQ4f31hj9U+EPyGIFwfIOLdjcTbHCmAAAWPfEDV0611GEf3xdNCrIjKRiLi7uUP0MattiAmZH0tM+6HLdUxp14+LaJar76Tsvw6Fw/z5g0eiP5A/d2LdAgkTMmzhNf2xAmvYe9JxAR/vNq2U2j9qa5/qyxD9kh/BGuAn6DTjpj8b0xFmpNU5p+wn9jNs/Vta0R04FyK0MJNWLUhfoPGiqqqqqq1Zq1zXRt0/ICTW+Vg4gBTIxVFZD/IvVvTvJy6ccJZR3mErN0ryB9H7WaQN/i9wfa+C+5iPpuWdyv1J/vArhbxcs7aV6psQor9AgrrxR5s7kWsSYwE380GactW7ArZVR0JX0lq//r3mgJy3mlmB1DacVbyRTd9u7Rz1v/rY8S5RcOXhTyzO4wr9SZ/L3QDCjfbRO/pByqeQq5UucA+vMNo1zDbOgQkN5ZbT8DyrLchqIFeSxLoUHrtKGq5JltK84wXDcQIC6+fzRgQ6aBAACesT3o3VsRiNamKKv3RyjlnOmT3NIJYRDMHK35AU0e5Q/f/b5c8eli9iTrzyF/QTDXE/P3spfMTtBTcNv1dK4LPUdSDK9R1dIukv2CMFNTBZIy5aLrpqeKnGjCfosE+KVCaeff8vU4xugtYFwzUzEGW+fcoJiSSG3RFv3FqhT0Ucf0LwsAt9rty1Ub8PmJ6Qaiw07oGfbKH/9KF4rtGGTPVA/+rZ7cwZYVEfj7z/rri1jeLfsFYfq/UWphOE7qQmBDkl8ngyyW2SJ3vxahb6gcdilmJqMgcSmAB7b8xefuqdVYIk6P2d4D5FWVNWSLcw/C4Q0VNOSuV3bk4Tz0hwE5gPmEY7ZQ441F1WpA7kb6Ok302UqB5/sgDDdrIh23XWtaqJ0LwuHyQGv1agQ8oqP+HOUBkPMl4XpjVmGJGdVD9Bx7ogvCeZyJJ0SnbkMfbZHQmoVYW2eDcS3zWWNMd/WPDJnFgOljAbwUnv5yfCHImPrEUJL0nRB/MkhuCxvcPy8QEU2UItn2MLHCeTasbc49K1PilMWqUPo0bH4h6UD2YfX51OpwNkANNlq/IwQkVPqgrqlSuLfjiFISA8492H5qpTh5hPfBkg2TS9+DB0HI1c6HZBkhDQoj3G5tJp8dtA1coQxvkP3lFRl65I27QEgyh2cUfI9A01kCQHQNRN1y15XuWQXr8PVujdA4MEdgqJAjJzG4pvwtJHSKW2b/yIhI2ngstub5khoNJLNq47FsY4S/wECriJ/nHpOd8/Y2x7cVHTjEp/UbvncAFKoXHr7yr+E0z+ktfThYR1p56JmVaPjbTa/tzSgXhPewfq0CfKtE+18iST8HpcG5wL0IUS+ueQjE8Z95Zlp/hzOTn5VhYJfBaWve00+jaWVd0H4MylcxR0VSs9h7sMYo/VMkce3GVrIrocJQl7mjX3tFIJ1oreFPEqphKkTH/LlVMArbVvbTaZhnmFOFxhFHbhzxeKCeDQpxjTx0SsRoIc/BG9FOCwOBkfjzFJ6ceONkIoKaOji1W3LCENMReuFqzfawbUTiVdVTLRUBkJEwTMMffmBsc1Jot/bKpI+sttiLDNCblLAz293nn3h50h77zesKTnmCLbBj/MYQyQcslGsUBkr6lITjAnErwKGlmjGPZym+7Qz4twPtMkq1L6yGeJCWlpSVVA0+IyUjlvx2GAg5p0MeRkWlRxF3qZ910m4qLWyiUss95SbMrdAkpM/W9w2pPZdc6CX/uDLsW+t1mx8e7uqg+hQPszn0G6yaGK+v6iutP9Tj+LE6K0QoQP5od46MDufguWAnszIWIKMbNfvMvvefQDZAtrYbIQ8gP2/IH//5GwbHfjEu/IC506IcqX7mEqy487WdFWevi8ts5aBiZUNdeaBl+gJ63iSno/V4BG+niDkmrHuHSexCyjhtxPiMXtoivO88orqph7tZGSenV0K1hdONSL1lVtTzl+lmkdSNZKoz9LblsD/A/mKQkWraBNXQqXv1Cf+XRR6DRc4AAAX89TgCeaP+/7bmKHrRgUJem63q3I3VJpSulzND36gRPD6NFmRv2uI0OUHSx53XBmd86E7QEYsEVkxNGwJXkEZwiJCsVZYpZ0c1SXYViIckBb4Ns01jfRhcF3f/hfxB2n0jMeonkLT+DdgxeU4aKYEfRjcyvGkY//eBMZbE4Ufdoj5lTQWb3l+L3VJKy5bF3jcFoTTHO4vTtGY1S1E5udjK7bUp+PotMTpNJ5cfLwSxVCj1wvoGuuP1HbJ26v+v3wEkLA1s7jdxL5VUiWyIXdtowca3e3JTzj6Ebu2vn5Xgl1dff28afpVCWxdWPs5h+apKQZy1L1C6xZVLse7CH5Hl3Kaz+EVM59VbeY/RLF7C7fAzOFejIZBZgavSremCixQkQKu3LvtuTARBS1PpkEMw0NPC0ciBusrABZAHKJUWPwqmzUtYL4Slvnz1wjuVZOsSjgfphKbM1T23RWyJP3YRHl3tomN+1zBgHejEZ3PTlXfNaan1fd/hQ5wI547In6VF+YQiYVvrhwa72/i9/Su7zNZg6Z4s0wWrtcFIioTzYrpc3U+lQUcJC9CO1r2lZHGq6V+w5PByp8TS6RryhURdfL5MiWwvK8ASNg6uksmMArcu78wOX79ouvxNZ3CbhtPm8ev8w50XJ1KpsQqJvFv3YkJ4s8gWdur2a/ryM28mhURcyuTHF721mPZ4kAOu2s2/owpPT8ZGk23uHhi0PehyxmpHt6nLb1RDHLVW8KenjmQMvo8FJwO4n9xgmgEKcBTK6/mlvWtVtjUj1SmzOfySFCgSmu9JtqrTH8augnS1KpjrI/jXRcOjotsVemoBdGq/C/jqwMSkHZODPnhSYHKpy+AS9AxbF7lZ4DBc0FH+OSCB5SVquCwOY2/98WNLOYx7a2HHqRfTePHs1yfjl5BvKjlaur4apXYb4klIfs95v6j0yzvZyH8ztfF1TtI3NqTAAAAADj3fpo1kQrtBM81flJb+iV3bkVq2bZdZXbtxpeHpcY3r7MSwy6LKD30Yz0mPD1rWnVx43Ydo3z1xiD0Nd1cdrjgAAAAAAAAAAC96zsPBM7vYxpX41EK/9BNWwrcRK+zsxIxC4MBwrKwuHBsGq3ZRt0pj6Rx5LlC86d4+xoXniStxZ6JCtRr+eZoKngOHlpXRn2/88dIXHpIeW982ZUwdVz+mTVlAhzrb8rZmkVhVDPiRAqRmTjrVojPT35uA/y83y/mS3pSFZxn3k4QVTj4iR1MtF3C0cl2DoXSTeFeN3QLHbDLRz8ttTsWaKuztIDsdDYXDqfjKaueW/G0ni6M7iyn8vjZ73TuI2kUChErv208naAKmSJpBYAG91tyOKaYLaw8pfXEkTsnuUYZglBX6uto0N1W8T95rdwb9ztvuIjW4YuXCq5Xr4xWJkwH9tl3ir4BYW+lpfD7K8Ubdqk5RbuulmV5PwCZnwHMz+ZjIvwaARxuDZTDuTCFxVEpul/nHJaKRHfVOTcNvVZT4BlciuFm6RR4P1xcIFzHgL5D5JkXyBdALKBIm+xUGNF9KBcarcUXDuo1FBocBeTGbJv7A1mhHk8DRmBwwwkryclrnMxOo1MfLkbauqV6+no44OiEcGhgLFxa8kgHygiQ+9l5F0LHC6LhU9x/xEG4dVVRd5tF9mAeZRzqivRfMXIGnVEvbh+x/0UOtrHxnnSS8PHrq+BFn4uteMiCZRwTkT7oVkOq9z1N+qyB00o1pQda7yTKOYtKhYXO0vZFA3f8C9Hh4sno1XrVS2m6tu619C6wbJce/fp3bJ5S3vXBIe0yGIu0L3jzCfi4dycYkPffs26bkYZ9KSjty0+g/BaoDzJehemo4BS0JS2DT8JZQ02YU70abcVNBz8L7oHj4Gb1D3efCn+ntRZJuqc7mo7RyYzd9oh74WLdHqN3FExdK1ubYhzv467Vurt+yarUGkDmIjm4KxwPrlXQrSwth18VBnmN8RIuLjZmam4tu04PqH/RPQxFcYY3ovBDyb4nUOJLVMsQ4loIumBwrkqWb9eMV0Q0Z3Guu8gAioKGTbG75r8sn5K18ZbVghWJG6/DJXrJ10cAj9Lk0DOXI7dtXMZaQWYOYs5nDfWeVzlZFusPXMyGabWe8KR274+NVAA2ZhEsw8rhz/JLsSpM5dsVlXXpu3YcUTyiXAj/pLvNDgqc/6tliG49rBdOcVwVZ6e8yWa7fcdSP2KhcHb9Jt7saiV4aGJUPVFsxfVy7gLMFBS6AyhFa6Z7opLxPrY4cwvAyyKZ7D2tnVRaa4u7sLVUj7KI4SXozg2d6k4FhakeNqi1qP5WbPObfzyqUueRRhk+r3vgvltctQPEoPgzAXEQARfi24UtrjUFfUFfHUq8t9YBJJBQ9EEJB4/0w5Xv6fh6Kize7A441RGaOHF2hUzJXNctPx7pNQCo8sMv7O117ieQOi7OZjkw5hrwwWidROl1Nrubx/o7DF+2/Ci86kBrM1/A22jdElpsNfDCsiMMLLVf+z2zXavsHCAAAa5/NO0H7iNmTIEzvqphjaByicB8b3sGdQB1XEuhavMlYp92Uh73rMs27OD21YQTNQCrjPXOoH4uhc6by9RJjgAADua9E0ldImFttjluB/F0B8CNg07pyC1fU5OD/gZb7kpA6w9pzMUUdbjt0rCffJiAfrkgtRRMad/2uIsxaYeJSTAz8uq7PcJN6/G4bus6AUhDJaFgyZF/Sx6MHjnSCc5islnaPLv11R66lipUSegUZjVRmtv61E8xjQIE5xjvcpa0ghey6WaYi6iWDft6Y3EBgSXzsdZ1GSkrht9greOcShC9LQ3Su5TjbcbUZV6TmzJ9LqYuoMOaFt1/R0P7U0f3JgrGeKO7ox/nlPZyoKpItYyytRMR8lqR8iITDObQavE4JtG4ThGxuhq0zOJy4jxiyvawtES6oA5B711iE5g9v4ZboOGmAGC4PasEBP+x3ZCV9zePrfET+BN7tGT+oGQILkiIhJ15QgtClsHR1xbebcp0yVt57nBWlkRHj2RmErpDmjWjzxtFhKlT2KUfA0gXf9gjEEwe+zCYmaFqKnHKNCQY8Gjxjv3ERyiUYo7BXvt63S/oXezEcI9yRpO4TcL7JbfJ4KitoDFnohMy3Xdw2rCvVTy5graBhswqTakuMp1wsq3S5ahcPKMjhR6CAib8a7lWd2xAU2w0oprmOz5kLuZtHd79S4QvcZt8NTDZ49BmEznuJa3KuZG8RO9p/leDXlmaoSLPaKkw+92ZGJoAwryEHeGFv2PjWkXpJLcTq5YEDrZdHQC/8F/YtOgOVyTsAG3Xmi0qWSXzNsaAEfz7m2WSw9XtF1g4SCWBbkuZ0UwHixBzZMU47OAnpjXBRxCgh7dPa4dNcpRBNlwKFTgOmdktVHgIxpbQZFHBGVgFG0MQTZIEtq2wHPKMP+Wc1iyHYX58F5J4wrOnKDAlmhcAxzZrcmr2TMnkxiOIvyi5AWEEWTZlhO6Zsgoo7/ZRdlTeN7pQbWSOj7R9PWCCcOwYLpScBk1P6XZtS64yiLYd+5ePssl88RTdpBVf2UHp/GPFrwfjM4yfo+5GrGdrI4TKCzAXN3Sw3ksw6esNnDl9IGnh5obnIJdQq8SbNNWhj4IbqHVjrhYPiatnmjygcnQ4a7QAI679yo4Ie8sfDVcAExMoifN0nvx/BJDlXDQsAxuC8ge/sKjR8x9jorZ1ZtAn0q82D9M9ymIZ5SWMsrnPMcOE2ezJT9XJ5iee4M0pLExOO4/NZI95F8hOrMnSpiHAdc1YBbg8qF7bbbzzmEws9rTV1kcqmPjl4UBg+Awftzo46P8J9i6Mv8U9vnKU4X1U0o0Kaw0nph9VFvdG0Na17IdInY+v2Ee9dZrIjios5qlt3Gx6IWmGN9ftYF3uU15v+XzNd0ugZjjUZtAdGGkW1yJ4GvBdfg8Kt47VdIHI0VOMJc1+8vKfFr/fB506Y2Jryz68E1GAAAAAAAIRuZTLTW4etQvlUuteobQUmZTePH+L2zdc6593dWWhH111cV0p+ZWymP6v9YtXZu8q14Wdy+4mw5DEL7YpaRnbzTkw4OmExT2lokBkg4PwcRbjCX+2Q2YvZ2dmz6XLCVWBegAMExAuNvx55Vdw88TV4mxtwoTAH1ywMSPaGGd/DS+GENDmTuVagEPFpZY9Fy/S0hupf6urer5LWuACe4F7GT5oI+ZjhiuyTnJP8ly+/msx4Se7gf1nVNsdn2Vq2zADSxcL7OZ2cAvXz3pLsgWy6BVolxz4ln46AUJ/63tfDcN9ZSjSU5zDdNDYnP/joahM2tuN3eTN6u45yMQ7KYiRFGEg4bNUesgo1KLXBx/Ols6CRwJqEP+11aBNSNJD/YjvjCuaaJq0dcAUy1DZKwesHtKzLtoT+BpN1DukjanvHVtJaJJjfzoTmINA5JjdV344T7qth0rDD2oq6TbiBx7894VPrQqOJ0xFNPWY5O8VysRT34Y13l5z79Cw3IyDivFDzCpc6vEiurue0zm3I2L5P17Q8JDAze2TKRwrSrcw772TX4rwtXXcM+w/GPtUnx8S7R99VY0sk6SB0R+XjISDZJVaApL3pzZ08pc9JF5RysgJAcr7dLD8h+nx14kP7Fq4DhbZw/sAax3uJKde7lFiOIPokkWmHJL/1Tkz0bMajihCyzhHuUcAm6XKI8WQBWchZT/BXHi9soy5jb+bd1sCnpHrJzO3REYAvpji3jYqiD+RH8Hay7JtPAsCRndm48//k5Nx+Wne+HncEuzsfjRlMtoY307eEiaimb4uQotrQoVpEc/f9txkMa2CxxZuLyAUy/GVfVCxLYnMzDTIuxl0tN1lGCwiMNVywHR9e5fehZzO+fCC7VpRSJMFHKC80iZVFftIxYYCU8rE5knU1ciGGzGKKfEAvzfx+i1ttttttwP7OXVijzLBB8XXDBxYi2vN1z8pUuDfoztvafqkwFk+jvzUyrPKBpbuXFkmnz6XmXPIHkq/YRlplVQGICdqjA4GTYnm0lknI6L3CAYg4AtgphrIombsSaHow3VVQx8wSzg3RWDbe4Ygd1Dskct8lIp6+g12UjdqjxnGnRR+5bcjZ4Kf9JyFfY0d4bnvxPUxHfvbgWYccplSPe1j1q4oBCYHsdM5030bCMUqtrS517Ks9bDY14x+UxHj5d60sAdGxFPlR81NvY0xLO7ul77iByd7IuzVViMJQraiu5HDz/WJYrwYaKKFYgS/lPase3Jzzj3q/Wx8QOB2myH8kBgxx1kZ7q7vWK3l1VCOOOOOOONkE0ag+1zHrPcilcwdCKWqRjcfveFNOO3rrR5djcM9TiTBUjFp8QeMyAMYq7C3usVmLqK5F1alejZMjfo4NWQ56dvlm9pfuctbUHvf8SYU7lpmnLdoMTaWaszUbKJ8+fIwDASFW3yjv8xwDCea4fMY+jv/pInfXKNCJD4GHVvc9W2SXWMkrWTvI84jhEXfHFu1JkVDIWMYZaKq1mEgsdgcpgnRil0kv/qobSf4aGmNRxZ9DaPE7MMbdVso9tLtvWd0JCD+4zpH9dtP7KSEqO6DJycMpfIhydlfk/T+NyIOCFGGdrNyY7GoiWkta1vgph8RBbbhsXJ52NzswgD7iOMF2sKHjlkSzUGSNbDm9DY4nToyxTXkfP43gkafu/FDgLbmwsZCa9Js8qkf33v3yRpyxpyxpkt8fYe3uRJcBlQDHaPwGufQAZEvtjfxnLUM5odtRlHw4O9ViPDJwhYN8CZ+S8aTyOmjih7wB73G2iJ6Zgdx39qvEJfCdqR653JL3kXaTLonrNEclBZNMtqW4W6C6YTkt75grm5blhSgTUGr0PCQPll8fKScQWXjLyZheCAe0FBSCN/nAwyTBMMVUSG/we1SIo+JHeNuNrw18OO7KTDVUatHRwZeTFNdNA5Drd8GVejyOQj5IbztR5gdXXnkWikl5+fk3W/dxkKMHNZHCGEbwNBPEcwOWh2FQplp4ykTNfBIt++/TfEZDJ61A6DdcRqu3PmkT6MbxC4C1ll5u7tm/skVvo++NFDXakyx+/Ry8FgzVScRsbPApAkewsHBHM2fAogYykIJ3E9JKgXZlH7kZWqihBZBYAXumOvd04l6F76JhDgJMfw9YmWPfefYO5kaSKIeKaB+BF0MWHczA9QrlrTwGHSdMURnRMZsz26DCCMFierpFgjWG3oVSvsK+Byjegh7ezGSclm5eqqqqqsYBVMZtLje5jsTiDyZqAr09FyikWloxqescdXmn4MCU+W0AyHoFwCZZHoarxWwk/N395Z4Cwqy6ymcABmz7DtQSNIFW83Xm96aIo/NX9zC8SfkerrrL+9y8LJKxDNFvcoMWHfk6dGARvCYzpEtHgWyPUEVLBIR4Af4uw34Sy8LH2a12bj9S65oerckwxrCM8nO3UVaHyznfH2A7kXx3OwyF0LVyBZ7bbvjcesCuIycdT0lESbQUh897XtAkXlkHgmqtIZqKXm/3QdM8Ig0VHV6rErb+d+Im7rzHchM0OaQ/MwK7+wFTt/70Vw6Q3MrjgNorJoRG/5oY5oi7kEjIMO5X0eGrpjtuyL5tBRnLtDuBb80IerTlQgCdyutzCsIt1mpdpNO+VLI7dhdCRcADCCt93QeU0DXwduv6lF5OSMpJ/T7XS3dCg6975aDk88EqcWwII70sJ+rTIMj84s3m2b+4DoA1ng2pG7RqE7lm0rxDW90wiTCXZeTZ7JW9VDBS1yN3Z0zU8JZBXEU4oCe53uqdg4r+6M2cqV20Q2N3OovL3Go3FNXdo5vvTgBD+LBxXglTDyxaLHo87pG9ATk5Xm2XepCkuNlTfqWzTr6T6Gqnt2w/pzCExsohSyk4ssxaX23L6U5OsMRupeY3nccXI3CukgyKrNrlElVLVgboKB+UAcl1i09S1UssMGPova5L+MIl3zgu6hLvLkpXcJGqgywoUy2rJxtN8YTNY78XOVTPhGS1dz70GrpHUfwbZxDH+SUH95Jwi4XTW3WNfRv5kehsQqcmvHaUrGn5t9FJmx2FiI60XpDPjrAW2ARff1kMc0D+gQiTIsL5iYj9KNjUhB6xlnXXO4ytI/HscVBgWKZWjVbxhbWNer4lZb8TlQVNEvFdTALuRC0W3lBZkmut2iSz+W71Es8rIIBpQTW7PdNlvBvq0X/w2T5b1woEyLhHAJk2/cVCshvouvm6RT7baIdr9CwfauHdca+sVDCGkGLMusRbrBBBM2KzyLcl4eEH9TDBwVrHUZZ5Ck0HIZAh4wRa1SthuD69mqk8tQAD+wFUrFAWvwCispyUzxjDqEZOnHJHs35ZMchrWsnEKkDhrhyXOEMI612/fiYalrUM73GmsYvI0jtGTEiUwAE6qfnC/H3AzUhlgoKQIFnXc98U6kgt8JCw53VB1o2EvmAIC1hzSFMj5E6ojx/MGlvZXkfIe5BFZ/qMAvZ3W1tp1f0PAPjsqJpkBbsl/ckO088VV98QjJYSBthlY5RAwlQIt6CQrPmCvEgFOekXyN6/mdzQR0W+1P0lrPSh0durji276dT+Y/geJ1gR3VWrILIoxxUjJ3UWKxHtNWrbDUYVXKWHvyTBIGwF7e56Ys05Wn5GLDc5da9wf//0Zp06BBB0TgOX5ewBmXA0lmxngfBvrnUoImOyo2xGa3qyK6DpgcIe4tMNrEdAs41jvzSWxl2p38xvOnzA9ne2KmBxFNJvpxUe/NZ093Bm8g8NZ8ojX7/FtBH0vTQK+WF2dwir6ExW7MRcSCd+nPWBBA0f7elTrgwf8YVlpawTZoO6S+feCLPu/IPJyML5WozrgNaZogdzPcBfmxO86cq2CHMYrDHaYGGpK+N8CwsvggVTlTfV0VNVx5mxAgDaCgxzQOpmpy6zhRMiT8Y69Hi88V/oIw7FrQddRhUaAeoS2h7uGAxh3A+q7WrayeThpHggnIMwT1OD7skghW1h9mWba7pV+Z+oSHBzF1oIXZWOh7mHBlRYzbDmHPBe5F9seOg3ScPgRMMjwicgTQd7LdevuVq61hCtHRsNtdzjzHNITM7c6kWxmcqz3LMBkVMQPaF3eVEK1tPuooxv4nfE6zEX+MEjxNuORO2VUbIqkTUHnzNJ2thxjWWPubr2jtqiDk79P0BykCkRqJAFf9MQdG0vDgBV7Uscn9btYQrEJ74UBw4t9O9Qd0lhRF4CFpknBE8HdO/wWwUNwaSslkfvGxTTbfViqsHMbYMZmOMBNOlb2efMsze79UzGTurVONVrwQO1wlXBsk+lTu4pyzHXFqE8mH59AOs/a2BZykDsCYyzt3Qc8QMoK2s5t87/v681F46L1DLHwXhMUlPIbNfh4N1t4hcUtCtBq18sGwfDy1nIZ9mMgP6NdJa4BZWrHdihnkh6sOHmB4IF7vxSbMdC1qMhUK9PywZKKaEzfOLcR57MbZVMudWPfSNO7mIohn5R6xtwdJN1dFh4N3t05e+RMeGgjIcTX3I/OqAiZgRX8a6s4v3A5uKAiblCqQ7GbFa7AyFvgFnPkV+7aS3O+NlloT9hP9go7j50eO9FG4xAbQhyNeLQRmm1oUfzZcYS4rY4WrjETSAJhiq77TYKtNTN1QpA8Ppuj2AbhuLSvERDpQtQifggbT2FGFtX1wUcST7wLAcd4qs8LCFri7dHpMZuu3PE2X3zp22IZnJk8imB85a21yP8LnSL4gzGCFgfV3NlRkDXXmrxDvN7f6dimAPs5+y8dpSOiEkeY/LcMoi7dEdr1QkNDaXErW3aqmulqwNg1PV13BIAe+t/eLo+id4Une9OVrNUz3HgEJTo2wbaA///h49Y+5tZRJf+ynGaTlyNeJzSxVBzGYCNIZuOkoT6tNh9C9TWdqQASl054sHen0JUMskfSizePmlLWXnqTN973U+1oGOO5jPp1KuoZIoHQC13LM8fxOTTrmMFEJPBZPf///////////5MPydayHQ00UEkEsF2V1CODtFNppA/Upg0s3rVStHsJbCmWCYPlB/4eJbXv3KE2urq4ZlvP5AS4GA5PSazIK734DG8ICNSXreHh4iBtnz5LvlRC+rRtTxnzn1Hs83gtUJSxwcDd3Oy8xq0IWKtXeQfMjkahTfrkmJ+mO/1dAWCGA8SVTYkyd8vEQXi9vrOXSRxj2GH8xhkecFEeBY3WUBegwVsVghrKTSbXQZs6nxsqqVR5j3Uw5JuykaIloyGt6GWK7RJZO8oZmyaCYO5EIfpdHmYMoeVtXF3Dxqh/d34jhJsq9tEBBolukr8r/hYv0/HP+uGr0UYabvqnIMwGmKxWArTAWlZhgKWuL+5PhzWSZwHQVd2yWxP9/DXLzOLeRbu3IcOgcvvWDo1iU5Rm1hYZjFw/s7c0liUK5hbMJlQcZgxFyV39Y57ux6e9lM8Ysub5NavPxDmKvTQWv/44DEUsa4S24IdpwxK99DuueHKtTGap68bt113k8RCZq7qYbNQOUcvTbOYq9p4QccugQWjnOQjsmDiDIWiSFtd44wsPprVCJnebUcaDe+kB5wkPxVP3ZHFPI8qX20vifJTh5bkw2J4tg61m8gdUcRUgvb18LFTtI2gqabi5eHYzLiqZ1vXhpESXWr/iD1rQsWRIHvAqeH/h5KXOviPMwmQwPSm/PH2mR+tJ/1Q6Ww+3kgbl0CDa2OThi0HQLWiOWpmmbzcFKpKBC+Eeloq+SEBuCX1rTsUIkT7XLvgG/t62H0OPaRZ9DNUqYXl0D+REk9SKU/wQgTDFfK5aMxWxrneM5TY18AxmPgXPQ7HKWAuBc7tttwz9wl5pn0sVj3RMCmlkQZfPmjR4WK3hhLlmEvGeR30N+dR1ZNH0f0IbnwWqChbtlQvSdoN8erttUgm3N+no4ZOnnFQ20b2wP2GDGJPeQGP7ocr4X04rmhsYwdH/tR7qjfafdGo2cpxgEYqKLYf2yNac7ybJsLbSciFknBJSpHbKQy/EBayVABjnty7GIG/ApxYThXp3/EFxkfYMwBWbWFskda9GOp1D7Klm7g+dCYjPrZaxmTHQ2+7/hhSOnLvCKBGrEN0QCJ98/vm161M/ZtIFf1tZ/zKCKZ2zZzgawsafLfMgvSTjQJh+enF5CMiFvfGKx2PS94LldILWld80Rvrqc8fll0ankrAJllfiDLMcR409BjUPN6sLlOyE6GbZ4zrQm6kPJ6kqcW8fOZNN77fY0g4GMMr7it6vGrHOb22GEYaB3+ubHvNPe2mNCCuVzA4F/OssvDNQqQb0kO4S4sWc5EM1UUUwDfAjN4OEx3t8ktZgp7zNkgCdvXRVCDxhZPlR19+Ak5txLuzI5vWQbD+4ZweHRFl9ar+rhDOTbbbbbbbbbqOoL+J0rQRyaIOlHZm7bOdEsjSsTJl55ZqZRWwryAhPzeQReG2K4kkoGO/rtpIYvGmMQKwxQ+iZdooOD/y+PAT8TFDA8jaMhklmmg36mVjkJj49didLcwHweRNMFloQmNva77B6U8IndXcOxbtwMX5EFn4Tgz3OnC+1TeAVXVU2XC0Ta5bQ+ez7i/07YY66xAs0E3v9QhlFHkhSxUhaIo028/KZOqirjIrp1F4DjZNrXAF4sFrlcwIZKNfdCJ8LGh1akQS6jkTXvQ77bYVvtFaL4Xt7k7oFWSS/ndfSEQrroSsNcPMamoCeVDgww4XJfRzt1U8EDQAM23aeATeG5ZMd3/YzdOFwEMB3Kgfy6GjxvfBbsQHe/aPSyQS2I1+xjpnL4q8/zXKNOOxoBhCT7/DFKLII1dd2EAO8qCoRPuVvICsGP2g9LqByAcvHFN42Y84F9rctqc0+miLPa0KhaOl+ZYwQ+xVfRHfHDhPXh1OQpzS5luWi+bmtcZNuddD/3TH9wt1X/hl0Sw/lKblN/EUS+9BDuC1MKGivpGiEGQycEzMAH/dXh0EauJfmv4oG5nYSK90O3MdtaT+/VmdmVxvudax4ctc++TdK97iHe5uwrf8ipAF1S/fvUNY7wSBvIvTECR4v0yzc+gISIpBFKqqqqqqqCFQB/OHBnGukWGsvnGo2TAnAtMgkF5J4O1VKr4dpynF6WEGVoRJOpo19zhgrX810YgS2qdtCWa613mWD/ma17nMzH5Tb38djCwbTq57nfUb184/mVUAk/NtWuGAHL1P+Tdac9UJQnme/2Zr4A6JbZ3zEBE4RD+QT67zhPToTL+CDnxp9w1ZoJ3ZWO7km98CiTlLzbUFsUr2P0DHZVFIvxStZ+aAHEHe4V/KCN1pIp+TVrnRd3IJFa6OZyxxfO6m59h8WX5dl3eIra3Pm++rxJ5tpwLIMvLJJM9nkZZzFZJLG8Ze5FR9KOYxd90yUHKplHp2Njo8EKCqRhYSNLMzMqvHmjxhyCaZ76yx/jLF6Az5XvQK14kGbqJbtEywRnKli8gcA2o4aTqe2l9ZA7GFoaeGQI92XsfDG9tPwYBDsRUkhIxlfktyP4U3BOA8WnHdDW4iOGKcntwZkJJUGmwLv1kchowg9k+UJF0MGjvbMeA92KHDw3DOGWmfL4b7YZeC48POVmhH9d5gwu1Cq1WWR1Ae8OKq90JRxMmG8KJBX2w6fSJk+LfmANvKYG7E4nT13+O7rwzM6s2b7E/USXCO+btEsW0TfHPBlysSN2QgPjNCV/JEk+c1q9pijviTKStH0Xh1fxZsaudPATuXw4uKxgHzsIP0/PPAcoOQidKqrZDHgX7MVxeFH0jP4kjVQIZzUSvVFkwJ1Xq/mIc78h2a5dKLB+CPAsePx+BY91Jc65IfeC0bElxC9bgKKRbe2V6V1AyukrRUVBOAYhGPyzFEUoee8h2BZlIftaljWvf0/00Vqqqqp78JzrW82Xxy8yeIGbOFDRB5Cym5sySklaZ6rtPKsaCZlf8/UE6527HU0+KeMUJM6o7HzWXV7sy43gEpxe6uosxSqqrO7mac5Fa+CB60nas6k59YFE4PspzchYe0EVkOZbOr3nvanI2NmHs6sAq6iDqDN9ca1PbV1yFCEtbwEtsjroRDYE/YZMf3S2Weg/fUnMtQS1FMB1c+DgBWg0CAhzSvk5on+CyJH5bgFZnqsVlTgUUwlCjp2x/2i5F7QmX/Fk7cXb/Z3bt279Xt+4TtTUzFRbUD30i15EHAxfDVr9Ff0AuEyTlvpl7j5kPfyePe1bFNWtJK515o9F/R2l1dxJwGJY92dTIYlFxIJCyyIIOlS6hBcc81JMZS27H32RyYormMR6nY9c1GLTqry01kqiuaIEtn++BxNW3MAiqAFf+f+HrmgdpxTR7/zViSYjy0c4kjVb3nEHhXxIM7rxx9n3t6ZG9j/JWftTeul3/2bc1hg2E49qh9Vf7MWXbZAgTZ2Kw8V0f75fqoHaDo6XjeuIbzD125LaAB4gC0ddCv8SWuixMvGbz58dUyOe5FiPizH3yyQfcJsNb7gwnskP7vIEs5+yHCVI1nSFrsIVVcCicAtXO8GifwNTUkltHbHjs73knM6IEv4k83GXjIWNkzxvsWETiDvY6VOa5mxAmW7Vn5DyVU/DkqDQkqdMG+iZrdXQ7dIEE2gkWksWOQfhz420HhGnVxWt7ZHnsLzmxPEeuQ92waQeQ5zd+eh08ADqZFeGWUrYWkVcttz9zgqeCDjad6mHjwlqGkV1SKrM0uMmJlqDw0ehwn/ziXQnfe+Xg0TP4gpcQbMTT931G8xm7BWfgebqKgEU7XuRJyQh5ytvDErLD3eozHoi+vRGuXqK0KmURo2rGwoskcGpHnhLj6q1GFwOnUReKOEqo0Ntufz6yLw11hhcwDeBuZwxNi3Nh2UAMTzF7BvTetWosYH04jLjQZIAW6lRv+FMLViUdM5jWktQk453mhM9ZrDpLiqP1aYpBWxiAsAT8eKRJJJJJKMY04ABcoYntEuhHmVdVr0PJxyOmkaP0f3bsdth2ptPWCTUtu/UvcVHcanSh22TaJj/tJzvlmAWE2EcuEic4M1EktC8K1NJiWnT3jAdBwl10ZL2QafSyzdh33s3r7F7PloYh4+T1OHp+/fe56ZWmVbvk0RQjOHFnhIikEUqCKVUEUqqphiureVAArVmhY7HsK/syCqzfeAwdFF2kt/7R3afgksB3dsIKQEpfilAobVocFn9P+0q1QN7v3g8R2Z1JXsUXYwB6dh5MWXkgTrh9G/5cFvteyWLA2z3r8liexDBmigRfVHTqYnQqOjpKxXpXLiPBjw0Ee0vQifN/ESIIbYWBTDjMFrZiFSgqvM9wcCSg+bDHRMRHUxP89AM6ncEFM9FPltKSIXI1bYli3JjsZqGXV/JdgVXrwxy34VcZnlw6304xZehrMFkUMLGeXA9LNR3RMm8NfOsOomm/KikXQpXM+Di2mJT9Duu2VPjS2DcC4v11m/3EWmIRh/4jzYWGq7y28ClUrRU6VLfio3qdMWjrN8MxF09pM/5Uc5O5nQYeRZeJ8HxlMQBlvvTGH4iPa8VIZ4PHnVB61QTbdhrfgRjgwiLV7/6fpEVlt0UecGgwOD1iSKRly+A0UDg7M2CQoNQ1aQ3yzgWVoERMgRJo5Hi+w5kxxA3m9rrM47UcCr7U0wJT6LtYnlqytQpnnsUb/lcseCKruvxs7/bGxrSOf8qujifZLBDBqlTaZqvNmmGl5jYNj/3MWg4Ef8XtWTJxzIpJwVBnGTkLzdMJWz5UlFQ3ZjMS+g2c+icgdr0Vr3QKPOUetqZZ4dd27KcsPV9OO9YufRBqtYYQSAeN097hQzULbgzbIBrF4eBIZhTQWfyRJt4QbQRtNZJs1+buhAn5Vy4/6If8fkdf9K8AqyKnUgxalaHBM+SnSRKsTj7fsrVz9GiZIOX6W8AZVNr/63c6jqebQRJm5j+uS035KkPvnQ2W1nqUS3UpnKuXWzwIwkAukPlP7bHruySpwQhrctrZO9InCbjAsdkw6fH2prwpYSa5SQdWQ1cQPPb4Sw5cKRXtpPUCIKrdE16mzDKkdLoK1Rkk5ha5Lj8E3hiVZpFDqtg3+dy6qQnztih/vXerylEQDZMr855zLDJb6uq7RAl4zJ4gqKk56m52uXkHtQBGYoV7yXjR7INlbpYdgqJYEgVtdQMTVpj9xBifevkSsoZRv2sWMOJET4fhBhO/1RlVDp7wxLnNwW9e8L84jb22y54K4NqgJ3PDElgS1VgPtoH+V6EjyNXtmEn3HD7uc11rFep0fS4YFRpddaQJcUjilRxSqqqOMG6rwh1qz5g3RzNFvKZHnff/urXGX+juVtdln/asERkYywvMsJ9g9TyDFhAKiC7+MO0ObMr+kkKkx5Ndyl6rxtl8CLbkRyzLqK8p2V1dFMheKjrs75CfEFNDhVq5QfIgzuapBj9bx0aRQOaSeY6enXs8MZPlMcAhSRduxc9gxhbh7ia3eZeadbvWyCDUwCjrC7cSwL4qWG8Ez1bzV6AsmUFa6gdbJtBQGiFeYHUWXzriEOPN7dqDfPB13fKNYKkbeUcI0DCectNJWqy1RO2u/SBaWaOVEcCPFSVZEcZ8pIzUgCyU++gGF4XJI9uhntNmSD57SR4e6hGO2boRLPHcR4uiyQMznX6v9g0AySo3NZ0hbhYA9cKj6Vx4UtvYkrketAleHB9jK4ZDSpi73K7G0zuyuLlX7LWxv26t0AAAE6QE+Hiyd4o/D278sL5ggPFda/1rcYX4m+c0hRWFigJysNmKZZmbgGN3IqZqrtujpuVDnrAqzmm7nnw4sWm0ZPHBx7FE9tWsO9XewP4u2nKi82d9G7PZBinBFwLMqbLarLKAkMCxpFKOuLzHZnA+BbCcFhGPZPjfXYYW0Rkqg9b38s/NkyRjtauvt4ujCidHJIGMxIPs+Z8PTd5ctYzWAYexQToo+0RLCkR1LrYHidoBr+qqpjHugHgJh+MqXgaAocyqDW4oSZ73EaUlQG6SPDM5ZC8WE6tbl7lX+kA0Dd12Kky1kFQ60F+aEGEzk4A5Z7SVbmT2BWME7UBuGDrOgNVI+2kU8h0rgiZxW66qGO+bGHqQ9TSF9dhfnE5KKxjdfwzqW15MU9YEd/NTdUOEuYRNZupvkeHkMhJm79vWLVMkdaKonAMacz6ilVH7D76m++H0wnOoytPWSfsA3Gby2IpuqAhzqbzuQfiTqTyJ+Ug7FkyaTL6VMg/VKvlhoIl5FbbZnj0buI8CII3rX3rwRrFc603DNaJAKIL6NVXSS8aBl+aHKuxRDYBiTvm60Im9bTG8ZU7AI6tZ9mUuxrAR7kesVzDTZqCSWJQENf5Hd55X3OKAcZOhh8cPFalfLsSXykv5F0p0kwjxscTAwU1powPzyaai9Eqd3z++LItUDctPUIm/Ffs3MCmTTJoGuC/LbyXuOmJN38i5VX/oeevobMVJ/yYg3Wu96vLg+THGw37QoC+5lTXsdL9WfcOtlNbpvaqzG3zqS1z0ODvF3iMkN5tWkn1BkvGLZqynVVl47y4GFiD1ztzN7f8NnMMX2rC05P49zzMD+qV44t7eD05XqqlXN66WikpeUMHh72FRtxD4C6fRtMLHHP5hRGoKZo//ghuUiELNkxoq0tC0biiouxEwV9Yc+M5Qd4uTkQ9OXkh2VuwzNjyF7j3XKxwlZuM83OIxrRucgbCBqQvzDnkVOvvbBQ1k/zFOEDDbRdmVwcsKCYUfq795MSSkj3iYbHzWtkTXe3u6mhYvn7jR3s3innFOI7F37r5K0Me2Q3LvTLnScmB1CJnOHCNPhOiEMMuO7gqx3+y6vUxGehcHNX6CwtD+af+/0hDFYBomGdy8Xbwwm/JrrTWCQmjnyq/1FvEsHOs/ibpHucqjQ1Bgzkj0DO7meK4zp0G/6uJ7YMocw4+J1C+L1kg0JU84cb6gAxmbWGraKmS6MgJNTBIK0Bzde+Wt4903/4BU8Hif7ZKsOX9ZJoLdncXwM9PeZFJyT1kzHU7zvF5x6KAt8pbWenf6AQ7PQ1+39gtATKxgsOI6v5ju6PT/nG7BFo1CE/VF9GulaLn09bh6XTGtMvhTI4iVgLxiN7mO1VYt63etBBKd2nO4QQaWxMh4T3l7IazQFDO/l5a5HpGC0AMPeWaRhDW4ssV////////03vEoL2TbGtQU/BdAbOlCMABJSd6S6zxLcJ/ghUFb9jjIoUVqc7mLGQhGPPqZjCQUmn3lOcb0oWb+dtmzyC/cH2DEJJQkXpWQo4bxUFeFciyK910MeC2nDmJyroBdXzKoL/AmXpDI4H0NXlUN48Or3xWbPEhlsfFaGxM5s7vV07UNYJ2GwN7gn1vbbrs9oVcC/y5wkvk8QmvFN4HRI4clFKRHce57raQ7avfEd/Nxgwump71rwCZ6gdi7pUXRqJ7SuQdYYX0nimvTCP0z6fn1AGC8FgXlyU0rvd14mYZq5o65EkO9JYcZpYE5L3wm+g2cCfruASUsG7a6BkKNUog+Lz2z7PwQ7A/oih0h4npILbOviXyWx1mygaJ3RA0aT6mJk+lI5HhlxOjFIxr1bt0f6bSdsU51nj6Cdl0jfsI/3gcrZCDxjb3WS2B+WZvwpf9LDTY4wbZohZmT+7IzKy8gOr8AS5OWMxKx8fqfmTSXmKNfpt6TkxuGoWV1NQeFTXzr3HqyWOWG86jN9aMU9hqx6BFpJ2q1tBrtcRXodxNgxSawW4IRNLBp8316Vo3ACCrmeEMvDcWkoLQ56a/MZ235Qae5M7ZvdWRqgRcTT0vwEgwS6KFaPChYgbRoVIngcQl/eEHxcAhW2Yka7SoD1mqLspQ2uCJrUH7RDD1QKnz0LRO7TQVXgHoBvZQrMPZX6qlKjyv7C6Oh3qzNxciCn6flxLU3wUOYv0tdcY6RdapkOCEL26XJcFihM9eYC1L60vI9pMsdyCWerR0y2PsN7EYGLa/anNoQ7hagRM4rYpWdQcmScRUaImTyjhL7Yy5Bepi9eXTVJiSzQf7MJOYgguJ644zPIiJ276jpLtYae29Sw5S+r84cThv15PqwCCU0jNVNgK/p11EmaQAW7UwZV8ODqtCxm9TXpL4Q7D5UUVXuoJHjR+ChTmffXF8f3fidlN4rk2DP6Hz5QZe48veQpE9LZQ5/jA/3jAgZ0/GzIqVHJ2zLPqy01Bx8nA8QA/Wtae7CeDdUZyA8tygO1mWoaeZfC3EwmAwxGk0XUZTnx2nvbJgOpMh+KBeHAatA3yVNTWck+4jZOMs0emsZiDJy4ZK9VkJpDvhMYzV6PcSO60cx3kRNvJi8NIlJTiOU9MyI+hNQRkWNp6RA54xzWkd4oxn1u/UdBcmo7PACcqlWdT3iOUQhiCj4U86QNXrqaQH3QjEXggwEpUp3zxRJhkOBVhcPbSkbi9/tIr+MeT8+KxYUNnFY9S0gm2rQ+amegr/dQ1PDrfh8ykBKm45N2H/3PsK+nfPfitTgcH647luAuIrlxPGEErIFofMEvGB4ibirUi59JCOVm86iChbH/ncUMBNOlmRW12HZBJUvda83ON6iPn3F3rKgfsr2nFrevWbYKN0HuLUPf9wokI1hVJLaVPy8C9Ih7MZykk0VCipi3qmaBxwc0Q5TVkjKPMoQ7oihvFSSteyHOrR7JdNp2ETskJCGPn4gtA/NcZbLFvihIkuhftRLyrdWqb0wf8JGyRNOyv4GBQwmVey9Deg+J4fC/8+loLCLGvuv+xY9xkm9NtjAirypoV5IL4E2hFBO3BaxNPWVWBy0bdh3LNGAFlHm9DR5HdS1CPhxCXUq/t5kk+t6jksa+6PLU0tJvTXnR7lXV/sT+0HbVRsx7FlUz00JQnhC4FfJtexaznf7HCezVkjbQs6GXw4Y0SSTBoiXrtWK1wRg98TzifrtAxzkLVTHn3Wec+RkrHEemKOW+1VqpCif6ZZH+9DDJDWRfgSIN9B7ot9JIR1IzWB2hNiy1z9ls5ylvD/zgHXpmAkReouUTwPxYuigxjaRz60bMHIhkXgK6h0zMaVBT1ms97hpdMY2MXe/HqjF1OY0JmC8IS/iqM6FCAU7etHLd+cvFSJG3R64wnNwVekg2LljshzZDNwLolV/TxX4990hebWfNpb9S9kSOHTZTSyKLdRe7vnOQ1+9lda2Kv2n+rwv/NAhPjcUZ30dHkbW1ZDVDwmI7xa08wNYelPmUmqEUURUZRPTHBzJrIjIcnAgKZRCRUR7yspzORG3KUAmGXqMS/QZO4gke7Vqmu758fsZhcsT3skBdYsAlov0TmTSylZZuwAJbN3tOdhouzJr2eK/kiqDGqqSWySvTW4a5rtGzbHw3oX80TLLLmCMXTHw5SmMVmJz3ueXK3pAk+4OBt7fzgEwZ16h4gMLDvVmJ7Ba0JPNhbez93i4b+i49RnfN4ADJaE5BkUdK8t44edWzmteNSXVfCG/oFHxQrHs6T/siR8duYk1NMSbJb4uI2t4ehrhQ21rfjNMoNG2k33ChN06fwqW7OZDVKoJ8Hwjwj/BfgWmthZX3X7xgyree/EFU81DdNseCpa5WWBWCOJD4/yW6t47x65vMhTwrsTVci/Memm1B+p0cy7JgLkbPhfsm28CWkWjKJmEU9yRe9vNMhlZTHp6CyqTDPdha4zrrdEBoqFDLAAAAAHUeMXzR+eorID85hJjEovC4akqLqqIqytyB2H29hBcrDvjPkiEhrycQVECm1DtTBXhJvv+l3JiI88J4VUWUMY0TCpJvU0s3BzTWn1gp5WzLTByLn/9Bbq0/yfh3vk2RIASNNQybaoLDwJZULR8mk60LVaJigZEuUAdtXEddxwKdhHtrI1Kd9l21TVwUfgtxt/H8mmsp3Flo4jKrljvbwshzLTQ8ntYckTac4+JsjApFImVrig9cdpJNA9wqk364J8RLXHFanZ4gBvXaZnDEbyA4a1RZERFoluWbyB+wQUbZdDm327Vs4LCUYTMWpw4gp8iKzfTy3tbllrAi32q7kyE2ztPP5zCCcBnwiI/rujK3nbQ53CxuK7THIVkTEBDLFuCHycQq1qHZ/XkZTSuCVYQ9/tx5JuU2BpYmciB2K+SgOizLmBL9AIsWnzo44/iBKASNqzhaDHbfk4ZRX8Ha8MtYZatpD0/c4oonye0Wnj/7Bz11x8slyJ5eNcol+3b8QbgAz63cxxJIque+Y5Ld1BKP7ADrKc2LaZsTm976nqmAGgh4cMrcGKqrIcVA/M7/8J2BAZNKFJ4oYFHvmpme0V3JGnONuB12DUQRrtnJdR89EAo4YyYRqBDPvhKT4CL8EdFqkrOox6LRYkqpLaf2JZ5TJF/CUVsSHIrw8onF2MCot6oZ4uFGUdIkJMVWAAA99yMnjuCaAdsxKgYssoOh/WaV2ncELoiYW9mEsrpzwx7F0Weczd9/9cd8wmTieFWB1/4z5H1GqSzoera7K/Zr8I1WcbCT6X54lecJsGc3pjquaPjeCAf8UFHMjyGw41TJRep6G7m0W22AefUAf8hn5LGycRLYyAyKo1lwMMQdx/HoMv4iD2GX+eT4j8jA15yzLIpXXhVTBOYtaCa0B2OLD8Y+PsPupAW+zZoN8ckjR5TFUoeVPJvagfF7mKsWlYoeo6BYSy6W0Q6xrCG1gkXnHQmeWh1GMcDt2mdSqqrYrSdROa/f1hhP+55Z+HF17iiE5Q95FVOe/H2145c1QjNuBc8siwR/SgqlbMNYM7KakJmvX/VXea1NxthECtq+66QIKgbw/pTh24Vy9FbC4fek810yvvTenvm9wFLhDubF3qbjp4J178mb0DONCEXNhL6MY2/hJlNkzIDrqH6huN6ixZBcPdCi73kiV976bw7l2AK2oGkPj23mlZ3DawVtctQ1O6v/03Ll+KeKM94Z8BakAnEOkFYEhP5pqBTAP19N0CLWujaxsyWJemluch2djgR5T7Y3jU4FNi/K3qNiprkB42WjWZ+7pKy/8GS/8BF+BzRtMqfC8sh7KOXmK5K1jN0bQGHiKXndZIUAD+4KiMxMqejTuiTXyAs+tlcv5tD+l4wvKFL75O7zrILBBYMQS2W1sTyAmFDjQS6R8hhT1wMkO6NMlCKBHc5XBsrlyy8rTG3icxq3Pu0fK3A9oTlU5+ZryHSV8wvuXxzcKT2RNJQE2LjDisPtKrH0EuAtHR8YuFwL9LRlvkgfnYEVLQ8pClTfiF4Tg8WEqfHLeFuNunNCofn8ARgTh2rmPZiHAXbGUTPPbNcjgLS371siroRIlt9JcPCavXAv1qG6GbCG2Opwp3lif/PIawsq1eVhxV1OHJZjAAAAAAAAAAAAAIE0GSoZy0K7pzq6farpDkqg5r793nvJ4iF5L4pyGcLoCZ0FGWCCeg/BD0P+PCt5oO/icENvgYrf3Ax3S8yVoY0ZxZQMgUzWzJpfTemHlp5/OW0+DR4LXIE4OmI8nW/IP9+xMMxe+pnCz3ePiQgayA09RMPfL+S6EamHOqoQyNfdcGkGmlDxHlUrp6vGVzq1m2UkPK5Gm4z5ZsCJxmcJ/MvvTTG1KfwZa45Gvz32dmCXRrssOmrybPmYROj1DDzONHgyXmMNdHM0eruzO3HyXRYRzoscg0HanWtToBUOm1SVGiMWqAb1w5OkW0lN4kc42ZFDRhZsSvn8KZ+G2T0CYFhboOhnSlAFfZIeHZjhJDyU2yOc5AN2yfDMS9xlBy53urRpOmrxvpvCYZD63WVnJYaK+IkRksR1wiKxRZ+FU/bUFxOHzyBlT+LGA6PGXkMddA7d/lGdqI2h04hmageStuSAf49Zy+nMHlon4P4jppE0YlZu+pBHHT70V+eb2N3OlN7H5JvVNWbbt9ws0A9bO2AGnmGO2kFBIjSTwlKUzk41PvWzB4kz+5eua6HrnHBAeRRqC1CS9BulyRWT5r61A9j+5Ve2dE72Ku80ET607dsWxqT8pR8qsishjZMlMZNCH3SLjkLLw0jsyTfG3yNez2do9MG946jOuLlPAwZoa80gKrWCXz36rwN7iRC2xxE8WeNBmgk+HF/NRyWXasUv2FWRfKHKAucLk4mZ7EOvcrqkNQOapw8hw96lfdljp/Kf4uXSjTh/TTg4EwxrAZHbQQ0YdcapDSHbS1hNhDNRqc71olAkrZ7ph6Z8vMKQK4k6bsoSDps7dlKtfsN46l9wZndBaIvJTCFrbkeV2/919P/xc/EEo2OxYlQx9F7JkEYXl0k5fXVY22yfFqhluoiIrhUmUFO0Zqeqm99MrjVmN7gDNzmf5NYbL3OWMfo2yowIVb/xDyd2CdKlELRDboEgoAAABucShKOi/hxNb3xrjWPuIc0ehjH6fBV2HiVb0MnktuseRW7szvSXYyMHp7mNSl+T8hWmtG+ldcg3yDgT2qHU4p+b4Vdna9DKV+wvTBchwYhkdqngeVqi0qgWWAf/yDVStBDRB8KxPjSBoalDjHxx6mBN9A4EauMB8RYqlq76lhPl1Vjg2m1yFl1HP4QGr52LaybHjq6pK8gMPHwpy4yYPu2MfZRiFZ0MFtL9iFyZwHS/wlPKZl31VY36RSorDlGgHOaL04LVefOQYe2D46Q1EJ7fC6ANbjZmvNencvbZvNmjd+Fbx/IP4P1HcijCqxOTS7AQF3sK7CaKEn5B08hyeoMT891TgC02UWxU5B/utOX44tIvb2itlxMQfqgVJwx1It92w9X0088k5bfjVBZhOOGNMYodwAXYmyK7GiBotyY6n1AkJVUnM09xCg/3zpbZHEdN9Ti8MP0DTwJI/2mTtcxdORjX1feoSBRkVX7Mvt6IAKx5xEfny7BCmDfbd+177vxf1GId1yzTvPAGnvYujYi9j3pjL5qrmv8PdxS4cwamjv9SznSqhJPyGigSxeha0plTsEYyKIXkggaG3RmTUJ8EAjof27jMXcEh32Zqej5vyVRr6IousMp7z3w5j036xLaQHuk83zEPGAhwjXnMUjoy6htl2Fphb2MtlF5FPMYrPvFDTb7NZz0nmF8K8hY4PrNRcMIsU0TILYth3ztpVSlFcKFcB5nhDuxkYFc2LiNabK7ETfzWfdrSiU9CdrurFm3Yp91FjJITshWRX5iuSnaytITP1ieyV2Puq57vvU0hSsduREHSl4KIMB0EUwvpyCRokyifbrH/f/MeXCyw5539icLoFddkwvZpSHgUTpi6zg1AZ4ymWFC513MqRdv6Fk0K9Tn2ZZlKEscjLVFTK7EsZNUFrGFWFfs04mE2/JjaTNb2TpRYXTOdyTe861ZoBzDx6KAmlKLGxyniUhUGLPQCiAAAN+ldFhsEPhIjEmsYqASmyB76y1jRnppQiMlvRHzH3dIz67alSGivwT7Ds+x3d+eI2pUMQXGm08jCbzK8TTLdJP42MYkocpTtU9Yn2q7/ad6dSGhKZNxHmt718p8AMlBs5Z7ES15+bsIK+C3S6ge0mD5rNmypW/zUtDR5LY54BEO6SO25kCgNSsXyAUU0v1cFXmXbzSj7swWNACZjsdIhm4dqqX47inlP08tkC60/WSHu0RxOetgNphvhWSXTvQ9qin8ke6wiOaBWgC0YTkdkzQ+rGLqCZBZlNNS79piHhVXexC5TPUFQQ2zQJXP59aN2n4cyfvHqA/aTL0inftxW1nTpTeGapb+4N7J1DgKYiIkVaMVpp5mnxVxvO19y0E4AyP/AZVxv7+EETq3QBEanVMzrfpc+/pph7h1gQK2mhxaoum5cNtFTpCiIBFTHkyrUOK30kQlX8WSnrvhDiq0t0FxuOOOUzW0zOEhC9VVQK1W7Z1kUO2EzYIfjll74a1U1nLfZ2e+deyNl+hGPfx9gjzGbPXYtOIHKFxMTYFCdQsCK97ys4h2gvXbl8wgoFWyjObIq1YjvyNTvx9MSnVTwH76EAEi6Jo8aCdrAFgctn4ETo/medVr1TMIE2PzoW+3uJBikeOawac/wXu3f7htKxCODgYixexpmYvZL4n94idQJPdwC75+wfVLq6rmBjeqqEqLEQ0D76Xr0vrJ4un8IKkZ0J0WiC8Fl9GOOOpzp/W/qqqbf1VTbrup7y+KfxXneVxsNImDPLasMvO6S5FT4c4x3drJE4EoJcEJ1752Mz4HNnhGSs8BNCCrM57f7I/Qtlc0GS2xEcljWjxzae7EM8IzZyexZ+VyDNMsNqMULpKE5S2CEOyNdTmvHqwjGAv3p5KZQQ3Vq62WzHvJILuv2ESat2SSmidoczv7obagpBgY8kpkTH4OwvDBM9aXH9y/b4798UbJm+dBaK9m6z1iOmJbp2tKhYpVVQK+w7fNoXlH59SiNYfobswz+8Dn3+XKJaCh6OUbZArxdpU0ntqvdZKP1Bskb0j+UXBHuAYcVtg49DlUQHtEd0KdjWCyuUdiMIZVyREph/VyD5MRZJibLyMIjgACb/rEjAJuEzutdSlXRnuFI+t4s1jGzjzcOu8HfoT8noAZ1qTX7fPTyHKh3tR1cowenYJa82h8Ungdm/hlz4hqCq74qYDIBFTdVOq5lqZG1kCG/lDAN/1t5t41s16rvSwkfSRRb7bXWYl7SAAAAAgWt1xCWg2TurFTWjQN2V1MZbsknypqu4XQ6V2hTNVLn2C119HCT9nQPdvustBHU6rNbyIwiBAVogZsNan554eeDM8R3RHbd8Co1FmVONCkUtRkdO/ZsqxbFDfWRnnK7uHP3xG+u9ueC6CSay3ADKIZgKEZ8xTg9W4/HL9TtL30i8GMkdH3vVSZmfpgCH2LUaG8YeSBBC6hoV1BrHrDXHm8YdHRJltVSjm89aVZBS9/yyxTRFRwrFGe/dc1hgr31wT/bz3bRNbX91/gGabSYE6B+B9dw5XNj2JI2SoZy6MlzYUwUnzHx2ZufvAxRVZkehdM8/E6WElnnBycBBaMR/7DAoZCC+qAxLqGe2Xe0SHmRC5Uf4FxRr8GEdQ0Jt49eSAV0B7LAPs9oxZd58Js2u9sxJC3pqgAWZJ4z1LZKHVrxMdRFn2MNDpdC2djpweqlLe5IgIX7QQjafli+9eCZv+fBCunhwdPCJtiT6hziPT6gGQ27Yii3BgylRvZTT0Ar16yY3/+JsvQ0p2JFY8bn0sUtoN+GZ+A20scByGt8HUIOwZt7FoArR4GCsErGai9/YUKkir0chHCuRzocGPZaUTBn9L+d7Z5PjTNZeM19bwpmGrqjv0g4pMJWbQlMirb7OmF9YljB8k6/RIKhQ7NbwGfyUt7Cs9LklHUuHBOv/8ieUpsTBQYJHdMlejCyfWMkl7qNjF6pA8JXptgA+bmxsqknuGWpGG5AKCi5fcXv0VmPrt7D0XLZVzq1OHxWcuWQM6fZZ3w9hbZGx5H0If34Pu+vqYui+ebEJ76Ux4hyy6x4es9njk/k3QMV/JaVqmEy90z5brV8MtDBVwRKjtwLvh7gvhnKt8TNr7sj86dU+FxTfySXGGQIAN1tEk+QCklP+tDjCeCXJPklL8EX7ZOwljM/jg/cGO+naI1+G1pi/uZvQVmN8qqtptg32RlhYowk5kxcPSBCyjjTnRiFxa47WHWyvvB/5EFJkv194inpgJSnaqMuwym1XfeamGVOkxsa98TR5yZJgyuybYAa5tV96Bk99Zm229mdfHZ1+5fiyfvFZdd5fSxEzt74390CQ2EeydZogCuTAx2AvZ3arqSSk04b22Z7JRFYQY5rm81wCYTCwG2TuBi7QdYcHLF+GyZ/8ZImWVDmF/iY3Ys1z5+Q0MSSHhtW+WAG74h/k0NXU1vwYoX5sM0Qgfp9N+WV4rTzJ3KpXfgWjkdkOPAYkYQJCdH+Q9ZTlgFmhgqm06KXbABDrSMxuWND9Gc1J6MRnVg9QO2oZzHhHNmU+LPzJH8OCQkYazlYLP/3b+28LHNwgzFPoisSMTr5BXPq8jbQnheJB8o8tTILsyxOmnsXZLSlZSrYZ91n5vBvYn8HeVG1lTJoqiBByvcMNW+2911wQesbpleWn4bSUjFs58cECCyMEJCd3v7Io5Sqcmo9RTvoSO+Rw03nMbKUgXxz9vcja42vvK7YMTNFkPS9YZANBfRc2AnkXp5s8N3tHgJ6bCDQonsTGkzIgRgnon0GgDDs8jMlIm1onakjbtBgJkn/wei+7DgBUhZw/II43UWZB98wdOnjcINPBBM9nZF0Ku3OY0hrLAhXKd+L3/////9X3ZDcJvo8H/eHL3BPj9DepHoXN5DuTV9uflhmHQJ2sKLv6gki9Neo0PaPDRwN/wNrowB/wSuL/WLwaHsBQADwOgQAAmTntxhgej/rFXGyvPmZjnDIrUe6i1rybDZef28PcJ0/4uojKqGFIIpBLbfDk/sbcgVvZqIHcBDp8wkw4UfAkcWnHXCUNH6Vasj9FNxd3fTeMjqKT8k1smRZN3KjQxEHT28CweTunqGTy4Os4UnCfREhnrB5v5K/Wgnh1HjLMpR+jLEA8BuPGCXleAtsIl2JZ265z+YNLXKIKP90DAk/gw/1Xu5nyst0oUbcbAZdMTFYDo/CTARAtUQArZtTIaKpmrtTVkuTa7AIn0+B1/ONzBENNLj3OnQqvXamvpRuXxKX9m6tJYrKxcVUkZQyz4QT23rXOjMcC/0UQjDq3nYj0DdN9AXEYkWvE86r0N+M27krPnhXqu+Ko4kPsV/e0bGXRv7FXzRvl9bPx4KDNkHkZIuL+2PC1wAtfYCf5rFJQ6/OHXhgrCAI44rgJQIL+RjXXsfeLPRcXyakGP8355jDGQn8dlpKQzm/KTmrqDwAAAAUx/qlrrWJG9oG8yX37/jqZC0i6RASCY3+dZFKR3RcCxpGHaQhUpMF9HMlNreTBhhgsy/ZMJjxkQpuq+F5664OKQuOOOy4m7YlftsPBHB2FzCHIHqkaDCIIcqMbi1N5EgpWtiYGtgdu8UjrbcdntUX/OggZTbPGqAo+sxfKnsBkV3CLB4XRz6pHvesSWX+P8cVZCIdhitUm7HW+zD2EOnhsZXMLtRhMBgwYeYXpbwoRGzjB2HT4jHupgBxp5E2kgUDG/OhNGaf7Gq93ubUCOH69JaPnoM8eDgP2vkyWbf4FRAZMOHZYkiSQTdaQtGsqN/4CiwyV4D2930DjAeh3gxIVaoOVy58ZlUC7xP2ds6zlO3JtGi9x3VRDTb2Mom7FhdRlPpEsYB3NNC0ALNxwsRzDNmrQxNpS1msoXFZFp02alHGpeutTG5nMFKDreHntql0xLt5rEAyqiZ4Zr7gXebEoX/qP5xU/YbK/QCcO5XbhcF54Mf4t12fi8aINU5UBeBjHpq6QddY7Qs2mKtV5oJfVWYuatqtP0jMR3MudR9mzy/tFbS32THxW24Dhp7/FgWy7uf75My8bidkerTbywm7sNit5UNvRwftJMVaHVZE1CgD/4apC+8/K3IQEWUJnY3Xvc4Z3JPvCO5iP4SJcw00QcwBohRnDbWVorrzMlt5QdEoJHrULDYZPFVgkyBPLjTsD2GEnKw7kd/82fP7hUYdqpJtizmS4/22pjVrJfP1MYAvSg+NTTDbS98FsDw/NkkAD0PwFYSsyJkPKPk4guXsbKbg7s66Y4VgO50LexQatoZnRA3n2Xc6sHLtsq5eqGhEu6J9rYkORU8bWZlwtF0EfxhSFivyELQOw5sX17Hx5LP4sO8P/db1n2MYjOnbWs6dHRIVGZnYlw7fKGfB4g3PVTzsz7DIqcxDFuKqvVc/Rt9oTRVVF7fNw5f0B85GDrwSqSeoXX8JsA8uoyKDKqr8AouI0gYAAAAABIdx1DaNo1giKYOsc1rP7l1yFBPeVqH5bU3gx3unysJsRRjzhdSurZIUCbjuilspS5epVMaCzhgXcOVb6PD0utp75c4yLkr1ZqOJ7o0vwxuKS0F+vTSofAaoyPDxkEzrVa1TTFAszutNQCRC60+RGuWDm9hqLZ59uXj599lXCEd5X7D/aD1ONq0FxCjk9F0Ld3hJW8vOpLlD+hqp0KGlbRJS956TL7BXJxUNA0+18K3n4qjkVMzprVEcSkeKsy2r7h24u40YuBNbIpEpRxMtdAp1xKsxkyo86p/L3bU6DNZjFXT1nOk+aSFAOiUCGJQ3SgY2nteRMl0khSXl85G2BllRIXirtdpcqSx02yldriAV6B91e2cxVwUCexsNlvBLOakaZBrE00CwXTdijbe416VUpV6PdqAFtNHBxctZb4hn+9pRuRESgsAb4Gs00tkkLIpFpYrKc5SoKxsKwWAi/p9fDgkMOZJmh7zPE1UXYI0gh0pbchxMU2URQVh/fZleisvrOdk6m3DFqJX5AAAAkunT8SNYdwfga2/tQ7rLUi6Cu06x9Jws527u3rfHhOJp5KPfEISxBIV3hRa5aSR74LMDZx4mzsA5dv6S1ud0syhQcENFeE3YcXKYXRZgWrJzhSi48q2t42jTTmQQMR+t2eQ838C1effLz216k0q2uYqJs20f5JxEXREBGmQzWlQjbvKJeyWoy/bhQwTFx5+5mNPioJhnMQWLp8Mb9l+YGVbF0gkjwCsSnV21WMu5NIytnDI3W9/BRYfJ3IsNTJpomFBgkoAsfQvd0I5cJoh+UxPWKIqKR2kIWZUvXXRhHdX5mgPzO6WJYIculYd3M0vYcBbhcEpb7jkArXiKs4LiFHMhe0w2vk51xuhbKXac5nm9/QS1Gbytx3NLvt5D2JZzxMNVswqc6vmb0JC1E2x8cSObgdMJmKDJrImaGk+2J7X3Y4VE/Mdyzn8rjKa/tndZzTJFEfmi38ZpT/ESFn3/JpJ9GB4F0gTByxlZr+rF4B0HE5IO+S+kCtIV42bafLqpmFBPWis42djLEPpinLsJw/hZ4qdnLOwe0A9CMTrmacUiytbXXZMNkpYakh+eAUZQf0L2amo7NC+d3fo7uUQzPCjTOA2fvXxtttbeyUelZoDsACLmjGSSb4Rjre6c+clWE3K2WIWLV7kRjPgDqzdHPoykZinnUyhZGYBtdS+eN5RSXkzoVn2CkCsLmIZiYzJ6FhTJ/zY7CR6Qo45HA4FP3pTcJXeTFJPdim6lLcNPhLyJPrsXQvNg8cDVvlmlXjeBIu6eWls7JTKisXIsmaOiEb4moOzhX8+aIyfjN0N51YxdGo5eURcuT+fIw4OGDN7cTnnWE6gvKkNMts7ccFPrJYLFKD7HkKZDIkObMLkLt7n+vAQqNHho+UCYdaX5dLM25ZSbnEk7vpJlyd7FCekBq9VHy885dw6gOw6MMLO9b5ihJW5fDnOHiqK4CPLHEngFwlSX3bFOAsrpXNz7l3n/2stUn3i2l27VJc9rhEH3CIOFWPPE3D9a8jxTJJrXI9uTv3nhT0NUyhx7m0IZS1CpsjvZNjKai2F7TwuzJKj4Arj4584y0psQbohMLYDCxxkj5mvEMv1JFOPzSs4WtMbSQW3n3Ar/01cpiN9ebqqw3QwRbHZgN8SqdC+pBgZOhpJfB38crTDw1LS7U6KLfEjt0e3eVfpL6hst4wieu3rzrBMSnyxK6yt66eMBTPaXUfvtoH+zbPwRHvdG4PL/1i/OCSqMYVhxu/g4EY+rI9DBxJdFil+Rc6KOeNffd+zDY7GhEKTafNwhmM68ZovLgOEcy8TyJJ5zotMJO3p6ue+z560ITmhlSkVoGPI5XPDTRPJmN6rIFnYaMaZiZ2BedMglmna18XZ9f5RFx8JxCN0OjPgnjkrJjbf8ZThU0PeEJ67aqA/YRHc54GwrduO9GrNsQ8orUtqW4fjf94oOMPysCr803ZjlhPLPERrMMC7oyvko6UifNtTfcJRgqr/2w69Gziyi78o/EVtDQrQSW3OObwPsUH2kanFE8LOQjNgBhK1OrBvlaXrcJKATDYOombSeBi6103oL/JfSnUgphod95QZcqUXCNYP2WD994KD5a6Ojftm/yxZEHb7ML9mFN++cWVlZ+mcgHC6+SoKDugA4okHcOs6AkaiyaFyNI//mSt6lhhVd+teUv67x7CYFevUu6519qEd4hG95dWpHX42tNEhNWG5GrKzxDMZO3+F70kvaNmsPIm0cAPZsIE+x7A95EVWDRN3fyufwltNQ9eq/xlqEsFXwEa14MV9hBMDvDx8MN6Ivjh38jcNVInBVwuaosI4k6IUQvQn5oQRMvd5LhQfOVqn1CpIKjLzJubKMRm/1dp98MrA3B8NEwWV5ybwsSAc7wrr3c1LPlv+ot5B4fKxj1srEI4JA2tu+5zHdwz+zEdmRCxAVMEP5mIN7VdQ7IZqCngA0KxUf/TigEKp3HkQtX0y4OH3DaRuOYiXswRWPu8wx1hBFMBg7vCLvY6FyjpEsXxymwJF0t1mNmgq0ujSYSlTWn80ZZWQI+Jt36nK+5rXfgmo5NQZThAcb1CHjW/peGLRobVUscBWWdyLKDI1ISRRKKFB5aIH6Gyjj5Roti1dt2vkK4pehz70x8YxAw9n66RRTYj4na6wvdwy23+H97eVRj2yZW3lf8GcZF8DiJU5jIzpARp62jKR0Qs5spXKlQufxAEer4Otdw7TkHRak8Ll2AaIqS5NERUqdcyVmefDsl83k0ekIxiI/8f8A/aBVVts/t7fp+3fRABhorNhuirkjTsq2z1fVvb/ekU6fkkqirQbeoExaseWoSr0rw0v9/IyewdqGE0kTt9xqVcHFIjtytg+HYt/XcB6Xinq85WYuLnqJpY6OJmtQPZONq/pjpnQx6babtXZYfuy0QwiQMtjC2Gj3RN24kZHJ/VlOaiN8z37E3F2N6Q8E6a1njBbCPe7BFaiMO2hejGYiomD783jJdEOEA0n9gw7O7sKO94K1t+hUynjd85m+krACK/laYcmv9ilxO+huP03HAlzIEKHNWiVoGri0DzBkUXyjWN4IgWdtoNrGipaT6/D5DYDGgdXC+HCq7Tk+LdzAe5rMBFDOf/uVNULu/Sz6nMTZB/9cS6XVyI3SNZ++YD56tv/kAt3X7YjPcuao8RypBYaS5/JLKawoHAo4HN2fgEuxs3RGHJSX0G0p6UESvZcB4bf1Pwhhsi/mqEK6p+T2WVudgdjs3tv4v/D3liZ4Zc8Dv6q+zYMFDFEwR+GZB61CQn0O8Yg8m88Qzm80+EGp5BJJxah2eu1o8y1dcffrG5OsLUCTU0yq0d7bbFtMaJpZv0k0uygoRFcGYlu2prpGiZhMmdMFTYZXYgs3tCn6ZGKhaFW1veG95ooE+7mjo/+PTwsd0Xoqpt/YBdAFRM2ZNTBQ7f6GugsI3IenVXY8N0QJ4W89nC2JmLuZX+GkQuvtd47VrWhCka1yM36I2sN4jJ3kte5U5XVukavuXyNxdOm8C6u+6mRC1noN15uSEuWDWQiSu4WiubA6IGA0gbAMlflabC74a73Lo90/C47upD6Zq/5av1PhnvpFGpmh5jexeeV7w9ZuY7f5xcPFJB43mwxnoO18n0VmWXeA3YZNamBtt3HB3vbMv+dqcZ0mlp4i9tHkm9HMF7XApBcQZTRJAUYod0gNbkfS+EMNY0t4DIGI+2Tj5+4THGn4UGlq5BgHQrbdCysePIQwoPyeY/nisnmnooyTJ/hVJKbsvSzEGvrozftcCiZXPW2HEfiMmFxY5ikkbM18QV9C2a2flHi+FhCkl9r1YKkrWmNCy5x6oCNsMRf1/t3e/ekHctLJRs1V93pl0yTwUcSBBbTiXa8yMFaeOg1GTVX8kX783BGQhDSUatIGr0XUcITVBC6fpINdblTDQ4cK0HOuA7Ej/Yne1qd/EtOn3PZJPBPgWfAqYNiivrmKqmGHuaT6oqQLPb1YF/J7d0Qxtwlborp5xYFOEOCGFg4CPVP+X+INE+PxqrC3ZhIyFvfe/yutQmzChH/e1smNXq8p951hPsMG5nWgxGBLGx1QnCkLuWyR3BenWyCZ3tz6ndxhjhwTwgpBO+tatv+mUrLFqVVxDm/lDaRDOnuLY6+P8iZ5MQONusk15S+YpGxIlJzOjWwxAAAYSwkT9p9DqR8D/ZYQUGrsifZZ3mU82/iR67SdypXRcfmyl2CZ0jEv/lltgbYjwAAxYkYeWiObUXhpP3KAEv/kz+zgIye5gMvYTERuNaAEZhl1lblgNZfxR1+wv+fAI5Z9IpRXoH/w1ckFt8MJYEDgCKnic4B4Rvu/Fh29G5oXqn5eV4c/MvNNUiTpQ3s7KXtTFfEInLA28+zPSxct/HLR/rOnl47YSZVsWh5BJ8JInMvbX+mdHTu89AXiODYHvxaN2ZmmKYyB1C2OnL6ep2RAJVQ3NTCohl3j5/AOHSEg+G4LfTAhL+tenzI+acOcfDNpHVsQcSQs8pMmBPVvxCOyjS5SRFh1bIXfhZevSkM3zXDEV6vjxKjKrCy6T+wpewZtj6UpukB9gT3cg9eprcAHkZRaqs1XphvmegGGZFAqxZD05NXYQgNW/RkoukTvstwC1D05XNlIQF59C9trgUxYrI8opdzuVv6BQEtAACB9eqFpguyTZQ8nXegqFQXaquuR0t6tGmuQprfxz8khokvtiC8dzPh0Hn3oXt8P8cO7KzpQ8EQHKVc5rsxySQheGFtDXb/R5KHoBsrRlNrdYJnSiGxDu21Q9e3Ryk23XHLqUn6FttH9QHxAfmbBIjbgph75A5XFyu4SaI6RAcsTr29QNXEnQ6Jr3pW0Y5LvsNpxGE+j4/iqzG+jpBksuC6uKq96jbIw0MYO0EDl7q6o4mhNXvunWjtOecRxvTrtNx2bemzwKYbmVkNkFZG+05VsWXhL1ChVRRTYbWFOSWgiO4X97sdXE7znv3FKBG/qZ0CJBYGM9FFkDk6Ge1EgFpouQRizH265/J4TCcBnH4DPB4nzHCDOHmM+LKR2Qp1mJ1brRIfh338iAkyV4KfkJOvY8kOqf7YpInpu7Hpx/e8DNgXc0nirgI0nQLml6+1Fp4ot9ut/8ifHPX4B+LnyT4ffesOjURx7VCL7sYRNH61LXkM1cc5XsrXZWqqqqrsnNRtSatCP5qFkvzErTzudJiVcBPy22itW0qN07ITR+CmWkyAM9rzqsczrOT0cBFT+Xtuc3AKT9i61SFTKsn/K+GX9cxEN7bkWgXZKBg2a+FN9YtV/4rafVYGa7hwR9Zc1enFHxjCZJ2eFn1P3nBGTDy8Tst5Y58JAlP4padUJaS/Qmhhw7puVIyD2dh9frIBjZeAjhiPwLX9s/G0rcCS9QkKts1jPZ5josfwxGfu5JHJy0k6bU0YXaUzL1Np+JL+zViogmMhqZguepj/tRwULmBGSJpFEdbhV7LMweqEJYwfCumJPBmaLbxYDGm7orr8yyl9bSvwVW9SWtOF7TYradVzBqHIwF4KUyUL+WTwLWfTuM/eQF7BAiH/yXa4M6cIVR3UlF6gC3lM+dQoOFQrxVnG6r7AkCXyrp5jTfvFcaacJeEZmhf1Jp8WD+R+MGRDDqZUXbgglTjoB9F1cusDW8DV6x4YpGFiKD2IpFure/3s2lqTAnUk4GwVMt7oRfk9O9B8CfJJWJTSmqtA5DZbPyCjnjTdEieAXAgozGKfKEY9sk+folwXLLwNGLr+oRMKtS0PtX6jmSf1jrDZEewbJmdpi7faTZuhtWmxh1NfMhSD6+/CNxpzXvdNq3yURy80mwylajXvgnog9wSQNgNLzmcbkxPpbreWtjuO+CuD54jTiVwYU2u6lrftaCNFdOA33uhxx7LhNdvxa50ezSO5XXE7d7+JzAeO6tu8739d0dNmB+JAQVbYbSNoV4ucOB1xpl1KGpP1bjomgHIeREOIOTaFs9phcg8d4uMHcXWQ4FqIBOwLfxe3NjzA2AvhIeMqpnRhZsKk8TxzMrGTzZOURcagxyv3B0tLvV515r8H7KVXLZKNL9X+El+QTFDNfD4j4rVZD+vm2Dfbqvo0/mxMU1qUh6DUHI4vYK1IpQosgCQ0yoWgzO0OP/mpHgn2GXJyejawM8slMFwvCCVFQrOKz7IZntHZn0cPvM21LjA1JUHDdkwFL1ijgq4BmfEsKJszNrqp7uBwoLiS09WIrCtKoA+zHJhQkRwGU3mJBFQdrTdKR0eWMIfp4c7ILbSvhDcbYvIMsRZOtnCR07/Emq3DlDkiQFH4p7obXEdJYqnAApU1tk0xAFAAAARhvxdmKFMNzbtbqEqfj8xGbLl3WYcO8LI/MRoWAA7GCvpRQ8M/kWdAb1ZlWw4cUQzfAun8fbaAXmlFIXTzwWj1rdWguTRV7LyJAlvgbcm40AWIvhiaxHBpRdz/HfTkUjjPU/7RiXTkXCgmi3jPuvOU3/W3w/V9kwZDY9WxjAsFW9GkdYz2tCgVCE1ss6INNbu8Sk1NraM0Z4WZk0gbp5bCZmiSzIXwF4dlyZUeV6mKkqdmCs7Et0GiDyTLoNaszijKJmdhyMyr4qLdjBIUtH9DKWqQxMbyU3SKMOjNjL8YrayfovQCxuNTTGVHCAb97mWcNYwcAXofVbg6zrv/U194HreNVXDhyIMUqkDGffgnE+HtW64f9DY+pUSHUp0f953888yFexkcbjV06XlU7rVXlHCtFdFvPQdbt2CjRnnax2NEE5fL1eAgcQaoYMYEzX6CIFymp/BGC5U4rjeh2iOIPXitOVoRI0AQNwryIjQbEO6ALwAeh4HIskxDUyswdCl8s2ue8wbOfL4q7GMd439XVroxUkDxDZuEsoDnKEKFYvlAQ2CEXPZ9THGRdAHNnpteQK/LHSUsIQF33LKmjkeTZ14lWgjr3WT6mz+SzUx5ly8EnGZHqBp/N4VtW0h2L7o9+gkHlZnc24fVYyy8e+RxDdr/20MxG/CSJgfwFM/PBFXmEmYJKxkc56EWWSl9nM8ZPN6YjQDjqZ90tJSZHcbuCzpo3tYWuTk4eTa5qJrCkXnd+7wT99AU9uqwy9A7iFvLxUwin5UujtAI3H+UXJ2esQ9NI/t8cFZD19s3DHKWh3udpQ2rQgprOftRmTfNC1JmdfcT02E/vSZtlPwlCzpzxDmGpmmI4CmV8nCx+u2WfXXstN0lAysw/5KqpqYuEwvhO2CleccUspzkL2NzNG4ogrhFj2EQO0aGHceCSVS7OCbBKvnN+nfSSbcXpILj9xi5vQlgmwKqqqqqpTlUt8Uu0rIs9k8Sj1eVq+J1or+0DgaU/KkSyFehC9ESh6hSj6seu2Tp28CgCRieNTjPY40sZb9hjZZEtQ8n4PqKTLA9YrxQrZMDHZcOsTyo/pR09I6PIjbFFkx+P62EC1xAgAYFgjoJZ3RONX19C4f4SArRksvjIH/Si0+VJ/ApsOj775uwiZiYuGlsZt2sIGZPNIXQ2iD7b7W4foqu1aPpe4n8AbUrj2uQkiQ+0OlWjQ+/qEBwJXOv7XpNql79NCkAJW3gZzShG8y5s+y0yYPIS3E+daM1nffZNF+7IrRFc0rFoldjjv/WTEgJFOY20ni4d8rUzlNzPHLEYDaO3Ic3UMbhQXEHjBFzMrt4cYcbJluE/ANRsimbDXbKIVBQSlzOTFalGhFLsKMeVq+C2G1LPgYqI06nYV/Y01goYxUq0bag3VYW5B/Kku6HvNy838TsPkn+34McJ9MIXNZlkLc5d3bjIAAAAAARn9wLOZRBvaCbhBDh9Ulyzz14nyR5OUMtwa4GctPTNKyT1CzwCuuxGwUHAMfUmTPSi0zmFd5HBRREN1nmqS5dPaASa1ofB1eAeI9norx3AYGGBOtIpNIAb7mOk/b1dShBxxIGClf3IZ23jMpBUaAoD66gubgQC4ArFIF4wTc9+t67R4KrWYuOoeOtHLlpiBdGHYGs9kme8f45GOWyynY9C8J9hEXXI7Jxp81u9KenKfdLM3QaB/6l/mmJxp8B6di3bEygYyiM0rIq3OXQGdFdYExqiWxjvqcxMpYHHYrAR9RtZBGwnZG5ixbteyJ+QkXfKs6qMFiAHroK/taSNI9vfM+1k1iL289DUCCLAWlRh/D6cSnF6DAXJ86PR5Ct6Gsi/ifHlkhEEj1L2XktJ0vUMVpcYB+jhAdHShFdnn4LQfi1bln39nDXgbBihwsNdumj9gM092Rwz9j4DzRCL3h4ESZMa3SSZwKPDXf9y1ttkd4/NG6yHMtkDc8tAdAutUk0pJubN6G712/Om+BEWFUnjqN/1oAi7sxgsln32GHgk1xF1sXUj46IoMDgogTXhqmxWf8P94HOui4iA9ggZg9axt1iDoiWyCtabD2LIYbzHiMIG0sSRM+Tz+ep/V25ENAhO0LII14xm2YuQDPmt3tiZmBKNjAWgf5Fz7wp+mn1nYstNCou0UdFJQ3Fv8y2NCPohhMsDCa2Xu01J8Mv2q/9USZsmicCPI4+AwUIP3j+iRV4yDFLDDVx0/WnT5zoZ4jcfo4QTMjIfdCPYKcRTcKM5vdYTW98AHwJ0y0iJzPivbenlJlTJFMKPgADLEHj2tMoz69HdxWdUW0YufoJKAAAAAAAAAAAAACCa1FWn98z6oVyb4JUWRRhlEOQDAa4NpaWlqMOhZbOAh2xsPH+W3uvX9SQ2i/N54r8B8JvaHxwoozz7SmfpAvK/gATYfaeSoG1y4qCNW6RsiCPfl/yqP6pXeAtJc+yuaCnnMEivfnrkddA7BUdPXdeBZ3mDTmMVtZjH1dZ647Mf+I9qVqPHvZO8+yYujTIQCb0x1U0+koEZV7bnxMwiHEguXcU3dEqLMzqFin6VEwJ2Ep2cJ0PpaosvZrvumnBS6zsQA2oN8iJjNdbdo0Rh+D5sY+gSJWEuDCTfrYiRsTqskmPq79l////7H3ihtnsWF7OwjvR6mmnuSE/h+xawoJIenNhG6myX/Bv5pNHPxA7p3FtsAJX55qZR2QD/5Iq1IxdkpQfxxUXBN1sVdR8RglZHYPFIRPDOnajz5R7F1Q9q8IIE/xAaXKcv7VkeFTEREB9IkMyu15fk3Vf03nFSL8W2Tn3lTAgKHqGyYeCuRvb6GFcxaBDcNKvQ3Ln1XheBrwUA7iPY7TQBLHAZDJBVjJpIPlj0Pt7fomXc2D4DIiZC5tTG9t45uchyq2kWH5hFyldRckeI3XJnyfyJvPn0CtIm72zAE6XaSKmiz8WamwnohIxBzQ/AZru22XKz0sdBpR+P3TcPkfUYRNKUtqVDYuoukPfNuRtnuTQ8Q2YfbCQ9kEdKqKaxn8IhGQcg3LGVbMKd2nGNPJGNuJmot13KmZJzx/X9bnzwdxHJdkWpqjXQxy+xfZcRVGr4YQcPjpet26Q16mBC7KhAauKlfQ0b0szJczK/AT3luxih2I36CUz6MVDJhBjqpUeOYsitMC65oYZS4l6WorWk0b/oZUR/dfthtcte3ZPEjqtpSkU1NNhRAxWpWppFxxkV5meVA87Jw+lSpMHHZ11xsQWT0JfdgXesgCkn8cJCOhku9mnzsIzi/lZlfgKamUTnEAJkWTNOx8zmRbheS+WxcWT0G2IUoSSPhDMrbq/VXjo0f8gMBHZRR0uPJNEclvn7aT64kLlbG7N3BvXAjJsKls3O8UGUaO3HfADMZSoPQHzB9NZMJVL7k5dYUPPYBiQECx6Zay0qaWVmJqHf+aRCV8BwonHL3PkVOKelJwI1u6EFaEaUOoZse9dT9Ao8yknBva8ddqDKjf7m77LBFnwa5oP62yxre0V16YDbUhG6ElqA1qCIdwriA6WVtWFshjuX3EO2LAf4WkJtS9xTgt3gARPaqewdfAp8xQULOYQNq3EUhCOZmhZ59oEgbPwwAqBuOEcV4WGZRmV0k9DD/k2WUEYLZ/dbYKS6kVTXdk6s2Xlh+GdNe8C39y94hIrAmrKkL+e13pj6jhkDxh27PlkS7XrzcwklyUMi/UelHy19d6ZE3xNHd77RTmydLbl3XIj87nF7H9RdNv4LaozLjC4u5mbT3NNS7SHQ50C5ydGKFpULIDGAJhZYFSKPVj38/V9gLIiAFE/9T0Ud6+4tMw/h1PvJwiNWcJZ2Th1mE7oYo3TXBGM94F08f1xeIT3XRUSdVdrdnLic4C219/1SctvgCdCMJL9EFCZ+miHLesCoSXJFsWedNoiTaXLIC3nHsKFS1jUKSExgJppUiakyNy2ObxbW66LsD7wgYVXXT58rXT/qiggh5Ua8hB0yRscnwNlPpPnB5/YceV0UEKrRhR65oE/YcZDqnvP7fWmN1zJTdhCeHJCG4jOFHiJgW88DvY1orOkHqd+b8Xmu/lvdVjgfiIpht66EYMhxfX13vLRF6qdia7vnzrMK7zsktVB9o65ynsFyN+NmHzvU3CWdFOUXixK75KzOdwcPCEweMuqIVRCeTjoPl4iv4+UxxiTDzpN9WZWbE6zSkKfX1wsEMVVqIBxObSX+zhgtCUDKQAAAgEWD5YKq6kavDWh+SuYmeHwSnKBxJ+BgPlceE0MJxBdfBoxThB/nLLs+Q3NE4D1YOLuOWI5ZbkN5FuhbEu0y5kHSD66KA5B5JUyxr3uuCcJvWNhUh1uOfSsGP7Lr3A+E43BTwrTV1JmADd9SIlyLmZ0JgXuIZB7rbmBsw/tfI6lRINlocGHWIxLbp+ZjZ+TbggG5VRqGl4E/BfKutRbLgJV6nEYr3plVwdi2RTcPKdWMGPDcAI9rWFkXUVKUeZYsmbHZWryyQcAbrGh0qdRm0lkHMX9x2txwmO4chkevrW/0xgIyKLMPeNXE5fFmc91IBIShXTKHX5fav1a0MFoEdth9YkBuMcTUHC8ishKgPSRn+8sLomVUYM74AzfSGQWD02CVSp73XxOv9nQB2oXipACtLMRCDS5Z8M37HIkDi3n6rwEvjTYTmOXjj4Nl4yg6bE0T9rLoWRtFWO3//FrXoBUWaY/vIdKWyi+/OwzgfACw83s9DLUyieb/HkCkoTuk6hs2Ci51eN/G62mpcGOplxTkUVsimc0wgO3kRXXFQt3+uPg1ur1OI6+N9OQQusx5wTPzLf8Ao7+dv5HxZQocBXgBxxBvf2TM+Lrpcfxva5P4m6iZsAs7BduIU83gUGiJ9hozeLztRexfyeqfEAtQ61Qrt4RbYe3L8/2rpbf4S5Pdivx0rbXb/4jZQLlrAgtp+EAUHwpGbx+fAV50jygZ2mllPOlg9ADWw/p3vWQ+CTa9cf4A/BxLPRIULnr6pPN/N44gG3sxZgKaErDoNW2l98zvxQ/Jg9buxczXbIP2hM4y7xl7YboXWFyRe6NrYW1B3BB3WDdKwt2IVrVw8PDw8PTwUxnbfKq7cXuWz9VyHQ6QSk6h1lJPdfwN7nPlfJK8A7iwkQGq0VljKVqy6TVSvkvgXMq+kN4T35sWDZi+PAjsdjZJih6UG4DvHumfBMYkjRX46t7Z1VJJ3oeFixSpPj0H28ZmwgKussAKSW9MUKjnVtx3k8Y+9DSsRNnCPwmAA1AZjA41pFks3j93C3SspaJAsY99Zz9mwkjdlEA4Q39OiyH2ZaFtewR9osJgaknuQmrcF03EBQ/OmOKJpCOtRwImFqH+Aam7+XoNlpoRj5gzMB82LFmbXb8jt6PVobR2QyL/4n5Jo9qqCcJmGDOiDN07ePV2FL0Ct1iN0fQS/u7toyJT/os1faDEIfqXDzQXfruI3r7zviv88sjARqzQWkD/Oq2vrj5OBUEi9JNYdpZ9ZWo/AqdKgoIsGsVdLjHIfDZ93/QCfS2x17caZJN0XaWxIt/WmDPkG+56u6UrX4iI+Z57yelWEjk+gf7h3nbNKX0NGe3iwvVQLXYSNO2cVunRXMjmGv8CNElQpx2rQAiKlLhJSKfD6orhGX5JmsacKHpkvd5COPqj/kg3+uggtMBPouAFwVSH61KNrZyFHUqH+GUGWcU+3r6wkJEa3P2VOiOYBF+mNHqi6sDwZShx6idEGTaPXbWtqUqyXm2OknSofrBYya6pqGkNtvhWbhZ4lM5MUBWvHE2K9eyzapoGzRh4OZkzJqFWK5A3sRHa6CIZuJj9iYAa51wu2rD7Pq8++Q6ip2VUCSSEyW35U42UNlw+FWIZ2qnBtiJMz5j8h5hSI7bFBmG/aR6WxvlbIUygApOLn/bo43EYQkBAdzsVC7U7voXTjI7+rQdJZCm2k4Rq9gdnBna+n5XGY1HZj89be1DCRlSPZyhpkkzyr9lXOCCszpM2H2+YxfNvulZXW2KjpYemJy0KFvu+Dxsyi26hIVZk/Pz4fcQkaLj6WcHDvYRURq1X240XAFXVoIi0ps4dZmJEO0G4b4H+WVOCbifAGKfhZXkOv+7GSxaGh3BIcf/pdL8HW1W+Ebj+KlXynNPiMXOylaDSas+IywgMIvAx+dEGfj+/swz4fWAe8M43hdFgeiEWnOsMQdSaEPziCHLMu74Ai06ZfDkkMMyaHiB2O3E+TahmuxSDT9lhXWskbh7jbYAsF707rmaMS7/UkEryamkpAxhZqcw04Q6dh/mjfJOTg4vFti2GdMv8rrUbX8eQCohwyonFPgrlOXdX8zO9vdP9avaURMjmlNvpwqRx56+igmRA+Fmldn1mBPmMNlkumIL7+GEL0rCevzrmNtzFzzftugFqGzujm6XY+TXgvHkFEP58rycM7M7k2rzDCcharO1PskM0MGDdUr15XCgWD1OmmvjbICMhNSD5FWBALXAbLarFFnjU2bb14UXjK64PcbBZMkwjwdn0rmRwsTbkRVTtLA0ZlLY4WjOH/v7RfBvjUqYYk8HpAlI47QGn66gbPaMaMLkoi6jh126fIQSz8AAAAEjVhRQ82TJpBBCrPW4g8T4zx2o7hFzYO7eBRk4Aixlp7ofUKVbkLBz7j6NUHRqlOL8gmVaNuW7+U8qpVT45Fjn760lvwmjs+wT96r8tJCYVBDPhOOllkb9V78bR83OTntrOYKmaDFp1+I8Ph0vmY1lxu07EKpCdO+c2v2POVQS9y22qPyH/Ye4mAAB9zyKMW1jY8CFeuxABlNYx3ItVCvwnVm7f5B1cTi9zXGhtI0gJM35dl7SkRHWDpfsH+rT/ESsOlsRiMNnvqgkSKareLLUP6Xiq9E1QAgZUX0D9Ey92/hDLhu0o6PNctrn9j8hoCGDanciiYhFXPp95X+wrp2vxQKz2UziT4eXAppFmrK854ORam8d6TSsCwHRQTCbWYLoISVyXYLZOHN2tbPdrOWBWEPQXQ3VnEgpBtXJ2Xu/OwN6+tCcD12x7eeLz6er3L+WQemR1ksGhAfWbFmpHL6xQ08oUG1GheW/Jmd8qo7ge2Xxteg4FFZmbaJ+3DMNrxkIsLG8tIhWsBuTh1HJ2NM134XoGE+6KWyfJ0Uvj7p8i49D0Itxe8pM08n5cK0Y43HuPExq+WqLN0ycVMC3yPjGhO/xHCeUKKyOnSEClMaz0PRr7DBbB1I9nu4qK1O3WyhhX5BNv5J51TPdv1eli+U3sIA0DfvsWzac4KFF4P8uDDLUQAAA+bi3MVNntfNr6aujtLYwagBT9YnJJAbnTbwTEMew4tn8qu4Xngr5QdTvYTBOIHN71MqLirOVLsoX0aa9uzX19iFUSvtr8SuUo9h74CAkpIxf3RsGO+yp1sJmydBrEX7Y6OCzlw80qj1Hn4yex7SHOg2MKrkNX0X3c/lMg6vWbwOj2m7E2CwCWUISP5ORGo3I3JX/pPoRVg3PSHPT9S0ZwwqzyXrHNJv/nh47TLPaz3KWLZl+a5rynzLNtgx2+4rePfy4wfR2hhzFuQ7Fs2hJqROpVSH6kbozTca6pKvCK8fgpDJxf1aZbnxzZfWI/injydJ0q8oJARA6zlNVGtaSOu67daDGyjL4mhyvoD6CuWvIRKvZ8PcK2T++0iB4AAr6k/kucTGvWhuEJdwXGFOoWbZftQad3V5sSuX1IcMtm1BSyPkHAh81ZaPsTRxDML9iu4UdmucuHZX+tMPfbfzo8kvjNcgbNzEZ7cvIF0fYZM6PtuGUEF8rWkiAkEENp0npL6OMivoAWV2/Gwc4fHCG8zo126SAJ6CjBU9nem3bmYhxxR1etkcxZxlsCByMVrcDVd9/skSQ4z9XqJVtkl2Uv7c7wPhswAt/Pjx+Fq6+H+fRyb9/iXTvSzq59VZIfD4v4wcQNm8elJ7YHMlUw/YN1IwJmrNUt9hM7om9UM6+vSvymrhFa6ZWi/m71OLgXQwFk9vMPPNxV+m+/ntA7+rYyS0Bvl7ftxl/0kSPKd3djFuowEsbNyZ7BJLw2WbZUF/fcb9VTardKVftzZZ5Mi0SGPv7YCZBBkjq8exyYOR+c9B7HYlE0DLqkc3GND16LEqLJofE0+57QjBoF0ODjKlhvLrYW2BKUchRu3SzBWto+grnv7ASqmKF5M/2kgjKYuSeyUq1UIOCmsNjGyFkG6pldr3vePZ1WevfZqVl7OnhBSmJgSeYMzzIriAdLGh/YLH2TgAAAcB4AJBnFYwsgFhhzyA/UG9oO0hDYdkD3z4X2aIdTsJ4uEAcrCV3iseHYmj35+WaZ+OuMeUs0V4444444442EUS9a/Hc/8dhK1G01f6RssRGPVtLQSKx2ubQYbaNKGVmr/x69NTU9dd2M8naI+msttg3eNYgb7MB9/8+zO+G65caiqgqBa+/OKMV1+/MPU1j6qy4sA2l1HTKmM/oemrC6A1mvwGyl69vZiR/fwYoIg8BN98ecBYV210S/u6qV9dEcIkUCMnHAwITYFw15twN6ALMhmZ+bUZHRoDBeaDGVdZnfRlax1yBbKw4UWzkPn3Ux7vLb+KJSMB2BCxe8+xALCryLNBKoFGEQHbcg79doVT2jbvAbwRcx8k28HKtV6MkGsQV9TEkhiRtwBaKvyuYYI6hSoPXogoMydbxYvz9WNMHRzKyzhau0SKqpvOrjVaPRrEBkRHQxJixlyT0n7ujVQ0kMnKyiQOa53cYWa+W9FvjyUS9SrhLRSqoHdl7TbsP4w8FJx4SG75mxFzmQGfNFrviPxk3MNfIYb6jP3VFKnCIbB0haeQK8OsHUSntLTbSI9KSyyIPy0/09QhDpplY4kXxzI7FbGMTg1EIbbR16dGd5aeCgRzoZfPj7o8QVAki+qZLPtp1TlPDKUMkeqnQ9B9I+N8ThxN65IDlpZObieVNv9tX7TEEq1OLMBpKjrWZoMQ1vE1s19p/zq4w7szQ6y/N6kULYBkAyyL5DpzLhO5KpO7ZNMztHQJY8JZFXTwF3BiNq2ZzIe6hewjJRviItzQYAIZXspSSqqMrp0SbHVqYA7g8hTTPOduFvj6teo52VbAvpobuMkzN9WvJ3iQoQWewmG+yJpnPw3v0qDMBe+YlrTUbFOjhshCpkGYumEZLi+8fyHyA8SaCQpirNnIYTVHEMCmoV29zQVf8GoxM9wa6hQU4aEeAIFSwCjvujjLpqH7WzJ7WpdLbM8WbrbcQtpdQ6QYFsSjpp7xpGH3cX/6CsjWkp6ATmV+Jj3D2pEGYMGSNB3/KeL7IBlrQpEYr6yVWcvBiMdVGxuQj6RnXqBiUTPHDe5gwDucMyPqpoB7m7tlyJGp4YNSl2gqnlCkGM907hLAWTZLvVzMxmZmZpraUyRzXe1/Wzj/BWj4w61ZgqAfs3yAUKAb6ui+RpADgx4Be6XbzMidnvOtZ/zALfq5upp1rZcUUH/UoI5U9gsnggHw/+sRefg8bS5F7BOBpPH2lAaltI99AiQZ8MTrS5wwj+XiFtyWdQVrvMgHvUaD4PdJBhGsMG8Lc1zP+nhLQ7ODpdwsS0RbmIj2+z7ncjpjOBiwZo8umtVRqitr1IilC7Wdw0eOLbGwWFNTU3bBQ/bKLULMDhktzgyuN4uarf086b2ACCWd9BJstImEyiRhjRQI1jqCiWKGuz2U851ckObZ/VDWsGdwHbwwu4kUST4c7ZDnznZjBdw0x+DTNIpnp+o0loEC3G6Z0UGTDEYgpFMZ9lcPZhXYFjqPgLCfDO/9axJXaZurdrZhv6bFtw32LNIqwmTcXhicsOG9VuWRgXu64uibt5SV9zvYbGeaSk+cbqiBlui4tZ+O8APnJu6nHPIpcuaOLMCeJrbbHVzZUeJdyjWzq0fTwDlUvn4gXVrH+SKbVHEF4GnuwTUgYkVeDguEfVINSXd0ZqAHfoqYwA/MsuB2MqL30r7s4n97LK0ZQXrkSmZ9uuONTnSJ4Ftilb7NbPg/UVgg6DUvKfu0o9oXSi7BltAZGU/5skEFy3DtLYK4jCv2pZHBPJPolfT2Su3CGln41R2h3OolXW4cx73JmJPX3GGzezpm6PnI3fkjBpB6HH08CW/XlfVJfTx2fhM5rpe0QOC4x9lPgtxclMAX2BUNkueyrJKpK73Z11gJFoncA+p1GcYbSbiBv4ArhipWQM1v3HosbLCGw/MJH98lqPaVKjpqhQpj6a5VwYYsw+Onw8uWmjHqOP0HMt7eX0H4aVTJGpshEt6SUYvA9XmOycbboGuojVEfmAdFzBIHORuPa2tVcQ+zCXe5/gSS2xEGPBQ4Gl2MeoIVFu9/D2+tRVsGfX3ZXbMW0EfRwOaH0vqYfym8Jg1BtQkdj8CJWOfcElwLkGvWP2Iq7867qEVZOl27Y4Ve/L3BjextxLAoLbhOLTZSgwKQvtQBhZkuGEaaQYp8iZEZQxNcGgC0+ApEuwoqIMk3L8nBUWx6W1vZrIs6id3AoRyEg/KQDRg8HRh2eH/Zm9VOLJuj+TN8ysz82H09bgGAvxcQovorDwYhCrse7yPWU9zm8pHIPBclGpaqZPMpY3rNB74Gla8/6fSQDLkTjCMQ1fW69nBoi4zJkOxT138nf89WscQif787W6BneXQkip1QigV7qgrkvlgaHsDldscvx6YqlPYGuHO2JdudvtZ5+70kOpq+PRE2sQVQ+cBfiQa0IRJAvkL1Uk88NOb06aaEg1oZNZjatJ38vgZhWbXA/YoPteImkJdtz7iehycL2btYlHOk/lvHsMWtwpj8qhaklzhb08PCNf0CiCz7+xKvZeozL2lmZlNWzbFkcoccytGQPALSqbSwoxntOjqa14h5GJs6Fndx37VSoeuvD74OqGu9uV9GyWVd4HmkpJJRAV9/Lx0GNhkIeJ3R1PVppVVVHSQ3tKv4QVvhVFzoU6dsSbnMxCIQf08mZFNJ7adZ16sKcNqsxlCpmahezXlFkt8Fy1mLGNNugup1GcqptU8q/1dbbAY3JVqqqqjbtXSCcSQ3wJ69EKezTFP7GHElZFeGNfRAM2FZVPDJfORKlrz15OytSzIOkGXrYNQFtGv+mgB+GRgDU2oufPc2kaDdJh7wAbx3iXuciXCrvgD2kUZ6PJgWb73Rqfnh/gB2XJjyjT6gVyiFV5V9RkIv10+0a8T2e6DU35TaFKs4KbKQCQhAN3B689vGefJKRouiHiIqiKsrVC6O1ku8rhv+EnTOZ4h1tSVtDvFoUvzfsVg4rx1G4yeOhzCz8NUbRI7MBWt/68L4zcsA/X/ebQcMtAWWS8lzNwsEehW1zh2gjZA1CAKkU9hGrFeobfP+STZMBxL/8KuSEa5MNBtpQx/KZbD9dg7j6a+5W0Wi0sK0KPmYeKwkTFxQjUzdtRXfvMPJ2/3BuBHCxN+3bnz9PQxo96a4F4tyLUU13UkJZdlC1PgIYFfQDjwzGetIFHvw2wCpDSWq/4q6XqWRfbNIctkrjGlZb3UmpNJgaB62ZEhYoifY8ma9k5KmqWDGcKQX+Ww0+7JSGsH4m1PpHJ6dZinZ9TRYMXlVzM1fN4tAZmSpKnhkG+DdBGyAkgOgxItcMSC9KrAArfwd6wYgd0X84Njg/j7tpzHXBmgHf9wZyx4Blv8Q4mvxovIO+HVrROSV/X8Ft1+Ztw97AeJ9/6n/RxB+JYZXCWGeF/wnujRggdRWutV2ZXjOyjrk+NOdLNu8kzld6JVpAsaAaDO6JOCvmru3A+B1MMpPFBcasY6rWMf9WF2cTp0bazK7A/zewjwHg+WqvGlePHgeDrWFUWWfdJfx61NSP1e8Qd9WnLb3SIzPT/fBea57ygYuDamQDHFfw2Vnka7Oskgu3xPs7sOtJPRNEXYfztEyQ2upWzFL19TzHebLR6JIMWvBC/oNQwU06wNM/UpJG2FutGW5l2knQtBaq/G/TO2uInjHxp/Bw8iVr+ruhIrq3wpi5WP0PIy6mK48H0p5xZvbQmyu6w3Jz9S7mo2Os4XpDj9eHaPZeYqRmmi9Z+vTF6eryJqzmER0uCjEePFEh7lDmgFhuWk6vtdYtB4SA2Mbd9p60G8LOmY0H8hdZuBVSpO5DUE3mt1sLlFJOnZbKTpsDr6imncAzI0lRxSwYnIKbFpllq2Xfnl1e/z1438J2L1yfDi8xrH26GUM+O1KuQPC0TOQ2W508wqzbB+FYM8wYYSXEc3cJhM1V1EA4x/n6HPBSK0mSdHGJn0mCyo7HSiZtS2nY5mUS+ft5wLbA6E6Qgu38B8GjZFNQi5/D4K3o8gSqpWGjNq6SQnZ5+bh+1GQHnLUanLY8Q8lwcIR4QrsRnZ4upCy2d965lMsE+vvBiKF1TU6YKeN+FBhFJNztMN2cOT+CH8kIkXBOavyLllWmwR1l3QEXTJIfMjcfopY1PRFaNKKLGw32BgWsT8xnq4eDV2jccTUKooUGgDxAZ5S+3yHBjsl28m3T9TxbH0XCSr8PZE3ezIVbWjcE5Lm6ZMJImr7WFAKZSyaAxm+LGVTECXfsUQddJtsSCyS7l37mxZs6nywSXen/rcHMKShIDKCu4jH6+0VXv+FQLigDbwsw+15HReaDJtw9Aukqk6r3Yfxmisl4oEDIPpLMzlI7FVqFvf7iCVWvKzAnfvDCcna7/sh+9Vs3SrdBr2TREvFbAgsnvcoFZoOogt8uqqftbAW3odq/CwWzvKw/fbQsnvFjyGND34S8zdO3jvorCifQYBBNMe9Di8w53qq46ThJdd8z37e3p/uxQz2r1T9we0VFWmLjoNAlxOgy1uvnGt9PdW3qqTFrsAtuzSv4p1NAAAAAAAAAAAABCiOAE/CXcB8O8LCNw82kqd5r3NJCydxxvBMxQ3I3I3JN21E6ZPEuDeAvvxsAm4rhy0xSx83rRRIdlcBb5smwWs4XM0jDLna8GiSFLWBlcDoWpKUgRdZhyWthoEd7wwgEHmjfXEpHKvjsxOrYTPoKReLgtZqBb5F0RW5c1QpYq+EqpQkDoVHrcmiX86MMX3RRerc/Ss8XYdh+8pRYl7ngq+GKtQDV/cdQBd9DaoDf6Ssbhc7KAvKpJW1nka8C39qGH1HAKZ65fX2e5GQ10qX0EfHMj4IS9XMGwXjMjYuaGS7IeTuOspea4st6e7ONnnwbTcQgt5xiepyJUZn99FkiXamqfBeUI337hL+Rd9BVZCL/m4SEojcVHjlYNx1jtJqXXx2cYY1bd6iNwzwZMcaCBZ9fsKPyoR9ycSSlmPKZ4hsXcujiOi+X1yhoCoaQQf4X7mlncLlRbbSGmwHfDsu1e01chokDwtyp7S/p3vAgQQjJKzobT9n2bGFURWMbuVVtiHS4pI70p4xYkC9ZfK/8+3L/euP+lE1znwszjOauGvILrXoZ5+Wii8O2dgZe1K4SoS991NRTSPU3xrpNt5x0cSxYBpbqi6jpJNhn8TUnJHTl8ZmbA5OYhn0kFriE/OkZXoQqWXKDZo+ZJOkPNP8G0g5TeAyhoUJH+x1dxb2dEwBk00SFI9pAZEDAt8YxnYMXLwVNrMLuZscuoHBqqKEw5rMycQ7f6hxRrANo9CbfbcGBPCmx4LBQKSeUvmBh/bFGX9B0o11TO7N7HypYS2lqqo+UlBB7AMV/Y1W2aMXzl+wS3GVeU3T6vNCSV3fGdH7MoUM06Y1dGirB1WP5VZBsoLKO5an3ecte+F4LQQsO7E0eeBkFyycKlBdVDpazhe74fX8KH+FfRklOBhoUO6pBB/rmpSA8V4Bw1AZbLDi9z/7TZ3M3gdZ5qI9qIq7y2sFXd9ZvN/oPtx+BytST9fLuRsnfhrpvvPo+6VuF78KMFoF0yYi3yfnmsdg3oj5lV7YCZxaQtljMRjvUWClfPUA0wqVi2mbxVeXe4/UQltjI9d0/v36CIixMUQa0qnmyOu+CQBR6V///ZZlKU+Ug+urmr2bzhNypBF3lNZaz2nwww5msWPeJnMp2fL7VgoAYkA8ECsP2LUwZyJKs7MS8HkKR1eHhojEWwKrlsAckWtiIC2CZvmo3gli998Aul5+xDapYhCIIeKBZjewxNuceaj9FfqkpMJ/F8N5ALx9vMUinPOVcbb079RE+avCL5y9Ry9/0/Ms/P7FjIMqEQG/JYwwdsS9ZNF14cQZIQJBT4/+dA5TavYAa2PJ/f3n58jgc0jFCD92D3DBi78Gjf3lKchXnbjAT3moBMYkNNQdWF6ZE7+i/GUKMwg2n8N0IpbYlJQ2v8Bp6cdioSXTSScfifvj/Ri1PW0BlyX9W8UV8+Uc8ApKSAAKSUJ4MLAUXOVO17pFBqnUArcSzFi44ydVxPaX/YzefrJry0PwWSqF59pKl3XPXuOpvRYkT6J0WaJZtmd1Q/tNLFW0x54Pqljc7YjbirFWxSTzV1TCJlmEfXLjgAl80wIFEtRpnHh05ihO4VWPSQzK1bNs0VUzngEqcGHz2raQNK/LrCGQLkQZHZHyIWE4bj0Me3t7akhZWIT88o53H7y9kIvl1mZP8fb5qpFdyY2vBgIWUATQuAT2y24KXGpGcafm/K0AqrGDqBSvhTzCakVTRUIxsejwIXX3BwbHSDbuCk17uRwaxySUOzS6mMPnRPr8OGqMZsL55jeyvUzijdY2NNb8uF6/vFYAs6BsUrnECmUrjiJmh+Zy0FugTMK1gqAyLLeDKRyNBOCDBFFiwTqYeqnA5Vq8C2FpWpUt+hl07pc6jjVranWxfy4tAdEl1l/RJ03+Uib/GBgwWH1QvpMbrDLWbAixbAWEa3D1xUxA0YnCgYN1N3qzxrS2k9BVmD4kU888xfUKm824FgEqpCWpk15MJTsavZzTB7VlCIvtkXwGP9L6O53caPekt5A5UksK7F7rGhM4BNintfWLHJjQO19jflfNs1f1lLtM74JyAYeoplgOfrf1mp6LEYxV6nYO39PfKl73RQvScxAPqlQVQURfgXz6EKzku5hOkVLDAbJoU2xGY+Hr9jdAHD/lrZHkfsz+dGX0ZNzV3dUwAAABv0jyUMAiNvdFLQd1v9s/8oBJdHYKrwBAJdv/dL4pntUn2O7/KwoGHeOLeLlWHn4QU9MRkPZhavyIQtrZVmvEmxlgsZqw0Ox6eTiggI1Rv63hAjDuXyqqo6hDsV0CA1UElqgdCN2GQNKwl/7fdl77Oke+2jx5B/fVnC+mSuqKusk3FCR4rTS0zcsEzunHcDyc+OUi3pFUAriPQ1J8V0UjXZC6QGnjkBPLXFB+KMPN/wunvpYYVKp+z9nHj3GcJFHrYmbbDSI5ZonXY3bCqQuuoeIU2oOB9fJxkW6h1vxJHgZYcqwYzf4pKWaa7/LsdkrLp0Wf3Rt+wabGRCzW83gLds7YYxq22OxMoqjLR7KpN5Axv4lLnh1i8FOLc+iyrztQhQ+CAd7ruN/UCNeRL5tO61u+Fi6EPz8qoX6eCLPZiijP4mafr8bRj10E92jzW0T+87aIJ0T4EjV83D+diA4+5/IafqEy/iQTpb7Ds5KWjdyv9ol3LcMu35sewfyqtW6+A8DxjWiJCKafe3A/DIUMcRWPvNkdWHc4gBUfF6vf0yqDpHnYKY7g9j7liKDfucDxHjBSPfwKTv9PvHPrG6jEohwASSz8nueO8fbe48xpeO2XRHcEk2T+ioJua5QEsKtFlR1I/lLk7+3Ta621odDjovuPhltQT/1JRpBmUiI/UQ8kQhK1f36PrGjUlrxPwW6lk1h2GrDLYc0OvT9YUwryARNeOlynQdgPYeTVaUFqI9O/M37aR2pPJgY/QBkZVjIv9YEoFE4S8QD7Nj9272qwUMewnK9lEGxGt85o2ln7Gdbo16nIJF61JTkRZIILSgeo330gRzHDMU7AEb+I6o24w6BlxR50Z8Ymm7EoTYZCuYztzmRrmDe6FlSA/oljAZIKpbK+f4P2kkKXd2Qt1JjNJPsejOpwqaTYxKfdLnq3GeTHJxoyRMnWDUYldWRs6cwiy+B6bH8CMGxQ9PJLGsMLzLR03sfrgEDNY1Olj0EsfrEjn1cSGPvrlT1pv9cLWKErbA0bJDcIclZXKAvlx8osgHwfBWPfPWjTKbCcTiU1WqpYcTOu3Z3ms3wdzMs5W0hDxj6fx6kFMOGRaHCyrlIyTQG7jfRAZC47Unep4OJJ43C5Tgu6CQgyfUSVo+Ax0iy0hg8OSf0R3iCJ2fYX1QRFD0nIDpCnUatEjf8jrJS9Te7OuMNvxcVF/qH0s8/wLS0BggTVyNLC/fQZQ0E1bqTyft7HtGzEbuuOz4lEL9c6aDWPGe6AAiyChhhmSAY9GuZXHZBvFWW2uJ95kFq/gm2EEPKTxo25vmGW6rytVIZs3M0H+dINmrksiab/TGJAIW2MJ2HeVQ8uNi00ODvJsGtu2LAOwASmU/q54zMzJPz0rJPUy/cHk4K+CApC3t0IVuTLWdaD8E33gcxwYfcIzNipjWett0QlRwx3R8RcxhvNzPtExtFxQtYqWOKrKhstkmEqtAryWRzC5CkC0AKzYNS8jbKa0/5oe3Ml5V9qg1hYvaAuAkK/SkAGgOx8nEwzIsvnGXfyCHnVYlUOSjs8fi/c32NBD+dn99uBBx/X1cCRQu+C9/GXwZiUlErhGyF+JqV8HJ7Ech0aq1aa3EutdCfo8dJF1Uxh1CnyRVphTYf14kaxIP6E7zAD1ODRUGB/cAIFFnFQNW19dAecgBNMT/uHj3dmrBL24PyXCBGoyD1KnZ9Nbjd9ZBEpO74Nz80RlkjeAYz9n08r36voYYXmhJ5CVzv3QpDcDYNBss2c9jUVkGAQIFYalBc/heEwYkWNRZxFwz+ahY2JO/PL84xDOv+HuVpD6PP8uJxowFmFpYIOM2C+e9LSiG8h4SIUCTrUnU1TIKoouwiiy64aCY8Q8jjZBAKQRyt2wljzlOPyI1UUp6G4OfD6UrP3hkia0LnR7YuIUAsif9jLfAva3j5IEb8dKcKY/uKnvrzwazhHb2A603Rx+ZP/1+pJfgqwUoA3PaFA5HcQQ2M55dUdZpJaK6xpmhBqaWuBlj2ho7AgIeBGaP6NUfp9giQVEiD2EsiegOmXHCeoTPQEocG15o7IyUrAOAn3TSaeVOrbxjgaNPBJ9k6ogW62YvSSNXVtP5gQ+FW9i8ZkMhyDlAVt6Dg/NzDQrpoe6+R4ureHTXxq324AeFnh38jidJm7+pzn2Pb2dbX2desblnje8xY2ZFTvD/n5AtRnc7sbKduy3en3xmA300qM9b1cV47Bl7QfTFRxqgTBYbPzMMPWUf+OaYZtKPRcr6gVbmWqb4fh04A7qJyRqK66WFb8SOG4daKjwABhJWoTQoY/yhyOvSUkxIkObDm6XtSV5Ko/STOJRtUwK+6Ohc72xtG6k/7ZRXhphZ1JYVY5ayX6ESlQKJnptxFSqoImY2s5xeTvx+4qgBVlLrn2YDWT4BVlY2SLFxHjEbRcFq6vmFzXCcDmy9oZnYvdVtC3rdVaXzguoIULN8sTdZAiDjACd0rsSfU5Pj7HTA5LbuYMr7N6Y/iicirFhYf4H4QSOhatv2vEkqtqcrJo0e4kqU83QIAMLZbioSAhSdn+6WRom5RkUL/3bipyJL8xA5gRL/tV+pPi+ZhdEi91XV35f6JTMXTu/Lt7FFVG1qqA7BwDo+m87JSXQSfbklazkZPzwZceFf43C2lw5DhKJymbkjaziLWOvEIES94mWSV1eNRDGojoJSDBe5E/CjJXDs0gjm/cdduu4B0QnSvf/72SPD6Z5wAhENY52St8Cp6ZSHl0NqRdMs78K55FUcGX9jQQf9JVGzMC0l4wwrrGlJD6LL72tAUt53I/DgsKGSMtWaZDwzxoKmOHGNmRTURneJD226f+tdxxPhiHut35Wb32dYE0FNIcQ8DxCFj63wDr/b7Jq/xYP16BqFAwgrmyKhArd363c9d5kUMgPD7dIF6FIHbsFnmGnqFnxadZZT/z2W5gSzZ0wMnp3zFtWq8IzG9kbaJojOSFlmmd14GjOwvPipd/fb0LDdWijpGnF2U6kadgWK4KeLJBkMekurNjqVfPU1O7L0IlncbSjwF4mwlkpxYdgBotGV0GFIW7usI/7keK0V+sKhr4sP71d/TInQNNZb9vWHQDDFmSZtcdj8sZwY5kNWsMB2m157vSYQg3fbzc2p9M6ugrxrlz9DoC5ZQYJcTSV31++puRA5o0RBBVkwAF6jPSHEmiOX3b2EYuj8Kp0VyKScuQQ0rV68fy6IcZ4OLS66jeSlGyhEXUXecVV3RhZmV0Z5j3ZFfQ9bvfOFDO89+6DMSsdyZ4d1WITGqy+PDXQBupnFCyMAqEI/6nmvgygNvMXyua9fdKrAeHOTOtEejPjjba7NfLC4A5dWEOQBXD/PSVD+nltk2C9ROiFXvrLBQF1AlhY+PjK9zg1zP0F5+0IqkcjbcSzuw2Y8+KF/vjHugkaSgdoGkm/Vww0VE2vjWqSpMmDB+yzzZZ0ZkGWt3tpAb4zgg7BoWg7jLwqxTlHEZ/V8oja/N0EeGSHHRpzrZFU1h+JfJN3MXCyoZ7YGtnhGTLxn8GNXJsJTC7ZcNrMzaQLknzIzdk0WYPKLaJtGmHbBw3Qbi9S856FOB/iC4WwZRnder1R9iUEFHgW6UjEfUReQNOtv1mtm8Jn0sdsySxY7wRXLQ/NzPUlFUD55gbvVgFzuIm5HxizpEEMU7QpVeiJGTXoDCMD0sovlBDmOq3O5OG+KjGJSDrWqFdiBRolWfNQq1IteCsxxAICRAyl0DQAZe/odG2a0asC6q48YOoMZE5iwx6c7ek9qwJNdPR84DOjiHKY2gAPiUpLxWlDLCAAzOAKszdTd16NBEl4BFyAx7HC5NOvnF+81wo01VW7x3i1XgKHyhbxVyGg4Tu7vG5tPZ6oNecTfc3WMG+fp5ghXg0GNSgCuLhTjjjj8/Sfq9Qi5gAdpgBZEhRTFJWskCKO/Qdy36DiVq7OKgXwETv3jyOxbGPG1YiJNUzNTJSUJMvPjHiS+3EsjbqnWf9VFLDoFlT7w8U/Sc2D+Jf5e2vvCzR9Cb0GeHIZdtgq/AW/dKD0rRIXcdRzO4ZE6zkUQJliW7EXsypHxAHycmXWn1rDKyZ8/1ms7lWZZqWCrmkxWAxlgXymqvAQ1nb2+nZLSS2ApIBQkP4mI5aZiAZhp7bEuToJl2AeI48V8zMpksNagwBy2gBRVIKPlLTXikTsG6+rIy2LcxZXOJAPHEwFaYTf/c7mIzudI3sOUJuLBKtTNls2g5xPuXLkDzJ1Bk3zmJ6PfgLne6meJhXIeOLUapnYtm0H16q+3bEZAb6HrZ3Ircn29/0EU+Y0rUBVcYGviVCdzK/EldoX8HTIpcLX+QFnp7wX1vDsCqTWWbWUvQbEKIZmaXVRIT+J5+qFSpasiHubdcqTWGKB8rtsg6/8vrM2woKqGpV1761WVvBT+Hk6Ik+6LtjVNZVNidtV9jTZOUw2NzgwJQIJ2vg60yyWZLXykJqRVl+AP5Iqh4c6CjaLadxn+aLbdto8eUWwWZDz87+JgAmpDxI/1BezCuSjliDTV4Sew9wh4S9Drwj+kZHRUXVoFzgL3xSlODOO5qQ1Gj99qNGLgkFP4zmZ4i4CoWZsbY+ihHd8oVA/q9FclRKLpc/Pg6KRDULO1GDvPifYLU4R9k//XCuWkxNUnClPMWcXS8W85nINgQwTlw/n+lrwQf9iqf8SMoICnFeJKpaT+3CSkiZKvm95cGtEm04wwvUF80K9PsdyzzZHHAm2YSvLyybPc4FZF/6y3ALEIXIi+QgSyotGaURAfwBSnkzDORN5qcC8CHIn0ObylR2jnmMAY6qCNx5Y54QpK3w4fBgss+YOuMy3TQj/mJR1NQg8ORitAouM+B6/+nqosOh+K3Cda5QEW8RO+yiAcwqqh3s7xrg+LAtg2ueg8dapL4uFSxSXKT3fL1ND9DH9sOG2TCqci8NM/EJGiZZT7eGLE/NsOm/qWeEnndYkN6R1uOUKEH4cHO5yyXink3Y5lQOvq3dZ5NQrtpJwhzQuz43E8ugkQtWNj/RzAik+ukz0lW52AtP6YmqOQlt0cmVsdVMHRN1v+ixLuiIF19FmQzknNZyWhXTKz2JQ/EmEdaRkA+hELX5lr/BmKUzuKA6Dmj27/zgDoitGIc14TAURQoA4iabRZKvL8Hj2+NBzy7ZrUzo8WVcOCjqEVsS0Cmzi7u1ejtrxOi3PHkAJuM4imBgQM2Mj6Mhc0O+4OEYngxzGwrM5U2uMswI7XsQiIn01U2cUn1jt1DZKLtUA0lETONV3jc2P17XY8m7sofG4Azzt75ovv3edNy4I7Fm7hlPBj68UhwFW67hYD3nvGER4BZ5lJPXiGaPyr4DQRuv5riXJZ3BKw/uX81SRmvB1helAfgW1ep1JeNHuQL/+T91lUixR9+sYRIr8bCZum5jFxYzCZlBqVXMx6zYWuqKmtxo3Vaof+82IiCgAfO21wJ2rVzA9eNt2Dnbs2oJmgtnBzO6WFOitj45hS/HewmA8zbFlmwfUvzy/v7UWcIbLMyJ8wh6JnMqUIBx9nS/oi8VYQKeBTrhMWlF/w/TAibKTD2Kto3UqGn+0o+nwtJWqddZ6FfBWDYx2zGQ3lyZ9Vi2alxMZPMh5xvKRYkDXbjnhaGqW4iJpnBv2qmsUIAtZtkKehmx5hmk2JM8ViJcEGHD2WY7Agdkxh63g6+sEtt/lmPPwc6ny5vfZZxg0cfyROyxeb4CtSOz1w6G+pg5CWPg+WKjaMboA474xkkRf2l0rS+nFmrcYIxTNGNkEsAAAIgCOvWo3EKZa56F1OICF7KYKZ+JCpatvztrwkB/aTS5LkAlywIdJU8lC3qr0kz5VU6BM6Fox25Q8pVVVVVHkwFWfJLalArfva5/7Yf4t5Rm3BLx8UA4q2+l04+PNBw5DoMeynmVeIiZ9GVw/J+vxzeE1VVSUCFLWRHgkZk3hb8c5azF2H+LQQNiy4T5BA52Sa6gwxyG7LikIrsPjYdwKRQe1P9K7Ciq02KGjLwi8eSWXAxGNpU76qgEB9uqgN55J1k0TQHhGJw3tJA8yN+ht9NdZaYLRN24P7Sk1oiMb7kjoOXD5W/Dpm1WQdDpsvMXH/6Ec2IzNJoGNXDeqTn48IeYMciKFJ3rHbZezoxeR9qHbTUh/UW5ZMmq0wyv0OQe3fZ3IIWenLeiy/iDdCvd+bFAfuefFencWGbVvXr3bcdp8yEjo6kBAe74aSRnWKfoETyIGf0X4KF6yO6JwCyCCaQe48xfOPu2LR9H20phTwDQW1BsTM4di+GTy365tHDzewqYhNYMlhVOCImj63/uDUHfhLwh48cWhntZTFv001CE+yG1ZYc0M6iuxeysuDqft6w/Bpa4wVJOQPVVXTiw3/KsSMPjHzlmq4o1Sdrz+qym4zgUXuK+Qvh0gOhAxGJfQ9nYJfcrO/uKJO8u59ttmeNi2Y1BRXI5qg9OEjNBS5+JlZdSFkL0HbIAIjj/48Tb6xF0qVGnvfICf/sYpEJR3Lg8WGx+8tYmj1Ss4PdxbHq9weEE9kw4EjYOgcj9qxrNmmn+nOV0nBjB1TrLit5W51wf/1lDxDWiLw6Pkpwb6JXkPo4fRpHT7AxeQzdGYZ73M7u/TnWXewo2QgnFVFMUKwDamsI/SNb9j1j/3nY/sLHJ8uIKgubD5Pt9oRSpvEXxAhQFLcNbS40XxboqoGZPaEwJKB46ddPZhSv7rcmC9ZY34KlMnt1pimGQ5GfvbCRTGAKuJnz6px0rEQ5QixPJcJqFLyMbNLDB479Zxg8TTHweiadOnUK1K0DCzm7uewXrFkW0i7XwQU9pd4xSDLZU8gTrbMDELXj16sk84Z0WVPx8u/jPtxOkj3kS7L17/4noFvi3Jf60wvbeRbSaPR12Ebcf9wlcAMAp7KWzFkIQFxWZtUFbzfrh0j57thIUOHBZ+kNPcL3Yk3XUUcD2uGwyJF8SekXMfWAJ+uydIqaMFqpFqgjkgSbGxynBrSRyIEr37W03C+tzI/HtHyzVTbO/GqMg+0KYPqQksEnonlgBGPiJGHfuDMf7zCd8mxWhQvJC92fK9gW7xRMp1/RiSBf3p4U8GwIzDtuaTbrhQv+eNN0ZjrmrLkZWqyCtSEUW9UXaYo5uz+Sd+X0Wcqe301WIeM2vPIsHHtYRJMjE+0q9n1YOC5H1cQS5fTaeZEE44EJ9yRyySZ2u30YwCsB97ky9SBUfcXd9quheOtMw/33n5el0GkNoprQrXjQzljm9VZECRx5JStBD5M4CH8yQkVJG2wzcyXnIh2KrAJvJxui5oynJtqWMEOBjhH0+uY9B+MFGufPJL//CSn1AHWBUXH4fmeSNA8y8VXTkbWcLEoSKoviq204moKHbwyJgdaoqDmQTxFNCWFJ0MfMmZkVWyqz4/IlWy3rMEUoBEhgveWdlp83Z6tjD2de/LftfIZ5jcljykoykrXs0/WATdY0/p2emOag/8NiWijp7uOI4hEHc+3UbgFbthtQf/o/R4mJB0FB0dbo5j/a3ZNDZQywRg8RbV0TTIP3nu1JVUuOiNzOh/1fyYDJMtV31ewJ345KR7Zwtl2ir6PvdfDVpRl+kBwgVV78p3vo3C+FGo93gDuzL3344oqnPC8UHa1PfYjVx1mj0KaE6smhlORMWbjDLT6e2Q2ikZX2cDFn2W3yMVxgA==;" vertex="1" parent="1">
          <mxGeometry x="1110" y="250" width="84.5" height="84.5" as="geometry" />
        </mxCell>
        <mxCell id="x2A0RtPgMXRv46P5IDje-44" value="" style="shape=image;verticalLabelPosition=bottom;labelBackgroundColor=default;verticalAlign=top;aspect=fixed;imageAspect=0;image=data:image/png,iVBORw0KGgoAAAANSUhEUgAAAgAAAAIACAYAAAD0eNT6AAAACXBIWXMAAAsTAAALEwEAmpwYAAAgAElEQVR4nO3dC5QtV1kg4EoYfOBzfMXETtfe1Q1Xoyh6TdKNgfgAwZEIghd1RHyg4KjAAEl3IDhBYXiIigFUHqKYQYEwgJDuAAOKIBhFRlEIEBUC8kYDCIFgJGHWjnWdvn37dvc59dep0+d831q1spK10vtx6vHXrr3/XVUAAAAAAAAAAAAAAAAAAAAAAAAAAAAAAAAAAAAAAAAAAAAAAAAAAAAAAAAAAAAAAAAAAAAAAAAAAAAAAAAAAAAAAAAAAAAAAAAAAAAAAAAAAAAAAAAAAAAAAAAAAAAAAAAAAAAAAAAAAAAAAAAAAAAAAAAAAAAAAAAAAAAAAAAAAAAAAAAAAAAAAAAAAAAAAAAAAAAAAAAAAAAAAAAAAAAAAAAAAAAAAAAAAAAAAAAAAAAAAAAAAAAAAAAAAAAAAAAAAAAAAAAAAAAAAAAAAAAAAAAAAAAAAAAAAAAAAAAAAAAAAAAAAAAAAAAAAAAAAAAAAAAAAAAAAAAAAAAAAAAAAAAAAAAAAAAAAAAAAAAAAAAAAAAAAAAAAAAAAAAAAAAAAAAAAAAAAAAAAAAAAAAAAAAAAAAAAAAAAAAAAAAAAAAAAAAAAAAAAAAAAAAAAAAAAAAAAAAAAAAAAAAAAAAAAAAAAAAAAAAAAAAAAAAAAAAAAAAAAAAAAAAAAADAMXLOr8g5f7bLoUuZNTnny7peF1uOpw3dHoDj5JxfJgCA464LAQAw21JKmwIAOJYAAJh5KaUNAQAcSwAAzLyU0ksFAHAsAQAw83LOfygAgOOuC3MAgNmWc36RAACOuy4EAMBsSym9UAAAxxIAADMvpfQCAQAcSwAAzLyc8/MFAHDcdeETADDbcs7PFQDAcdeFAACYbSmlPxAAwLEEAMDMSyk9RwAAxxIAADMv53ypAACOuy58AgBmW8752QIAOO66EAAAsy3n/LsCADjuuhAAALMtpfQsAQAcSwAAzLyU0jMFAHAsAQAw83LOTxcAwHHXhU8AwGzLOT9NAADHXRcCAGC2pZR+UwAAxxIAADMvpfRUAQAcSwAAzLyc85MFAHDcdeETADDbcs6XCADguOtCAADMtpzzkwQAcNx1IQAAZltK6VcFAHAsAQAw83LOTxQAwHHXhRGAYA9/ydmnPPjF536pcw2mRM75lwUAcNx1IQAIduHG6pH1jZVPr2+sXL6+uXLfi196+FbOOxhQzvnxAgA47roQAPQRAGyufvY/jo3Vj61vrly6fsXKeUcuO3IL5yAH2sLCwpfVdX2PnPND29n1L0kpvT6l9MZtR/lvGyml56SUnpJS+oW6rn9oaWnp66uqOmmSdU4pPVYAAMcSAEwgANhyrG2uvnd9c+WS9SvOPse5yIGxvLy8lFJaTym9Nuf8ma4P05TSh0t2vqZpvm0SwUBK6TECADiWAGCyAcAxwcDG6lXrm6uPunDjnMZ5yVRaXFz8lpzz8yMe+rsEA2/OOd+vruvP66sdOedHCwCIdsYZZ3xOzvmslNIDc87PyDm/LOd8Vc752pTSx7edc9flnD+Sc/5ASukvc87PLedlSukHy6jaEL+OAGC4AGDLqMCNaxurr1vfXH3wQ196+Ct6qBI7Offcc/9TeQPNOT+8DFPnnK9MKf1de5Eed6SU3pNzflNK6ZXl4m2Htc/POZ9X13Xqu5ejHrhN03zJXmUtLi42KaXNvh76JwgE3tM0zU9UVRX+nSzn/ItDBADlHGn//5t2OKeuzTm/Y/uxw6eUcryqGljbhojf+d5d6pFSumPgeXdk1PLPOOOML2ya5odzzi/KOX8qqB6faUfXHrqf63PeA4Cc831yzu8tGT7rul6pDnAAcOx8AZMHe3/o55zvllJ6QUrpE8EPsA/mnJ9XvnMvLy9/cXTdo+q5xw3m5PZt5rrIvhnx+Osy8hDZdymli7vWa5xyc86/HtUvkf0xZltuDLpOfvAgBgB1XX91O5fko32e/ymlf8k5P2FxcfHUqmcHMQBomuZ7U0o3bCv7r3LOP3Xqqafe6kAHACYP9qNE7e3b+vv7vHi3XMSfTim9tEyWO3z48C0j2tB3AFBucDnn10yif/bRf/9WhkejRgPKBMSudRoqAVGX8iNFfQYqAXLHetxhkgHAwsLC5+ecH5Vzvn7C18EnU0oXlJeWLv01SwFA+9vvNury0ZTSr5U5S9VBDwBMHgxxi/JGm1L6pwlfvNtHBh6/sLDwNV0a0mcA0DTNN+Sc3zVUH+3Sd3/UNM1XdToD/v1B/MiudRkq/0CX8iO1QVnE+ffDXerRNM05kwoAcs53aj/NDHkNvC7iGjjoAUBK6ZtGGH25sf1Ec4dqBgKAdZMHR1fX9e3K99MhL95tF/K/5pyfvbS0dPo4J1ZfAUDO+c4ppY8N3T+7HO9YWlpaHqfPtrTxEV3rMU65KaXHRfVDNbAdhl3HPf/+a5d6tPN2eg0Aylt3O9wf8tkj4LimaZpbV3MaAJTrv0yeHKdeZcJlG3TeYhYCgHWTB/eWUnrAAEN2+z0h/6UMt496YvURAJSbcdSNvec++1DO+RtHvhr/fzsv7FqHoZYfdik/UhvADh4ALC0t3b7PAGB5efkrU0p/OoXXwLubplms5iwAOP3000/LOb8zoH5vbX/vk2YhAFg3eXBHJ5cTceiLdY/jz8c5saIDgDJpZorecPb7KeU24/RdSmmta/lDrT7oUn6kMq8lqC0/0qUedV2v9hUApJQOpZT+YehzfZfjqjKfqZqTAGBxcfE/t8uEo+r48j7nVAwWAGxuOeY182A7bPf7U3CR7nbcVGYxj9O+yAAgpfSgqGVdEz6uKW9oo/ZdmUzVtexxfrOU0v+Ians1sMARtftMYwDQzi24dgrO8b2O589DAHDKKad8Qc75z6Lql1J6yySWWA4eAGzOaebBlNJTp+Di3Osk/P1x2xdYh7G/S5fPBSmlv2/Xpr8ypfSGnPPbAt8O93P88ahRfM75YV3LHfM3uyiq3dXAota8p5R+tEs9yrrv6AAgpXT3wDX9kzjuM8sBQJtg6WWRnxAXFxdzNQHTFACsz0vmwfab/9AX5V4n4cfL96xx2zhgvd9ShtCXlpYO7/LgPbnk+G9zCPz5BOr0mBH77iFdyxznNyvpk6PaXA2sLEsL+u3u26UeKaWzA8+lI+2nsN4yXfZ0/n/4tNNO+/IZDQBObrMkRtXr+jJvpJqQaQ0A1mc182CZVR+d1GfbxfbxbZnaPjTOhKi6rv97l3YOcJP5u6Zp7jlOXVNK5/a5AqMsSSsPghHq8+CuZY7ZD+dHtbkaWFRyqJTSj3Wsx1mB59JrDuinsHI8aRYDgJTSbwTW6aauy05HdcHlt7/D2ubqPw/9oF/fb+bBzdUXrm2cfc8HXnHXz60OouCT+OhxXUrpVxYXF8/Y7RtVu9TwR9s6nPAGmVL6i67LUCZ4YylpSR9ZhuECsi4+qq+3qzIysd9PAe2ch07ljdMHESMPXcqPFBVkBwQAZ07wWtirLR8r52HO+dXtPeCykgCsTRd+Vc8jC9cH5BaZqgAg5/xLwb/PBdUAyuS78t29fH9f21z94MEIBlYP3uTBdn1o6Ez2kgN/nLX6dV1/aTvb/L3b/t4NTdPctmtbJ3RTK5uYfHfXum6r9716XJL58/usw893LWuctkcEHl3Kj7TD5jZjHXVd/3iXejRN860TuhZ2ujdcXd68y8hY2S9jr7qWl4R2qe1re6rTE2YlAIgYpdt2PLmaAgcxGFg7KJMHc85PDD5pntH1Tb28OaeUfnrLcqJHB7W17xvcP9d1/XURdd2h7neLyiS3vc6HDh36on2U/7Ndyxqz3T8X1dZqYG2O+s7taDd8OjABQJsk65Ku10ZJC95uKBZZtw91GamblgCgHUUN+xSTUnphmUtQTZkDGQxsTPHkwZzz2wNPmtdHrhFtlyXee3l5OeTbSs83uutG+aY+jrquf6anG/TaJMoeus3VwAKzRf5kl3qUyag9Xwtbl+w+a5xlpyfS7rdxZfD5f/eDHAC0Lwc3RKZOLvs3VFPuoAUDa9M2eXB5eXkh8kJqmuY7qynW582u6xat+5VS+oMe6v7BvYKsiFUiY7b3p6PaWQ0scBe8+3WpR9kpss9roT2urev6rlUPyk6hKaW/DTz/n3lQA4B9bO4z6vG2iNURk3bQgoH1adi2uFyggRfRxyaVK3pcPd7sLptUGxYWFr6sLGGKbsNe6WUjHsTjtLe87Ua1sRpYYJKcn+pSj7quv7nHa6HcC/5hP9/3uyhr0gPzKrz7IAYA7QTqyD1I3l/XdaoOuIMXDKwOM3mwXXMeddFfXU25nm5410YOce6zHffroR2v6bvMcdpaZrxHtbEaWJlvMSUBwO16uhbK8a6UUl1NQNSM95KE66AFAGXydpvaO6TsMkG1jAxVM+agBQNrk5w8GJllrWwXXE25Pm54ZbnfpNvRzo34ux6+19Z9vomP09aSsS2qjdXAorbULqMxAdvC9nEtfKKvSbC7fMKMmPh207gT3oYIAAI399manfQu1Yw7ctCCgb4nD5bZ9ZE3gEle/OPo4ab30Unkxp7gKMBDTlReWXrW9e+P086ShCSqfdXAoj7dpJTuP40BQNddCsdsy99E1H3cSW+TDgDaT4CRm/vc1HVZ6UF05AAFA71NHozY4nXbjekp1RSLvuGVPQGGaku5YeWcPzKpzwAl/WzXvz9OO8vkyqj2VQNrt2SOOO8e0KUeZVvo6Gsh5/ySuJ4aqS0vj6h/2TVv2gOA6M192uOias4dOUDBQOjkwcgZ1u1xY18zfyNE3/RK7v4h2xOc8rM8WP71RFulRgzFd0iCFNK+amBR32zL0sgu9ShJtaLPm6Zpbl0NIKX0gog2LC4unjrNAUC7uU9IsLPl+K1OnT+D7v/Gw7dcu3z1Luubq789/emIVz5a0iaP3dh2Cclng49rp3UySfBN72+Hbk/TNP8l+vc7UQBX9qDv+rfHTf4S1bZqYDnnD0S0o2ma/9alHk3TfEPwefPsaiBRD+Bxd7qbUABQNvd5XvBv9uJpX7U1tCMHYGSgbJw0dgNL6t0+cm2XjGd1XX97NWUO+uS/E3wG+NQkdgmM+BY/ThtzzudFta0aWFlmNQ0BQBm5ijxn6rperQYS9QAed/7SJAKAlNJvBl/jrz8IiX6myZEpDQY6BQBFD9+Ujh7Xj7sTXl8i2zfJ7TF3k3O+IvjmsLlTOSmlH+z6t4ce5ahmJAAoaZmnJQBIKf19NaDAAOCbhyz/RAFA9ETtg5roZ5ocmaJgoHMAELnf+g5HWaLzi9OSUzqwXddHpSfuqocNQN6/Uzntvu+d/vaY7btLVNuq2QkAfq5LPcoOnVF9mlL67Wo2AoDVaQsAyvbn0df2LCT6mSZHBg4GOgcAJYlN9DDyDjeJy4daLrfVpJLmTFJJvxz9e5VPQ9vLyTn/QNe/O077cs53impXNbCc8/smuYPjiZTh7sDzpdO+BFMUAHzHkOVvDwDaVTc3BX+WvV1o5zN4MNA5ACjK8r3Ak/hEJ+DVQ8+aD2zLr1RTouxnHv1b7TSJs3zO6fp3x2lfmUsS1a5qRgKAksGzSz3quv7aqD4d+jNf4AP4zgOX/x8BQJn3ErnzZ7tK47vCO5/Bg4GQAKCsgY2aobzHcd2QSScCL6hOiViCnRS1z/yW40gfs/GHXqlSzU4A8KAu9UgpHQq8Fr6vmo0RgO8Zsvz2eFpK6Y7BI7JlFOFH4nueaQgGQgKAIqV0bk/7ze90XHqi9eZ9iqr/uMOFfUkpvTHy99npDbPc6Lv+3XHaVr7NRrWrmp0A4MEd63GbqD5tmuZ743po0AfweQOXf/M2vMGb+5S/eUF8rzMtwUBYAFA0TfMTJZlP5Am4y/H2SX+Tiqr70tLS6dUUyTm/KPi3eVQfy/HGbNuZUe2qBjaLAcDQOeQDRwC+f8jyezouie9xpikYCA0AipJlLHLyyT6WCnZa0zyKoDrfOC2rGo5KKT2n75TO5U2v698deuvaakYCgDI7vEs9Sta+wPPlTtWAAh/AR2YsALhs2u5TxAcD4QFA9DbB+zxePG4u7lEE1fXaasqUpViRv0dK6Zl9rMcfOm99NbBpCQDKVrJRfTp0wq+oB3BJdDVk+cHHa+q6/rz43qZPD3vF6ldduLG6vr6x+p5BA4CivJlPcE5AOd7RNM23Vj0Kquc7qymTc35y36ldI9bjD71krRpYzvm9QW15aJd6LC8vL0X1adM0/e9bPoEHcFl2N2T5wccfly3D43ubPpy/cfvbrW2uPH19c/VTg38C2KrkhS/rRyd14qaUPt11idNugur519WUyTn/cvDv8JztZaSUvrvr3x16uLqanQDgYV3qsbi42MxCGuDgB/BPzlAAUI4nxPc2US6+uDp5/YqV89Y2V185NZMAd9k45F0TPnkv7WMIa9aSAPUYAPxOHwl5xmlb2aQlql3VjAQAKaXzu9Qjsk/rul6pZmME4P4zFgDcNHSOBo538RVnffH65uqD1zZWr5mqZYC7yTmfknO+cpIncErpDcvLywvB7Yio1+urGZ8DUD4p9JFxcJy2lRUXUe2qBiYA6KVPLxtyf4XgAKCs/39T4D20jN7eJr7XGdUFl5996zLBb31j9bqpzAOwl3Y/6idNcIXA0dzVYUsFg+r0V9WUKZMoI/s9pfTY7WWU3Add/+44bSv7tEe1qxpYSuk907C2u+SDj+rTGRoBeNAUBADXtnNePhl4Lb/llFNO+YL4nmdPn61OunBj5U7rGyuXr2+s3hT54J94ALAtIcy1gSf9XifwJ8ZN07ldUJ3eWk2ZlNKfRvb5TrPMS6Korn+3w14VIe2qZmcEYK1LPVJKdeC5MhMBwLgTK4MDgJs34iqfIyKv55zzc8M7nhO6+NXnfuGFG6v3X9tYvaqPh/6gAcCWG0hf2wjvdMP7dM75bl3rHVSfa6opU6L84P6+dx8peTukqQ5pVzU7IwDrXerRNM1iVJ/OyiTAcYOq4ADgXUf/bkrpBcHXdKf00eztwo1zmrXNlcevb6xe2/eDf9AAoDh8+PAt28lnk/ok8KnyFtqlzkH1uK6aMjnnf47s66Zpvm17GeW/df2747Tt0KFDXxTVrmpGtgNumubCLvWInFcxKwFAzvkRA5d/84ZpWwPflNK7A//2DTtd13RXEvisba5etrax8m+TevAPHgAcVTbRSCl9KOpE3ceklm8ct65R9Wia5quqKVHX9VdH93MZdt9eztLS0u27/t1x2rewsPD5Ue2qBhZ4nTy8Sz3K5NqoPp2VACCl9D+GLL+tw5u3/u2SYyHn/JnAa7skojolrPPn2AOvuOvnrm+u3Hd9Y/VvJv3Qn6oA4OhErZTSqwJP1N2Ot4+7kVDghXp2NSXK/IjI/i0PqZ3KKd96u/7tcdpXEppEta2anZEaAUD8A/iXpuATwHETjFNKF0de3znnV0sSNL61K85aWN9Yfez65uo/Dfngv/nYWL3ugitWOo2KRzo553zRJLIH7rROfT+iyq/r+oeqKVEmLwX37atOUM5ZXf/2mE08Kapt1cACd3oba7j6qIWFha+J6tMyMlTNxgjAY4csv63DX+5QxC1SSq+NvMZzzk/s3vPz5cKNsw+vb65cur6xesPgD/7N1XeWlMEXvujML6+mTfutOCrj2YmOMu/gzFHrFlj+o6vZ3Qjof+5UTknT3PVvd2hjSFBZDaxd0RLxO13UpR6nn376aVHny6wEAGU+08Dll2vvL3aZtPmR4PvnvTp3/oy7+LIzPqcMsa9vrrx+Ch76n13bWH1dqc/Fr57yNM/lBhO9R/0OF8sfjVqvwPL/uJoS0cFW2fRnp3KWlpYOd/3bHdp4fUTbqoFFtSOl9Mgu9YjMrTArAUBK6deGLL89rtylnHtFXucppY+nlA516vwZ35RnbWP1H4d/6K9cf/PIw+bKbauD5NRTT71VSumFkSft9qPkiR+lToFlf7Ksguiv9ya/r3t7fKau6y/ta1veod+cq4GVmdhBN+9fmJaJo7MSAOyU/XLC5Zff9XV7lPX04Ov9qnHnU82i8ztsyhP+4N9cfe/65uqjpnKYf8R5AY8PPmm3Ho8apTKRZQ+dAKVIKT0gsk3lW+MuZX1T178/bjtzzh+NaF81sJzzjUPOWD9KALBjn/7GFAQAJ7z+jr5UlURkkdd8zvl51Ry7OGhTnrkb5h9FmWEbfNIevWD+dMR6RJb/i/312L7b84fB/XnCTWaaprlt178/bjtTSh+OaF81oMjse2VmeMDeHiF1maERgKcNXH45/mSv8tpAPORT0pbz6cHVnLk4eFOeuRzmH3jDmnJ8apSh+OCL5u+rATVN8yVthsSoNt20tLS0vMeukJ3KGLetKaV/jGhjNaCy3/y0BAAlj0VUXYZOLhM4B+CZQ5Y/ytyismV6YJlHkwSdU82BC3ralGeeh/n3ZXl5+XNzzm+LPHHLsdtDa7vossvSuGogKaUfC74J7LrL4eLi4hldy+jQ1qsj2ljNzmqNkT599bm/wqwEADnn3x24/BMuwd3BSSmlyyOv/5IkqHwaqmbRBDblWZ/3Yf79qOv6HsEn7UhDkNFlp5Se2m+P7dqWVwS3Zdf90Ou6/tquZYzb1pTS30S0sRrIwsLCl7VbvU7F56fb3OY2XxFVlxkKAC4duPxyvGLE3/B9kfeAnPNrZilJ0CQ35Vk3zL8vt+hhJ8Hz9ntCBJdbjk+VJVXVhJV0yJF7MJQENcvLy1/c94qDcdtb1kdHtLMaSM75YcHn3VhZ64467bTTvjyqLkMPHQd+Avj9Ictvj5eNUnbTNN8VNbF0Sz/8SnXAPewlZ+VJb8qzfsJj5X1zM8y/HymlV0aesHVd33W/ZQffhI8el1QTVm5WwW3YMwlKWXLZtZxx21veTCLaWWZRVxPW7mYYullT10RUkQFA2SWyGlDgA/h5U/AJYHPU8lNKjws+t8qLxfD55Q/YpjzrhvkHy1y371zIwRfK0eP6kqmrmpCSkS8y3XKZSFg2h9mr3OXl5aWuZY3b5pzzyw/qHg5lfXkP59yjAz5JRJ0/d6xmYwTgBUOW39bhpaOWXyZBR42QbanHx8snv+oAmJZNedbnZTZ/Vznn587QJMCts3dP7rfnquqUU075gqgJcVuOX99P2YuLJRtpt7KGXu447p7v42qa5nv72C47pfSYgFGJqLoMuhlJ4AP4RQOXX44/HKcOJThvd0qNPM/eOs1Jgs7fOPOry9D62sbKh4d+8K8f9GH+8kYwqbLKjleBJ+n1ZV7BCGV/tq+j6x7t+5z5Gz168vGdtv7tax37uA0vw7NBbb5mlPOli3bEJHrof9f9GvarZHuMqktd199RDSjwAfySgcsvx4s79MOP9HCuPb+aMtO0Kc/aLMzmLw+AsgVsSapT1nr3WVa7C1nkpJU/H6X8Pm7GW27KN/R5Myy5ynuo8wX7Lb/dkKRTeeO2Pef87MA2P6jqWRktSSm9u8dzbayd67bmkIiqS9M031nNxieAjSHL7zIKsaUul/Zwvj2kGtj933j4luVBWx64wz/0V2ZrmL9EeVsughvK20Vd15/XU1mhaYFHTYjS1w152wYb5/bw5v+YHur7plGW/JR5Al3LHLcDUkrrge3+ZMlqWPVkcXHxW/p8+Lfn2eO61LGs+IiqS5mJXg0o8AH8soHLL7/r/+7SF4cOHfqikqAs+Fy7YaiJng+/4pyvnJZNedYP+jD/TspszxP86FdHT+4pm8kEZ64rw4/fPGJ7e7spb+m70safi5gTUAKxlNIf9FDHkvnrWye9hWzHZY+RffD+UTeS2oeTcs73C17vf6Lj8dMSAOSc71TNxgjA/xmy/C4TEbfV58yoTae2Xi+TXO68dsVZC2sbK8/697ftAR/6G6s3rW+svGp94/Z3P3LZkYl8Opz00P9uOdbL5KWnRfzw7Rry0G1rc85/NkY9+r4xb72YX9slU2C5kIPnS2yt2/oQW8h2fLi+I7gPPhz19lq2Sm5/70mdX4/v+qYYWJc7V7MRAPzRkOVHfnMPHjE72j+vndQOqGW43zB/z0Y4ccvGE79VvmuOU05K6d4554/0cBMcea3qBG/QW49Xp5R+tMy83md/nZ1SelZ0go9t2cZOHmIDmVHL3Fb+I3roi8+UXeDGmQS7tLR0es75J8vcmQHOqSd06csyuzuqLiml764GFPgA/pOBy4/cme/kklY4+rwr85CqmQ4AVmZvmH8nTdPcc5ybZc75yrIVadkKt0wk2m3ouq7r7+/xrejKMR9ifd+Yd7t4/i2l9Iac8zPKrns5558qQUxJwZtzvqhdHnlNz/V4234DkT7yx1cdlDzl0Z+Qtvw2n0gp/WZ5mJUUq2XfirbYk8vGOWUfhLquv6csI2wnWr19yHNpP4mb9lpOGth3d6lmYwTgdUOW3x7PjeqX8skupfRPPVwr965mLABYm4XZ/COuAf5A4KS3t5QHfcnwV4bRcs5/Hb1d5bbjM2XIdZy2B9bh93psXy9HWemxuLjYDJk9btyye06qc6L+iv6OGnk8sUs/tvvKTzwTZx8CH8BXDlz+2OmId6nbedF5KEqwXNf111UHPABYm7XZ/PtVdr2aghtYl+OiDm2PuumVddS/PgV9Mcr37tsOnT2u6qidiPjJoftzjOOmyP0AuuZrX1hY+PyoupSRkWo2RgDeMGT5bR2eE90/KaWn9HA+v63MI6kOZACwMh/D/Dspw3VTcDPsminrpHHbH1WPo58/yo14Cvpkr5vKB8ss+q7nTkTymK51aPv8/Gno1xFHEu4Tef6llH51WgKAku2wGlDgA/j/Dlz+2DsS7mMlUchumtuOy7rciycdAKzN0zD/JBKqTPoonxjKjatj+6Nuev8x/6EkZRm6b3Y5rhp38mYfS8ci6lFyF6SU3jgFfbuf47qtQ+TTMhmrPBQC23i3akCBD+A3DVx+OX4vvodunv11zf4AAAYdSURBVLD69T0tT33YNAcAczvMv4uTy49WvuNMwc1xlBveZteHfxFVn+0TIFNKD+xx1v64fXZ5eWuvgkTMHA9Os/vRoft4j6PMszlza72nJQAokxyH2I57yj8BvHnI8tvj2VVP6rr+mZ4mNt9x+gKAOR7mHyGrW+SJ2+e301+K2mgnql47rYDIOf9AeeMbus9SSv/apu8MHZ6LmDkeWZ8y9By5K2Lwb/DmsnfC9joHlvGkLn13xhlnfE5gW7+vGlDgfeytA5df+vJ34nvomLq+qIfz/QNlbs40BACG+UdUknj0sLtc1MVwdV3X3x7c3pC6nWgJZErp0MDD06/oaxvPiO/G0XUq39anbeSl3GRPdH5MegfHEykJXaLqklK6ezUbIwBXD1l+W4dnVT0qE3lTSu/p4ZwfexOjrgGAYf6OyttASukBfecvH+EoSYMe0cd+BFF13C0HQvt29egJpYQ9eryj5F2oehQxbNxHvZqm+eGel53u97i+TQF9QoFlXdJ1HkVUXeq6vkc1GwHAPwxZfluHZ8b30HH1vUPEyFk7ufUl5b5T7nmTDwAM84cqP2Jd1z9e1sMOcQNtI9OLdnu4dhVV1/3Usd0979I+31BL8pLy6WESW9xGDBv3VbeSmCrn/M4hztv2eHWZaLVXPQPLe/IUBQC9Bp4TfABfM3D55XhGfA/tWOeHj1vHdkXBQ0qCrL7qt1sAYJh/AsqysXZ2+9v6vHGmlP6l5L9uvyP2/hCLqvcoQUpJvlNyt5dEPEHlv6ns2Fh2nasmKOKh0Wf92uQ2vzzJkZey81oZgdjvfIvAcp/SsbtuEXgt3LOajRGAfxyy/PZ4ejW5yeAvH6Fvyp4xl4y6+VpUAGCYf0BlI5+Srjal9L/arSZv7JI5sLwttUPkd96ScnVSbYm66X3JON9dy1bBpe0ppdfvZxZ7SeVZcnqXdd8ppfuWUYVqOCd37bdJVLJNWfzonvafODox9c/avShGClqnKADo/FtuOe5VDSjwAfz+gcsvx29VE9JeJ+/b45NWadt5k9oE6PgAwDD/1CmTwcrbZ7nwU0oPKm+jJXJtN7C5rN2+tvz7U1JKv1C2SC051gd+eN0s6kKN+kxR8s6XzX/KlqrlKFnVmqY5p0wmjFzCF6W9IYx9TLKu7aqFsjLjdwNGXz7SvjE9dKfZ/ZPqvy3H/Tp2z0lRdSmfX6oBleumJIcqO+BtOx5TRt62Himlp5Z709ajpN9t71tjfX8v97g2DXrE8aD4Htq17ue2e7xsDW5fU/YpGfL+c+HG2Ycv2Fy9x8xtwcuwpi0AYGJObj/F3Lmsh04pPW7LQ+D5Wx5oz24fCuXz18+WJDdN09y6r4xnMLSU0iPL5lbln3Vdp6HrA70RAAAcQ3DLfBAAAMAcEgAAwBwSAADAHBIAAMAcEgAAwBwSAADAHBIAAMAcEgAAwBwSAADAHBIAAMAcEgAAwBwSAADAHBIAAMAcEgAAwBwSAADAHBIAAMAcEgAAwBwSAADAHBIAAMAcEgAAwBwSAADAHBIAAMAcEgAAwBwSAADAHBIAAMAcEgAAwBwSAADAHBIAAMAcEgAAwBzKOV8WcZx66qm3GrotAAAAAAAAAAAAAAAAAAAAAAAAAAAAAAAAAAAAAAAAAAAAAAAAAAAAAAAAAAAAAAAAAAAAAAAAAAAAAAAAAAAAAAAAAAAAAAAAAAAAAAAAAAAAAAAAAAAAAAAAAAAAAAAAAAAAAAAAAAAAAAAAAAAAAAAAAAAAAAAAAAAAAAAAAAAAAAAAAAAAAAAAAAAAAAAAAAAAAAAAAAAAAAAAAAAAAAAAAAAAAAAAAAAAAAAAAAAAAAAAAAAAAAAAAAAAAAAAAAAAAAAAAAAAAAAAAAAAAAAAAAAAAAAAAAAAAAAAAAAAAAAAAAAAAAAAAAAAAAAAAAAAAAAAAAAAAAAAAAAAAAAAAAAAAAAAAAAAAAAAAAAAAAAAAAAAAAAAAAAAAAAAAAAAAAAAAAAAAAAAAAAAAAAAAAAAAAAAAAAAAAAAAAAAAAAAAAAAAAAAAAAAAAAAAAAAAAAAAAAAAAAAAAAAAAAAAAAAAAAAQDX9/h/1UKanbrhmUgAAAABJRU5ErkJggg==;" vertex="1" parent="1">
          <mxGeometry x="1213.5" y="241.5" width="93" height="93" as="geometry" />
        </mxCell>
        <mxCell id="x2A0RtPgMXRv46P5IDje-47" value="" style="shape=image;verticalLabelPosition=bottom;labelBackgroundColor=default;verticalAlign=top;aspect=fixed;imageAspect=0;image=data:image/png,iVBORw0KGgoAAAANSUhEUgAAAQcAAAC/CAMAAADEm+k5AAAA5FBMVEX5+vodJSz///8ArGkc54MADhmoq60XICcACxcIFR9GS1Dy9PQSHCQZISm2ubuJjI81O0EAqGBiZmkAAACp3cfr7e3/+/8AABPFyMkA5n2S1rlna244QEYAEh0AAAYoMDbc3t4AAA2ws7UqKzZMUleWmZvP0dJUWV4jnmmgo6Vvc3fj5OV6fYA+REl+goXLzc+I77hn7Kbh+Oyv884o6InO9uFL6piX8MB17a279Nbu+fVa66Df+OuA7rMAUjks1YEjFCs6iWUu14gaFCUeuXe/5dRTwJCDz608uYNcr4ocnGa44tCQ+KqjAAAG4UlEQVR4nO2aa3ebRhCGYW0MiIuwZYQUgwBZSLZuSVzn5iRN21zb/v//05kFBMjKqd1Ekk/9Ph8cBDsw8+4ws8uJogAAAAAAAAAAAAAAAAAAAAAAAAAAAAAAAAAAAAAAAAAAAAAAAAAAAAAAAAAAAAAAAACg2923Bw+B7s2z51ePXolu95frfv/wmbJPJUROebQHD7ovXvYPif71m/29HdZZizmxFJEtWov5zoXoXr3uSxlYiZcv9iWE1bJ1XbdbpENb082THevQVV4dliqwEP3XN/tRwhrpqqrqUgdTtXerQ7f75rqmglTi8NVeyoTldbRSh0EUTHapQ1kYZCKs0mJfZUIcabkOvSzLhrvToXvzvioMb981f+1BiFKHXfeLV2sZ0H33tsqO9zd1D6Vf9MdvOki/rOpU5X4tkEZM+Y/GON+qhm7UgY5qY7bA7NcP/SLooiLUqsX1h9Pqyf7I8zxLuWyZpjlyKw+VoxGdiSZD6aUfe2Esr4qlF3qeHOerYXGSzw9jLx4rWcuTp0R+R3Pi5lGu3ossDr1podSs7dEQddrbmhB+57ffOex6h6DuIV+OPw6OT6s3w/ds3Rh6hu2ojh1MrCKqccxn6JSxmHFYsa1Hsu0L29adNOFzbqrrWlIKdxToUXth6HpAOoieo+lkr9rBaCbqOlR9U2SayW3EMdMza1s6DNSP5xeHayuG7tXz/odPB2s6kLsmu8xEhYuuQR7apmnT33RMcS1N1VH52mxAwzSudNwCnbicSg5UtTkug1JgmFb2zljUdVj1zXmglkSj7emgOh9b4/WEE0+ODzbooOppGg1MOhjIpB5rlB3ppN2epHTN9kkYirIz4/Q3eJbPeJSnq+a8oQNd0YzOUPT48QHZj1JHtT1rgw6izTJEAztlybQtLTFZB3Zl6jfv/x0d7MWYqto8oqMJj1rYNPtjrmhjOhctqZxR+AZlgZjafGdT8LtH/rtNHYzJcDhMFFJIjxO275G91ha3dCCpeXhGlXjMT+s83YoQ7KP0V8uURhPYqIPuSbnEGcVocI+noNNx8YZQIB1LTr5NkyZoCM2fQUG6NMqcre7MOkSXsh0Maar1pKiPBr08/m0dppR9miyQworTYHordX+ODqmZC+FosVvrS5t1IPflxTEZUQkUc/J1WWwRBV2nRGD/VVsos5TCsLlANMtDrgMFzIdzWzXb5RYzdNSgJ9Z18EN6qZZF3+i5ypZ6p7CWHTtXQk8nSeXtRh2MIrtnsSp9XtDcT48KRo5qZqIoEFwegsTmAiHLw7Khg5P3U4tCt5c1+yhb10EklGZB6dc2F1YimQyKLmAPlmVf+jcd8rmTJUMr4OPpqkBQeQj4/TFFszw0dIhr9hG3o/ktHcZUgNWZsgNoCmOt6Etmcn8djIoO6SB4kudUHigKislIuDxEVSTrOph1+w06BLvSgdd0WZCXCed+OvB7sXRrUALLAqH6qaodiWRAmUC/da9WeWo6LOhVajfs1+ukSMwdvRf5A/yp+R90oOSnqa+j5E3EbNsqF1IuEDLYjTqwvblcM1+vk1xdCnPhXlrblkL2wvvq4Nb6ppUluY8WZzKpauSLCF5118pDQwfqlau+6ef2G/umOc77ZhgMTrbTN39IB0XhAhH1eCZnraDjZdJ0oavFUjJfVNIQv/agSgdZIBxV2ieLYLC4tDasoyLevQx5SItc7PS2ux1v6iA+fzu4gw4yIdQ0nrZbAzJP5f5QZBHHzotKZSaXaU5Y87yug3Dlujqekz2JN9iwnqQDfoYRtdSUHmGeKNZTd0c6iKsvnA13yId88e/Ycj9oFHuvnkyCAd9KqNyS6+WhoQPZp7k9Dwvmm/dZJ7KbOXJXSgva3tDd3v67pkNX+Xqcy7C+73bSlQ60pc7XupdRvm92onQVbao7jh3lHyEix3GCXkOHwLFX/UNcGpG01yMtE+XlfN/tlN+r50a+75Z7e9G7dLezx2joIJTTg0IF+vdzNcAfeWFcBOS3wjB+WtS3/DuK114tRsWJF4aeXEHS0iSk4/pXAzGMQ29ULav8bMH2i2wmVpcn/B3Gq77DJPI7jDka8h5o5g5r5WZLOszefVupcPy1ufWqfShrHitJ0vhWJ6rLoj7ytm3dfu3y2uOsJLFW9/wJ8X4PqYNz/mepwsHxl6u7P+9HPbuD/baXUOVjZD6c/1Wq8O3zjh78wCh0uCgKw+mu9H9wnBgrHY6/3jxWFagMzyNb6nCvwvA/RIwnxvnF8ae/H7UKivwQEV482et/A3kgCMV67MkAAAAAAAAAAAAAAAAAAAAAAAAAAAAAAAAAAAAAAAAAAAAAAAAAAAAAAAAAAAAAAAAAPFz+AV76kkwLgb67AAAAAElFTkSuQmCC;" vertex="1" parent="1">
          <mxGeometry x="1320" y="248" width="110.16" height="80" as="geometry" />
        </mxCell>
      </root>
    </mxGraphModel>
  </diagram>
</mxfile>
